<?xml version="1.0" encoding="utf-8"?>
<!-- Generator: Adobe Illustrator 24.1.1, SVG Export Plug-In . SVG Version: 6.00 Build 0)  -->
<svg version="1.1" id="Livello_1" xmlns="http://www.w3.org/2000/svg" xmlns:xlink="http://www.w3.org/1999/xlink" x="0px" y="0px"
	 viewBox="0 0 165.92 118.44" style="enable-background:new 0 0 165.92 118.44;" xml:space="preserve">
<style type="text/css">
	.st0{fill:#FF0000;}
</style>
<path class="st0" d="M33.32,69.83c-1.69,2.47-3.38,4.93-5.06,7.4c-1.09,1.61-2.16,3.23-3.24,4.84c0.05,0.06,0.1,0.11,0.14,0.17
	c0.72-0.32,1.44-0.63,2.16-0.95c0.04,0.05,0.08,0.09,0.12,0.14c-0.22,0.22-0.42,0.48-0.67,0.64c-0.87,0.56-1.74,1.11-2.65,1.6
	c-0.5,0.27-0.57,0.56-0.4,1.07c0.62,1.9,2.08,2.74,3.92,1.95c1.18-0.5,2.28-1.29,3.25-2.15c1.05-0.94,1.9-2.11,2.83-3.16
	c-2.31-3.75-1.32-7.12,0.98-10.33c0.5-0.69,1.2-1.15,2.1-0.88c0.98,0.3,1.52,1.01,1.62,2.03c0.15,1.46-0.2,2.85-0.86,4.13
	c-0.8,1.56-1.73,3.06-2.6,4.6c0.71,0.69,1.52,0.78,2.61,0.19c2.24-1.21,3.95-3,5.35-5.09c0.43-0.65,1.1-1.33,1.13-2.01
	c0.02-0.58-0.74-1.18-1.15-1.78c-0.98-1.45-1.25-3.08-1.26-4.78c0-0.27,0.09-0.55,0.18-0.81c0.57-1.55,1.82-1.89,2.98-0.71
	c1.53,1.55,1.85,3.45,1.25,5.51c-0.12,0.43-0.38,0.82-0.47,1.25c-0.06,0.27,0.03,0.79,0.15,0.83c0.29,0.08,0.72,0.04,0.95-0.14
	c0.81-0.63,1.55-1.36,2.34-2.02c0.23-0.19,0.53-0.43,0.8-0.43c0.39,0.01,0.78,0.22,1.18,0.34c-0.12,0.32-0.17,0.71-0.38,0.95
	c-0.82,0.91-1.82,1.55-3.04,1.83c-0.3,0.07-0.62,0.28-0.84,0.52c-1.23,1.38-1.95,3-2.09,4.83c-0.1,1.3,0.7,1.92,1.9,1.38
	c0.98-0.44,1.89-1.08,2.74-1.73c1.02-0.78,1.98-1.64,2.91-2.53c0.34-0.33,0.61-0.81,0.75-1.27c0.75-2.43,1.44-4.87,2.18-7.3
	c0.2-0.67,0.12-1.07-0.65-1.3c-1.73-0.52-2.91-1.63-3.31-3.44c-0.06-0.29-0.13-0.68,0-0.89c0.16-0.24,0.56-0.48,0.82-0.44
	c0.46,0.06,1.53,2.14,1.47,2.76c-0.21-0.18-0.4-0.33-0.58-0.48c0.26,0.82,1.48,1.79,2.29,1.87c0.61,0.05,0.72-0.38,0.9-0.8
	c0.88-2.14,1.68-4.33,2.7-6.41c0.77-1.57,1.81-3.01,2.75-4.49c0.21-0.32,0.49-0.62,0.79-0.86c0.64-0.5,1.29-0.31,1.63,0.44
	c0.47,1.05,0.6,2.14,0.39,3.28c-0.53,2.78-1.16,5.53-2.63,8c-0.04,0.06-0.03,0.15-0.07,0.45c2.79-0.86,5.48-1.69,8.16-2.52
	c0.03,0.08,0.06,0.16,0.1,0.24c-0.19,0.1-0.38,0.23-0.58,0.3c-2.51,0.86-5.02,1.7-7.52,2.59c-0.41,0.15-0.85,0.48-1.08,0.85
	c-1.77,2.83-3.79,5.46-6.17,7.81c-0.99,0.98-1.09,2.27-1.04,3.79c1.19-1.15,1.51-2.56,2.06-4.07c0.14,0.35,0.29,0.53,0.26,0.66
	c-0.36,1.49-0.58,3.03-1.68,4.23c-0.68,0.74-1.26,0.63-1.58-0.34c-0.08-0.26-0.09-0.55-0.13-0.82c-0.03-0.24-0.06-0.48-0.13-0.94
	c-0.88,0.76-1.57,1.48-2.38,2.04c-1.09,0.75-2.21,1.52-3.43,2.01c-1.59,0.64-3.11-0.55-2.85-2.25c0.17-1.13,0.71-2.21,1.16-3.28
	c0.21-0.5,0.6-0.94,0.92-1.43c-0.47-0.62-0.74-0.28-1.06,0.15c-1.29,1.68-2.5,3.44-3.95,4.98c-0.89,0.95-2.11,1.62-3.25,2.31
	c-0.77,0.47-1.67,0.47-2.49,0.04c-0.58-0.3-0.92-0.09-1.28,0.36c-1.28,1.62-2.53,3.28-4.31,4.42c-0.35,0.23-0.71,0.44-1.09,0.62
	c-2.03,0.92-3.79,0.4-5.03-1.45c-0.35-0.52-0.79-0.98-1.11-1.38c0.07-1.08,0.1-2.17,0.21-3.25c0.35-3.36,1.27-6.58,2.59-9.68
	c2.78-6.52,7.45-11.34,13.46-14.93c1.57-0.94,3.26-1.44,5.13-1.13c1.09,0.18,1.93-0.37,2.72-1.05c0.76-0.66,1.52-1.32,2.33-1.92
	c0.39-0.29,0.84-0.81,1.4-0.32c0.53,0.46,0.18,0.98-0.05,1.45c-0.76,1.52-1.58,3.02-2.29,4.57c-0.46,1.01-0.77,2.08-1.14,3.13
	c-0.07,0.18-0.08,0.41-0.2,0.54c-0.19,0.19-0.45,0.31-0.68,0.47c-0.07-0.24-0.22-0.49-0.21-0.73c0.03-0.47,0.07-0.98,0.26-1.39
	c0.6-1.3,0.29-2.44-0.48-3.68c-0.3,0.26-0.62,0.48-0.86,0.75c-2.53,2.91-5.05,5.82-7.56,8.74c-0.89,1.04-1.72,2.13-2.61,3.17
	c-0.21,0.25-0.56,0.38-0.84,0.57c0.26-0.45,0.45-0.96,0.78-1.36c3.21-3.86,6.44-7.71,9.66-11.56c0.15-0.18,0.3-0.36,0.5-0.59
	c-0.88-0.47-1.73-0.46-2.51-0.14c-1.57,0.65-3.22,1.21-4.62,2.13c-7.92,5.21-12.26,12.7-13.64,21.98c-0.1,0.69-0.02,1.4-0.03,2.34
	c0.28-0.34,0.39-0.46,0.49-0.59c2.46-3.39,4.89-6.79,7.39-10.16C31.88,71.15,32.65,70.52,33.32,69.83z M62.91,53.65
	c-3.12,3.65-4.59,7.98-6.26,12.23c2.34,0.85,4.33,0.09,5.09-2.08c0.77-2.21,1.35-4.49,1.92-6.76
	C63.94,55.89,63.63,54.78,62.91,53.65z M34.05,80.44c0.11-0.02,0.21-0.04,0.32-0.06c1.26-1.58,2.26-3.32,2.9-5.23
	c0.29-0.87,0.34-1.85,0.3-2.78c-0.02-0.48-0.39-1.23-0.75-1.33c-0.49-0.13-1.16,0.16-1.68,0.42c-0.31,0.16-0.53,0.57-0.7,0.91
	c-1.04,2.06-1.36,4.25-1.02,6.51C33.5,79.42,33.83,79.92,34.05,80.44z M54.27,73.93c0.08,0.03,0.16,0.06,0.25,0.09
	c2.12-2.13,3.93-4.5,5.54-7.23c-1.19,0.08-2.19,0.11-3.17,0.25c-0.26,0.04-0.6,0.33-0.7,0.59c-0.52,1.35-1.02,2.71-1.45,4.09
	C54.51,72.43,54.42,73.19,54.27,73.93z M44.56,72.81c1.25-1.64,1.18-4.72-0.15-6.23c-0.24-0.27-0.74-0.55-1.03-0.48
	c-0.3,0.07-0.66,0.55-0.71,0.89C42.31,69.23,43.07,71.13,44.56,72.81z M46.95,57.8c0.78-1.59,1.47-2.97,2.15-4.36
	c-0.1-0.07-0.21-0.14-0.31-0.22c-1.05,0.92-2.09,1.85-3,2.65C46.2,56.57,46.52,57.09,46.95,57.8z M48.38,72.73
	c0.09,0.11,0.18,0.22,0.27,0.33c0.44-0.38,0.88-0.75,1.31-1.13c-0.08-0.09-0.15-0.18-0.23-0.27C49.29,72.02,48.84,72.38,48.38,72.73
	z"/>
<path class="st0" d="M93.2,49.34c-3.11,3.85-6.21,7.71-9.35,11.6c0.69,0.36,1.11,0.16,1.38-0.4c0.28-0.58,0.49-1.19,0.8-1.75
	c0.12-0.21,0.44-0.3,0.68-0.45c0.06,0.27,0.2,0.55,0.15,0.79c-0.08,0.4-0.28,0.77-0.54,1.41c0.61-0.24,1-0.4,1.4-0.54
	c1.87-0.63,3.74-1.28,5.63-1.85c0.52-0.16,1.11-0.13,1.66-0.08c1.18,0.1,1.8,1,1.28,2.07c-0.47,0.96-1.05,1.96-1.83,2.66
	c-2.21,1.97-4.54,3.79-6.83,5.66c-0.51,0.42-1.35,0.61-1,1.58c0.38,1.06,1.38,1.9,2.27,1.58c2.04-0.73,4.13-1.59,4.73-3.96
	c0.94-3.71,2.83-6.93,4.95-10.01c1.44-2.09,3.01-4.11,4.75-5.95c1.15-1.21,2.62-2.16,4.08-3c1.42-0.82,2.52-0.03,2.56,1.63
	c0.04,1.82-0.6,3.41-1.7,4.81c-3.79,4.83-8.01,9.24-12.95,12.93c-0.47,0.35-1.18,0.63-0.83,1.43c0.33,0.75,1.02,1.01,1.75,0.79
	c1.39-0.42,2.74-0.95,4.1-1.44c0.27-0.1,0.55-0.18,0.86-0.17c-1.69,0.94-3.29,2.14-5.28,2.27c-0.59,0.04-1.22-0.41-1.8-0.69
	c-0.26-0.13-0.44-0.41-0.7-0.68c-0.54,0.43-1.05,0.86-1.58,1.26c-0.38,0.29-0.76,0.57-1.18,0.8c-2.14,1.18-2.99,1.05-4.56-0.8
	c-0.56-0.66-0.98-0.8-1.79-0.31c-2.32,1.42-4.79,2.49-7.48,3.1c-0.7,0.16-1.25,1.02-1.84,1.59c-0.23,0.23-0.32,0.63-0.58,0.81
	c-0.27,0.18-0.66,0.19-1,0.27c-0.04-0.35-0.22-0.78-0.08-1.03c0.6-1.1,1.24-2.19,1.95-3.22c2.05-3,4.16-5.95,6.19-8.97
	c0.87-1.29,1.63-2.66,2.36-4.04c2.07-3.87,5.12-6.88,8.38-9.71c0.18-0.15,0.47-0.17,0.71-0.25C93.04,49.14,93.12,49.24,93.2,49.34z
	 M94.34,67.6c0.09,0.07,0.19,0.15,0.28,0.22c0.23-0.12,0.47-0.22,0.68-0.37c0.54-0.4,1.07-0.81,1.59-1.23
	c4.08-3.26,7.7-6.97,10.77-11.2c1.06-1.46,1.75-3.07,1.52-4.93c-0.13-1.05-0.72-1.43-1.63-0.92c-0.99,0.56-1.98,1.19-2.78,1.98
	c-3.61,3.56-6.47,7.69-8.75,12.21C95.34,64.71,94.89,66.18,94.34,67.6z M81.36,67.84c0.31-0.06,0.53-0.09,0.74-0.13
	c1.17-0.21,2.31-0.15,3.24,0.67c0.43,0.38,0.75,0.36,1.16,0.03c2.49-2.02,5.02-3.99,7.45-6.08c0.69-0.59,1.19-1.47,1.62-2.29
	c0.36-0.69,0.07-1.15-0.72-1.22c-0.8-0.07-1.66-0.13-2.4,0.11c-2.04,0.66-4.04,1.44-6.02,2.26c-0.45,0.19-0.85,0.64-1.15,1.05
	C83.96,64.05,82.71,65.89,81.36,67.84z M84.87,69.35c-0.68-0.77-1.3-1.35-2.35-1.07c-2.4,0.65-3.8,2.46-5.36,4.43
	C80.12,72.23,82.46,70.85,84.87,69.35z M74.63,74.15c0.05,0.03,0.09,0.06,0.14,0.09c0.09-0.09,0.19-0.17,0.28-0.27
	c1.55-1.83,3.16-3.62,4.64-5.52c1.42-1.82,2.71-3.75,4.04-5.65c0.12-0.17,0.03-0.47,0.03-0.72c-0.29,0.01-0.58-0.02-0.86,0.04
	c-0.13,0.03-0.24,0.23-0.33,0.36c-2.53,3.65-5.06,7.3-7.59,10.96C74.83,73.66,74.74,73.92,74.63,74.15z"/>
<path class="st0" d="M131.6,67.34c0.62,0.17,1.28,0.58,1.84,0.47c3.22-0.61,6.4-1.38,9.26-3.07c0.66-0.39,1.21-0.98,1.8-1.48
	c1.13-0.95,2.24-1.91,3.39-2.84c0.23-0.18,0.58-0.37,0.83-0.33c0.34,0.05,0.74,0.27,0.93,0.54c0.12,0.16-0.01,0.68-0.2,0.85
	c-1.21,1.07-2.39,2.19-4.01,2.68c-0.48,0.14-0.98,0.48-1.28,0.88c-3.34,4.41-6.03,9.15-6.9,14.72c-0.14,0.9-0.05,1.83-0.06,2.75
	c-0.02,1.19-0.63,1.67-1.86,1.24c1.31-0.55,0.92-1.57,0.99-2.53c0.12-1.57,0.36-3.16,0.78-4.67c0.93-3.37,2.61-6.4,4.51-9.32
	c0.23-0.35,0.4-0.73,0.59-1.11c0.03-0.06,0.01-0.16,0.01-0.35c-1.2,0.42-2.34,0.83-3.49,1.21c-1.41,0.46-2.82,0.91-4.24,1.32
	c-1,0.29-1.94,0.17-2.92-0.29c-0.53-0.25-1.31-0.2-1.91-0.04c-1.16,0.3-2.24,0.88-3.41,1.13c-2.12,0.46-3.84-0.62-4.17-2.47
	c-0.07-0.38-0.03-0.78,0.01-1.16c0.06-0.55,0.16-1.09,0.29-1.87c-0.42,0.24-0.65,0.36-0.87,0.5c-1.53,0.97-3.03,2.01-4.62,2.89
	c-0.59,0.33-1.38,0.43-2.08,0.41c-1-0.04-1.5-0.67-1.14-1.59c0.75-1.91,1.53-3.84,2.56-5.61c1.93-3.31,4.31-6.28,7.51-8.46
	c0.95-0.65,2.08-1.09,3.18-1.42c1.3-0.38,2.12,0.5,1.87,1.84c-0.16,0.87-0.59,1.59-1.49,2.32c0.3-0.87,0.54-1.5,0.73-2.14
	c0.28-0.93-0.12-1.5-1.09-1.45c-0.45,0.02-0.94,0.18-1.34,0.4c-3,1.67-5.24,4.16-7.17,6.93c-1.13,1.62-2.11,3.36-3.06,5.1
	c-0.43,0.8-0.7,1.71-0.91,2.6c-0.21,0.91,0.35,1.36,1.22,1.01c0.75-0.3,1.46-0.69,2.15-1.11c1.34-0.81,2.69-1.6,3.96-2.52
	c0.63-0.46,1.12-1.13,1.57-1.78c0.65-0.94,1.17-1.97,1.82-2.91c0.32-0.47,0.79-0.84,1.19-1.25c0.09,0.03,0.18,0.06,0.27,0.09
	c-0.02,0.41,0.1,0.88-0.07,1.21c-0.41,0.78-0.84,1.59-1.46,2.19c-1.83,1.77-2.45,3.87-2.09,6.33c0.12,0.8,0.63,1.33,1.7,1.46
	c1.89,0.23,3.57-0.45,5.12-1.47c0.16-0.11,0.16-0.59,0.11-0.88c-0.38-2.09,0.06-3.9,1.75-5.27c1-0.82,2.06-0.78,2.89-0.01
	c0.83,0.76,1.09,2.05,0.35,2.97c-0.75,0.95-1.73,1.71-2.62,2.54c-0.22,0.2-0.5,0.33-0.75,0.49C131.61,67.1,131.61,67.22,131.6,67.34
	z M131.22,66.66c0.89-0.78,1.87-1.48,2.63-2.37c0.38-0.45,0.5-1.24,0.5-1.87c-0.01-0.94-1.22-1.54-1.99-1.03
	C130.53,62.59,130.16,65.37,131.22,66.66z M147.68,61.85c-0.05-0.08-0.1-0.15-0.15-0.23c-0.54,0.4-1.07,0.79-1.61,1.19
	c0.07,0.1,0.14,0.19,0.21,0.29C146.64,62.68,147.16,62.26,147.68,61.85z"/>
<path class="st0" d="M113.32,64.25c-0.97,0.58-1.92,1.18-2.91,1.72c-0.56,0.3-1.18,0.51-1.78,0.72c-1.67,0.6-1.8,0.55-2.7-1
	c-0.9,0.41-1.8,0.82-2.71,1.24c-0.28,0.13-0.55,0.28-0.84,0.38c-1.03,0.33-1.89-0.37-1.59-1.41c0.24-0.81,0.64-1.63,1.17-2.28
	c2.57-3.16,5.83-5.33,9.77-6.45c0.37-0.11,0.84,0.11,1.26,0.18c-1.63,0.68-3.22,1.2-4.67,1.99c-2.24,1.21-4.34,2.66-5.85,4.79
	c-0.39,0.54-0.73,1.13-1,1.74c-0.25,0.57,0.12,1.03,0.67,0.83c2.01-0.73,4.1-1.31,5.34-3.35c1.08-1.77,2.75-2.91,4.61-3.75
	c0.27-0.12,0.65,0,0.99,0.02c-0.1,0.34-0.09,0.78-0.31,0.99c-1.47,1.45-2.94,2.91-4.86,3.79c-0.28,0.13-0.58,0.42-0.68,0.7
	c-0.12,0.36-0.05,0.79-0.06,1.19c0.36,0.01,0.78,0.13,1.09,0c1.28-0.55,2.52-1.18,3.78-1.79c0.37-0.18,0.74-0.36,1.11-0.54
	C113.21,64.06,113.26,64.16,113.32,64.25z M108.55,63.04c0.09,0.11,0.18,0.21,0.27,0.32c1.01-0.89,2.02-1.78,3.03-2.66
	c-0.1-0.11-0.2-0.23-0.31-0.34C110.55,61.25,109.55,62.15,108.55,63.04z"/>
</svg>
