<?xml version="1.0" encoding="utf-8"?>
<!-- Generator: Adobe Illustrator 24.1.1, SVG Export Plug-In . SVG Version: 6.00 Build 0)  -->
<svg version="1.1" id="Livello_1" xmlns="http://www.w3.org/2000/svg" xmlns:xlink="http://www.w3.org/1999/xlink" x="0px" y="0px"
	 viewBox="0 0 49.7 46.52" style="enable-background:new 0 0 49.7 46.52;" xml:space="preserve">
<style type="text/css">
	.st0{fill:#FFFFF0;}
</style>
<g>
	<path class="st0" d="M12.42,24.65c0.11-0.47,0.25-0.92,0.54-1.31c0.91-1.24,2.68-1.54,3.89-0.61c1.09,0.83,2.14,1.72,3.2,2.59
		c1.16,0.94,2.32,1.89,3.48,2.84c0.06,0.05,0.11,0.09,0.18,0.14c0.54-0.44,1.08-0.88,1.61-1.31c1.7-1.38,3.41-2.75,5.09-4.15
		c1.52-1.26,3.67-0.7,4.42,0.99c0.51,1.14,0.2,2.48-0.81,3.3c-2.83,2.32-5.67,4.63-8.51,6.93c-1.12,0.9-2.51,0.9-3.64-0.01
		c-2.81-2.27-5.61-4.56-8.41-6.85c-0.56-0.46-0.92-1.05-1.03-1.77c-0.01-0.04-0.02-0.07-0.04-0.1
		C12.42,25.1,12.42,24.88,12.42,24.65z"/>
</g>
</svg>
