<?xml version="1.0" encoding="utf-8"?>
<!-- Generator: Adobe Illustrator 24.1.1, SVG Export Plug-In . SVG Version: 6.00 Build 0)  -->
<svg version="1.0" id="Livello_1" xmlns="http://www.w3.org/2000/svg" xmlns:xlink="http://www.w3.org/1999/xlink" x="0px" y="0px"
	 viewBox="0 0 175.4 82.7" style="enable-background:new 0 0 175.4 82.7;" xml:space="preserve">
<style type="text/css">
	.st0{fill:#FF0000;}
</style>
<g>
	<path class="st0" d="M91.6,54.9c0,0.2,0,0.3,0.1,0.7c0.4-0.5,0.8-0.9,1.1-1.4c1.9-2.9,3.8-5.9,5.7-8.8c0.1-0.1,0.1-0.2,0.2-0.3
		c1.1-1.2,1.7-2.3,0.7-4c-0.4-0.7-0.2-1.8,0.1-2.6c0.5-1.6,1.8-2.2,3.3-1.4c0.8,0.4,1.1,0.2,1.5-0.5c1.3-2.1,2.5-4.3,3.9-6.4
		c2.4-3.6,3.4-7.7,5.2-11.6c0.9-1.8,1.7-3.7,2.6-5.5c0.2-0.4,0.6-0.8,0.9-1.2c0.1,0,0.2,0.1,0.3,0.1c0,0.4,0.1,0.8,0,1.1
		c-0.8,2.1-1.5,4.3-2.6,6.3c-3.5,6.2-5.7,12.9-7.5,19.7c-0.1,0.3-0.1,0.5-0.1,0.9c1.6-0.4,2.3-2.4,4.2-2.1c0-1.9,0.8-3.5,2.3-4.7
		c0.8-0.7,1.9-1.1,2.7-1.7c0.4-0.3,0.9-0.7,1.1-1.2c1.5-3.3,2.9-6.7,4.6-9.9c1.7-3.2,3.6-6.3,5.6-9.4c0.7-1.1,1.7-2,2.7-2.9
		c0.3-0.3,0.8-0.5,1.2-0.7c0.7-0.3,1.1,0.1,1,0.7c0,0.6-0.2,1.3-0.4,1.8c-1.3,3.6-3.1,7-5.2,10.2c-1.8,2.7-3.8,5.4-5.8,8
		c-0.5,0.7-1,1.3-1.7,1.8c-2.8,2.1-2.5,5.3-3,8.4c0.5-0.2,0.9-0.3,1-0.5c1.1-1.2,2.2-2.5,3.3-3.8c0.2-0.2,0.5-0.4,0.7-0.6
		c0.1,0.2,0.4,0.5,0.4,0.7c0.2,1,0.9,0.8,1.4,0.5c2.2-0.9,4.4-2,6.1-3.8c0.4-0.4,0.7-0.9,1.5-0.3c-1.9,1.7-3.5,3.6-4.1,6.2
		c0.4-0.3,0.9-0.6,1.2-1.1c1.4-1.8,2.8-3.6,4.2-5.4c0.2-0.3,0.4-0.7,0.4-1.1c-0.1-4.5,1.1-8.7,3-12.8c1.3-2.9,2.8-5.6,4.3-8.4
		c0.4-0.8,1.1-1.4,1.8-2c0.3-0.2,0.8-0.4,1.1-0.3c0.2,0.1,0.4,0.7,0.4,1c-0.2,1.5-0.3,3.1-0.9,4.4c-2.2,5.1-4.5,10.1-6.8,15
		c-0.5,1.1-1.2,2-1.7,3.1c-0.2,0.4-0.2,1,0,1.3c0.1,0.2,0.9,0.2,1.2,0.1c1.9-0.7,3.4-1.9,4.7-3.4c0.4-0.5,0.8-1,1.3-1.4
		c0.2-0.2,0.6-0.2,0.9-0.4c0,0.3-0.1,0.6-0.1,0.9c0,0.1-0.1,0.2-0.1,0.1c0.2,0.5,0.5,0.8,0.5,1.1c0.1,0.9,0.7,1,1.2,0.6
		c1.4-1.1,2.8-2.3,4.2-3.5c0.7-0.6,1.3-1.4,2-2c0.3-0.3,0.9-0.4,1.3-0.6c0,0.5,0.2,1,0,1.5c-0.6,1.7-1.2,3.3-1.8,4.9
		c-0.8,2.4-1.5,4.8-2.4,7.3c0.4,0,0.6,0,0.8-0.1c5.1-1.9,10.3-3.6,15.3-5.6c1.3-0.5,2.4-1.6,3.3-2.6c1-1.2,0.6-2.5-0.8-3.4
		c-0.5-0.3-1.1-0.6-1.6-1c1.2,0.2,2.3,0.7,3.1,1.7c0.6,0.7,0.6,1.6,0.2,2.5c-0.9,1.7-2.4,2.6-4,3.3c-4,1.7-8,3.1-12.1,4.7
		c-0.8,0.3-1.5,0.7-2.3,0.9c-2,0.3-2.7,1.7-3,3.5c-0.6,2.9-1.2,5.8-1.9,8.6c-0.2,0.7-0.4,1.4-0.6,2.1c-0.1,0.2-0.4,0.4-0.6,0.6
		c-0.1-0.3-0.4-0.6-0.3-0.8c0.3-1.6,0.7-3.2,1.1-4.8c0.3-1.2,0-2.3-1.1-2.8c-1.7-0.8-3.5-1.5-5.4-2c-0.7-0.2-1.6,0.2-2.3,0.5
		c-5.5,2.1-11,4.3-16.5,6.5c-0.7,0.3-1.5,0.5-2.2,0.6c-0.4,0.1-0.8-0.2-1.2-0.3c0.2-0.4,0.3-0.9,0.7-1.1c1.7-1.2,3.5-2.4,5.3-3.5
		c2.7-1.6,5.5-2.9,8.6-3.3c0.9-0.1,1.7-0.2,2.6-0.1c-2.8,0.9-5.8,1.4-8.5,2.6c-2.7,1.2-5.1,3-7.7,4.5c0.1,0.2,0.2,0.3,0.2,0.5
		c6.2-1.9,12-5,18.2-7.2c-0.6-0.1-1.3-0.1-1.9-0.2c0-0.1,0-0.2,0-0.3c0.4-0.1,0.9-0.3,1.2-0.2c2,0.5,3.8-0.4,5.6-1
		c1.6-0.5,3.3-1.1,4.9-1.6c1.1-0.3,1.8-0.9,2.1-2c1.1-3.8,2.3-7.5,3.5-11.3c-1.3,1.3-2.6,2.6-3.9,3.9c-0.6,0.6-1.3,1.1-2.1,1.4
		c-0.8,0.3-1.6,0.2-2.8,0.4c-0.5,0.3-1.3,0.8-2.1,1.2c-0.2,0.1-0.5-0.3-0.9-0.5c-1.6,0.5-3,2.8-5.3,1.2c-1,1.3-2,2.7-3.1,4
		c-0.8,0.9-1.6,1.7-2.5,2.4c-0.3,0.2-0.8,0.2-1.1,0.3c0-0.4-0.2-0.8-0.1-1.1c0.3-0.9,0.7-1.8,1.1-2.9c-2.1,0.6-3.7,2.9-6.2,1.5
		c-0.7,0.8-1.4,1.6-2.1,2.4c-0.4,0.4-0.8,0.8-1.3,1.1c-0.3,0.2-0.8,0.3-1.2,0.2c-0.2-0.1-0.5-0.6-0.4-1c0.1-1.5,0.3-2.9,0.5-4.4
		c0-0.4,0.1-0.7,0.2-1.1c-2.1,0.2-3.8,2.5-4,4.2c-0.3,1.9-0.5,3.8-0.8,5.7c-0.1,0.7-0.6,1.3-1,1.9c-0.2,0.2-0.8,0.4-1.1,0.2
		c-0.3-0.1-0.5-0.7-0.5-1c0.1-0.9,0.3-1.9,0.5-2.8c0.1-0.5,0.2-1,0.2-1.5c-1.4,1-3.3,1.5-3.6,3.7c-0.2,1.2-0.6,2.4-1,3.5
		c-0.1,0.3-0.5,0.5-0.8,0.7c-0.1-0.4-0.4-0.7-0.4-1.1c0.1-1,0.2-2,0.4-3c-1.3,0-2.3,0-3.4,0.1c-0.3,0-0.5,0.4-0.7,0.7
		c-2,3.1-4,6.2-6,9.3c-0.5,0.9-1.1,1.7-1.7,2.5c-0.3,0.5-0.8,0.9-1.2,1.3C90.6,56.5,90.8,55.7,91.6,54.9L91.6,54.9z M118.1,29.8
		c4.9-3.6,13.9-19.2,13-21.4C128.4,8.7,119.9,23.5,118.1,29.8z M142,7c-0.1-0.1-0.3-0.1-0.4-0.2c-0.8,1.1-1.8,2.1-2.4,3.3
		c-0.8,1.4-1.4,3-2.2,4.5c-1.9,3.5-3,7.2-3.7,11c-0.2,0.9-0.2,1.8-0.3,2.6c0.1,0.1,0.3,0.1,0.4,0.2c0.1-0.3,0.2-0.7,0.4-1
		c1.6-3.2,3.4-6.4,4.9-9.7c1.4-3.1,2.9-6.2,3.3-9.6C142,7.8,142,7.4,142,7z M143.8,43.3c0.5-2,1-3.8,1.5-5.9c-2.6,0.9-5,1.8-7.5,2.6
		C140.1,40.7,142.2,41.4,143.8,43.3z M105.3,41.6c1-3.5,2-6.8,2.9-10c-1.5,2-2.8,4.1-4.1,6.2c-0.1,0.2-0.1,0.5,0,0.7
		C104.4,39.3,104.8,40.3,105.3,41.6z M100.5,42.1c0.7-1,1.3-1.9,1.9-2.7c0.7-1,0.5-1.5-0.7-1.7c-0.8-0.2-1.3,0.2-1.6,0.9
		C99.7,39.7,99.9,40.8,100.5,42.1z M103.5,39.1c-0.8,1.1-1.6,2.2-2.4,3.3c1.1,0.4,2.2,0.3,2.7-0.5C104.4,41.1,104,40,103.5,39.1z
		 M109.6,43.5c0.2,0,0.3,0.1,0.5,0.1c0.3-1.3,0.6-2.7,0.9-4c-0.1,0-0.2,0-0.3-0.1C110.4,40.8,110,42.2,109.6,43.5z M141,27.7
		c-0.1-0.1-0.2-0.1-0.3-0.2c-0.6,0.7-1.1,1.4-1.7,2.1c0.1,0.1,0.3,0.2,0.4,0.3C139.9,29.1,140.4,28.4,141,27.7z"/>
	<path class="st0" d="M46,64c0.8-1.1,1.7-2.1,2.5-3.2c0.5-0.8,0.8-1.7,1.2-2.6c0.2-0.4,0.4-0.7,0.7-1.1c0.1,0.4,0.2,0.8,0.2,1.2
		c0,0.9-0.1,1.9-0.1,2.8c0.1,0.1,0.2,0.2,0.4,0.2c0.5-0.4,1-0.7,1.4-1.2c1.6-1.5,2-3.5,2.3-5.7c0.9-6.1,2.3-12.1,4.5-17.8
		c1-2.7,2.2-5.3,3.3-7.9c0.2-0.5,0.5-0.9,0.9-1.3c0.2-0.2,0.6-0.3,1-0.4c0.1,0.3,0.4,0.6,0.4,0.9c-0.3,2.2-0.4,4.3-1,6.4
		c-1,3.7-2.1,7.3-3.4,10.8c-1.4,3.8-3.1,7.6-4.5,11.4C55.2,57.8,55,59,55,60.1c0,1,0.5,1.2,1.4,0.8c2-0.9,3.3-2.6,4.7-4.1
		c0.5-0.5,0.8-1.2,1.4-1.7c1.7-1.6,1.8-3.8,2.4-5.9c0.8-3,1.6-6,2.6-8.9c1.8-4.9,4.3-9.4,7-13.9c0.8-1.4,1.9-2.7,3-3.9
		c0.2-0.3,0.7-0.3,1.1-0.4c0.1,0.4,0.4,0.8,0.4,1.1c-0.5,2.2-1,4.4-1.8,6.5c-2.6,6.9-6.2,13.3-9.9,19.6c-0.5,0.8-1,1.5-1.4,2.3
		c-0.1,0.3,0,0.7-0.1,1.1c0.4,0,0.7,0.1,1.1,0c0.9-0.3,1.7-1.2,2.6-0.5c0.9,0.7,0.3,1.7,0.3,2.6c0,0.6,0.1,1.3,0.1,1.9
		c0.6-0.3,1.3-0.5,1.8-0.9c1.9-1.8,3.8-3.7,5.6-5.7c0.3-0.3,0.5-1,0.4-1.5c0-1.7,0.7-3.1,1.8-4.4c0.6-0.7,1.4-1.4,2.2-2
		c0.2-0.2,0.8-0.2,1,0c0.2,0.2,0.3,0.8,0.1,1c-0.9,1.6-1.9,3.2-2.9,4.8c-0.1,0.2-0.4,0.4-0.5,0.6c-0.1,0.3-0.2,0.6-0.3,0.9
		c0.3,0,0.6,0.1,0.9,0.1c0.2,0,0.5-0.1,0.7,0c0.2,0.1,0.4,0.2,0.5,0.4c0,0.1-0.2,0.3-0.3,0.5c-0.1,0.1-0.2,0.2-0.4,0.2
		c-1.1,0-2,0.5-2.4,1.4c-0.5,1.2-1,2.5-1.1,3.8c-0.1,1,0.2,2,0.5,2.9c0.7,1.9,2,2.4,3.9,1.8c0.3-0.1,0.6-0.2,1.1-0.3
		c-0.7,1.1-2.2,1.6-3.2,1.3c-2.1-0.6-3-2.5-3.2-4.7c-0.2-2.2,0.4-4.2,1.9-5.8c0.1-0.2,0.2-0.4,0.3-0.6c-0.1-0.1-0.1-0.1-0.2-0.2
		c-0.3,0.2-0.5,0.5-0.8,0.7c-1.9,1.9-3.8,3.9-5.8,5.8c-0.1,0.1-0.2,0.2-0.3,0.2c-0.7,0.2-1.6,0.6-2,0.4c-0.4-0.3-0.5-1.3-0.6-2
		c-0.1-0.4,0.1-0.9,0.2-1.4c0-0.4-0.1-0.7-0.2-1.1c-0.3,0.1-0.7,0.1-1,0.2c-1,0.5-1.9,0.9-2.9,0.1c-1.7,2.1-3.3,4.1-5.1,6
		c-0.8,0.9-1.9,1.7-3,2.3c-1.5,1-2.4,0.5-2.8-1.3c0-0.2-0.1-0.4-0.1-0.7c-0.8,0.7-1.4,1.5-2.1,2c-1.5,1-1.6,0.9-2.3-0.9
		c-0.6,0.8-1.2,1.5-1.7,2.2c-0.3,0.4-0.6,0.7-0.9,1c-1,1.1-1.4,1.1-2.3,0c-0.7,0.8-1.3,1.6-2,2.3c-2,2-4.3,2.8-7.2,2.2
		c-2.9-0.6-5.4-1.9-7.3-4c-0.9-1-0.8-2,0.4-2.8c1.3-0.8,2.8-1.4,4.3-1.9c2.2-0.8,4.5-1.2,6.9-1.3c0,0.1,0.1,0.2,0.1,0.3
		c-0.3,0.1-0.6,0.2-0.9,0.3c-2.5,0.7-5.1,1.3-7.6,2c-0.7,0.2-1.3,0.5-1.9,0.9c-1.1,0.7-1.3,1.7-0.3,2.5c1.3,1,2.8,1.9,4.2,2.7
		c0.7,0.4,1.6,0.5,2.4,0.7c4.2,1,7.9-2.6,8.6-6c0.3-1.6,0-3.3-0.8-4.7c-1.8-3.4-4.5-5.7-8.3-6.6c-1.4-0.3-2.6-0.1-3.8,0.7
		c-0.3,0.2-0.7,0.2-1.1,0.2c0-0.1-0.1-0.2-0.1-0.4c0.4-0.3,0.7-0.7,1.1-1c3-2.3,5.6-5,8-7.9c1.3-1.6,2.6-3.2,3.7-4.9
		c1-1.5,1.6-3.1,1.7-4.9c0-1.9-0.9-2.8-2.7-2c-1.7,0.7-3.2,1.7-4.7,2.7c-0.9,0.6-1.7,1.5-2.6,2.2c-1,0.7-1.4,1.7-1.7,2.8
		c-1,3.9-1.9,7.9-3,11.8c-1.6,5.6-3.2,11.1-5,16.6c-1.1,3.3-2.4,6.5-3.6,9.7c-0.1,0.3-0.5,0.5-0.8,0.7c-0.1-0.4-0.3-1-0.1-1.2
		c2.8-4,3.7-8.6,5.2-13.1c1.5-4.8,3-9.6,4.3-14.4c0.9-3.2,1.6-6.5,2.4-9.7c0-0.2,0-0.4,0-0.9c-0.7,0.7-1.4,1.2-1.9,1.8
		c-3.2,3.9-6.5,7.7-9.6,11.7c-3.4,4.3-6.7,8.7-10,13.1c-0.2,0.2-0.6,0.3-0.9,0.5c0-0.4-0.3-0.8-0.1-1.1c3.3-6.6,6.9-13.1,11.8-18.7
		c2.6-2.9,5.4-5.7,8.2-8.5c0.3-0.3,0.7-0.6,1.1-0.8c1.1-0.7,1.4-0.7,2.6-0.1c1.1-1,2.2-2,3.4-2.9c1.4-1,2.9-2.1,4.5-2.8
		c2.5-1.2,4.4,0.2,4.2,2.9c-0.1,2.2-1.1,4.1-2.4,5.8c-1.5,1.9-3,3.7-4.6,5.5c-1.6,1.8-3.3,3.5-4.9,5.2c0,0,0.1,0.1,0.2,0.1
		c5.5,0.5,8.9,3.6,10.9,8.5C44.9,59,44.8,60,45,61c0.2,1,0.3,2,0.5,2.9C45.7,64,45.8,64,46,64z M78.1,23.4c-0.2-0.1-0.3-0.1-0.5-0.2
		c-6.1,8.2-10.3,17.2-12.2,27.3c0.2-0.1,0.4-0.3,0.5-0.5c2.6-4.7,5.3-9.3,7.7-14c1.5-3,2.6-6.3,3.8-9.4
		C77.8,25.6,77.9,24.5,78.1,23.4z M11.3,62c0.1,0,0.1,0.1,0.2,0.1c0.7-0.8,1.4-1.6,2.1-2.4c2.7-3.4,5.2-7,8-10.3
		c3.2-3.9,6.6-7.6,9.9-11.5c0.4-0.4,0.5-1,0.7-1.6c-0.6,0.2-1.3,0.2-1.7,0.6c-2.9,2.7-5.9,5.3-8.4,8.3c-2.5,3-4.7,6.4-6.8,9.7
		C13.8,57.2,12.6,59.6,11.3,62z M63.9,28.4c-0.2,0-0.4-0.1-0.6-0.1c-4.3,8.4-6.5,17.5-8,26.8c0.6-0.9,1.1-1.9,1.5-2.9
		c1.3-3.4,2.6-6.9,3.8-10.4c1.1-3.4,2-6.8,2.9-10.3C63.8,30.6,63.8,29.5,63.9,28.4z M78.6,48.4c1.5-1.8,3-3.4,3.6-5.6
		C80.3,43.5,78.5,46.3,78.6,48.4z"/>
	<path class="st0" d="M91.6,54.9c0.3-1.2,0.5-2.5,0.9-3.7c1.1-3.4,2.2-6.7,3.4-10.1c0.9-2.3,1.9-4.6,2.9-6.9c1.4-3.1,2.7-6.3,4-9.6
		c-0.9,1.2-1.8,2.4-2.8,3.5c-2.5,2.8-4.9,5.7-7.4,8.4c-0.5,0.6-1.3,1-2,1.4c-0.8,0.4-1.4,0.1-1.2-0.8c0.4-2.2,1.3-4.2,2.9-5.8
		c0.2-0.2,0.5-0.3,0.7-0.2c0.2,0.1,0.3,0.5,0.2,0.7c-0.1,0.7-0.3,1.3-0.5,1.9c-0.1,0-0.2,0-0.3,0c-0.1-0.3-0.1-0.6-0.2-0.9
		c-0.1,0-0.2-0.1-0.4-0.1c-0.6,1.4-1.2,2.8-1.8,4.1c0.1,0.1,0.3,0.2,0.4,0.3c1-0.8,2-1.6,2.9-2.5c3.2-3.7,6.4-7.5,9.6-11.3
		c0.3-0.4,0.8-0.6,1.2-0.9c0,0.5,0.1,1.1-0.1,1.6c-2.3,5-4.7,9.9-6.8,14.9c-2,4.8-3.5,9.8-5.3,14.6C92,54.2,91.8,54.5,91.6,54.9
		C91.6,54.9,91.6,54.9,91.6,54.9z"/>
</g>
</svg>
