<?xml version="1.0" encoding="utf-8"?>
<!-- Generator: Adobe Illustrator 24.1.1, SVG Export Plug-In . SVG Version: 6.00 Build 0)  -->
<svg version="1.0" id="Livello_1" xmlns="http://www.w3.org/2000/svg" xmlns:xlink="http://www.w3.org/1999/xlink" x="0px" y="0px"
	 viewBox="0 0 114.1 82.7" style="enable-background:new 0 0 114.1 82.7;" xml:space="preserve">
<style type="text/css">
	.st0{fill:#F5F5DC;}
</style>
<g>
	<path class="st0" d="M61.3,43.2c1-1,1.9-2,2.9-3c0.2,0.2,0.4,0.3,0.6,0.5c-0.3,0.5-0.6,1.1-1,1.6c-4.7,6-9.4,12-14,18.1
		c-1.4,1.9-2.4,4.2-3.7,6.2c-0.6,1-1.3,1.8-2.3,2.5c0.9-4.5,3.9-7.8,6-11.7c2.1-3.9,4.8-7.6,7.3-11.4c-2,0-3.6-0.7-3.8-3
		c-1.5-0.5-2.5-0.4-3.5,1c-0.4,0.6-2.1,1.2-2.3,1c-0.7-0.7-1-1.8-1.4-2.7c-1.2,0.1-2.6,0.2-4.1,0.4c-0.4,0-0.7,0.4-1,0.6
		c-0.9,0.5-1.9,1-2.8,1.4c-0.4-0.9-0.8-1.9-1.2-2.9c-0.3,0.4-0.7,1.1-1.3,1.5c-0.5,0.4-1.2,0.8-1.8,0.8c-0.3,0-0.7-1-0.8-1.6
		c-0.1-0.7,0-1.4,0-2.3c-1,1.1-1.8,2.3-2.9,3c-0.7,0.5-2,1-2.6,0.6c-0.6-0.3-1-1.6-1.1-2.5c-0.1-0.8,0.3-1.6,0.4-2.2
		c-1.6,1.1-3.2,2.4-5,3.4c-1.5,0.8-2.3,0-1.9-1.6c1.4,1.3,2.5,0.3,3.4-0.5c2.5-2.4,4.8-4.9,7.2-7.3c0.4-0.4,0.9-0.8,1.3-1.3
		c0.2,0.1,0.3,0.2,0.5,0.3c-0.3,0.5-0.5,1-0.8,1.5c-1.1,1.8-2.4,3.5-3.4,5.4c-0.7,1.2-1.5,3-0.2,3.9c1.3,0.9,2.1-0.9,2.8-1.8
		c1.5-1.9,2.9-4,4.4-6c0.3-0.4,0.6-0.8,1.2-1c-0.5,3-2.6,5.6-2.2,8.7c0.2,0.1,0.3,0.2,0.5,0.3c2.3-3.2,4.5-6.3,6.8-9.5
		c0.2,0.1,0.4,0.3,0.6,0.4c-1.8,2.9-3.8,5.8-3.8,9.8c4.3-2.6,4.3-7.7,7.4-10.8c0.2,3.2-2.2,5.5-3.1,8.6c3.5,0.1,4.5-3.1,7-5.1
		c-0.2,2.9-3,4.6-1.9,7.3c3.8-1.8,3-6.5,5.8-9.4c1.1,2.8-1.7,4.5-1.3,7c0.7-0.4,1.2-0.7,1.9-1.2c0.1,0.7,0.1,1.2,0.2,1.6
		c0.3,0.9,0.4,2.1,1,2.5c1.2,0.7,2.5,0.5,3.4-0.8C59.6,42.8,60.7,42.7,61.3,43.2c-1.8,2-3.6,4-5.4,6c0.2,0.1,0.3,0.3,0.5,0.4
		C58.1,47.5,59.7,45.4,61.3,43.2z"/>
	<path class="st0" d="M9.1,49.6c2.3-5,4.4-10.2,7.4-14.9c-0.6,0.5-1.2,1.1-1.8,1.6c-0.2-0.2-0.3-0.3-0.5-0.5
		c0.9-0.9,1.9-1.8,2.8-2.7c0.7-0.7,1.6-1.3,2.1-2.1c5.4-8,12.3-14.3,20.3-19.5c2.3-1.5,4.8-2.7,7.2-4.1c0.5-0.2,1-0.4,1.5-0.5
		c0.5,0,1,0.2,1.5,0.3c-0.2,0.5-0.2,1.1-0.5,1.4c-2.3,2.3-4.5,4.5-6.9,6.6c-5.6,5.2-11.2,10.3-17,15.7c0.7,0.1,1.1,0.1,1.4,0.1
		c1.3,0.2,1.6,0.9,0.9,2c-2.7,3.8-5.9,6.9-10.4,8.5c-0.8,0.3-1.6,0.8-2.1,1.5c-1.6,1.9-3,3.9-4.6,5.9c-0.3,0.3-0.6,0.6-0.9,0.9
		C9.5,49.8,9.3,49.7,9.1,49.6z M28.5,26.4c0,0,0.1,0.1,0.1,0.1c6.5-6,13-12,19.5-18c-0.2-0.2-0.3-0.4-0.5-0.5
		c-11.5,5.4-20.9,13.3-28,23.9c1.5,1.4,2.5,1,3.6-0.4c1.6-2.2,3.4-4.4,5.1-6.6c0.3-0.4,0.5-1,0.5-1.5c0.2-1.2,2.3-2.6,3.8-2.2
		C31.2,23.1,29.8,24.7,28.5,26.4z M26.6,32.3c-0.8,0.2-1.3,0.2-1.6,0.4c-1.2,0.4-2.3,0.9-2.4,2.4c-2.8,0.7-3.4,3.5-5.1,5.2
		C21.1,38.5,24.4,36.3,26.6,32.3z M20.9,34.2c-0.1-0.3-0.1-0.5-0.2-0.8c-0.8,0.1-1.9-0.2-2.2,0.2c-1.5,2.2-2.7,4.5-4.1,6.8
		c0.3,0.2,0.5,0.3,0.8,0.5C17.1,38.8,19,36.5,20.9,34.2z"/>
	<path class="st0" d="M90.9,69.1c-0.3-0.6-0.7-1.2-0.7-1.8c-0.3-3.1-0.4-6.1-0.6-9.2c-0.2-2.8-0.5-5.5-0.9-8.3
		c-0.1-0.7-0.5-1.4-0.9-2.6c-0.6,1-1.1,1.6-1.3,2.2c-1.4,3.5-2,7.2-1.5,10.9c0.1,0.5-0.1,1-0.5,1.6c-1.3-3.3-0.8-6.8-1.5-10.3
		c-0.8,1.2-1.4,2.4-2.2,3.4c-0.5,0.6-1.6,1.3-2.2,1.1c-0.7-0.2-1.5-1.1-1.8-1.9c-0.9-2.3-0.3-5.6,1.5-7.3c-0.1,0.8-0.2,1.3-0.2,1.7
		c-0.1,1.7-0.4,3.5-0.3,5.2c0.1,1.5,1.1,1.7,2,0.6c1.7-2.4,3.4-4.7,3.2-8c-0.3-6.3,0-12.5,1.7-18.7c0.3-1,0.7-2,1.3-2.9
		c0.2-0.4,0.9-0.9,1.2-0.8c0.4,0.2,1,0.8,1,1.3c0.2,1.8,0.3,3.5,0.3,5.3c-0.1,5.9-1.5,11.6-3.7,17c-0.6,1.4-0.5,3-0.8,4.5
		c0.2,0,0.4,0.1,0.5,0.1c0.6-1.5,1-3.1,1.7-4.5c0.3-0.7,1.1-1.1,1.6-1.7c0.5,0.6,1.5,1.2,1.5,1.9c0.6,4.5,1.1,9,1.5,13.5
		c0.2,2.4,0.3,4.9,0.5,7.3C91.2,69,91,69,90.9,69.1z M87.3,25c-2.5,2.9-4.4,16.6-3.1,21C86.9,39.4,88.1,32.6,87.3,25z"/>
	<path class="st0" d="M65.4,31.2c1.2-4.8,2.4-9.6,6.7-12.7c2.1-1.5,4.2-0.4,4.2,2.3c0,3.3-0.3,6.8-1,10c-1.3,5.6-3,11.2-4.5,16.8
		c-1.2,4.4-1.3,8.9-0.3,13.3c0.3,1.4,1.1,2.7,1.4,4.4c-0.5-0.5-1.2-0.8-1.4-1.4c-1.5-3-1.9-6.3-1.7-9.7c0.2-6,2.3-11.7,4-17.4
		c1.5-4.9,2.8-9.9,2.6-15.1c0-0.9-0.4-2.3-1-2.6c-0.6-0.3-1.9,0.3-2.6,0.8c-2.5,1.7-3.5,4.4-4.4,7.1c-0.5,1.4-1,2.9-1.4,4.3
		C65.8,31.4,65.6,31.3,65.4,31.2z"/>
	<path class="st0" d="M68.3,34.8c0.3-1.6,0.6-3.2,1.1-4.8c0.2-0.8,0.6-1.5,1.3-2.1c-2.2,8.2-1.7,16.9-5,25c-1.7-1.3-2.3-5.5-1.2-8.6
		c0.2,2.1,0.4,4.2,0.6,6.3c1.7-3.8,2.3-7.8,2.7-11.8C67.9,37.4,68.1,36.1,68.3,34.8z"/>
	<path class="st0" d="M75.5,43.8c-0.6,3.6-3,6.8-2.4,11c-0.6,0.4-1.2-0.1-1.3-1.1c-0.1-0.8,0.1-1.6,0.3-2.4c0.5-2,1.1-4,1.8-5.9
		c0.2-0.7,0.7-1.2,1.1-1.8C75.2,43.7,75.4,43.7,75.5,43.8z"/>
	<path class="st0" d="M78.6,35.1c1.1,0,2,0.8,1.8,2c-0.1,1.2-0.8,2.4-1.3,3.6c-0.5-0.3-1.4-0.5-1.5-0.9c-0.1-0.7,0.2-1.6,0.4-2.4
		C78.3,36.8,78.4,36.1,78.6,35.1z"/>
	<path class="st0" d="M68.3,34.8c-0.2,1.3-0.4,2.6-0.6,4c-0.2,0-0.6-0.1-0.6-0.1c0.2-2,0.3-3.9,0.5-5.9c0.2,0,0.4,0,0.6,0.1
		C68.3,33.5,68.3,34.1,68.3,34.8z"/>
	<path class="st0" d="M61.3,43.2c-1.6,2.1-3.3,4.3-4.9,6.4c-0.2-0.1-0.3-0.3-0.5-0.4C57.8,47.3,59.6,45.3,61.3,43.2
		C61.3,43.3,61.3,43.2,61.3,43.2z"/>
</g>
</svg>
