<?xml version="1.0" encoding="utf-8"?>
<!-- Generator: Adobe Illustrator 24.1.1, SVG Export Plug-In . SVG Version: 6.00 Build 0)  -->
<svg version="1.1" id="Livello_1" xmlns="http://www.w3.org/2000/svg" xmlns:xlink="http://www.w3.org/1999/xlink" x="0px" y="0px"
	 viewBox="0 0 165.92 118.44" style="enable-background:new 0 0 165.92 118.44;" xml:space="preserve">
<style type="text/css">
	.st0{fill:#330066;}
</style>
<g>
	<path class="st0" d="M106.71,67.27c-0.86,0.09-1.49,0.15-1.61,0.16c-0.78,1.51-1.16,2.83-2,3.69c-0.62,0.63-1.96,1.05-2.79,0.83
		c-1.14-0.3-2.09-0.45-3.26-0.14c-1.51,0.39-2.29-0.45-2.2-2.04c0.11-1.93,1.41-3.42,3.31-3.56c0.57-0.04,1.17,0.39,1.91,0.66
		c-1.41,0.49-2.51,0.71-3.43,1.26c-0.52,0.31-0.72,1.15-1.07,1.75c0.14,0.21,0.28,0.42,0.42,0.64c1.25-0.49,2.5-0.98,3.88-1.52
		c0.1,0.35,0.24,0.89,0.39,1.42c1.95,0.01,2.8-0.82,2.93-2.75c0.13-1.9,1.64-1.68,2.87-1.7c1.27-0.02,1.88,0.68,1.73,2.01
		c-0.24,2.2-0.04,2.42,2.19,2.64c4.26,0.41,8.49-2.84,9.23-7.05c0.23-1.29,0.58-2.55,1.17-3.79c0.95,2.34-0.42,4.45-0.67,6.29
		c1.47-0.24,2.89-0.63,4.31-0.63c0.58,0,1.44,0.72,1.65,1.3c0.16,0.43-0.45,1.22-0.83,1.77c-0.29,0.41-0.77,0.69-1.33,1.17
		c1.71,1.5,3.57,1.79,5.43,1.58c2.29-0.26,4.66-0.55,6.79-1.36c3.3-1.25,6.51-0.34,9.73-0.11c2.25,0.16,4.45,1,6.59,1.92
		c-3.14-0.47-6.29-0.94-9.43-1.41c-2.85-0.42-5.53,0.12-8.27,0.98c-2.41,0.76-5,1.25-7.52,1.32c-3.29,0.1-5.17-1.77-3.2-4.83
		c0.15-0.23,0.15-0.55,0.25-0.91c-1.34-0.44-2.44-0.21-3.13,0.89c-0.6,0.97-1.18,2.04-1.38,3.14c-0.19,1.05,0.13,2.2-0.08,3.34
		c-1.42-1.59-0.88-3.55-1.03-5.41c-1.43,0.84-2.68,1.9-4.12,2.34c-1.64,0.51-3.47,0.75-5.18,0.6c-2.17-0.19-2.63-1.11-2.32-3.27
		C106.66,68.2,106.67,67.9,106.71,67.27z"/>
	<path class="st0" d="M22.3,59.2c1.89,0.16,2.54,1.11,1.94,2.93c-0.21,0.63-0.55,1.23-0.91,1.79c-0.34,0.55-0.78,1.05-1.34,1.8
		c3.97,1.15,7.6,0.9,11.15-0.47c1.15-0.45,1.75-0.5,2.94,0.38c1.06,0.78,3.1,0.45,4.67,0.26c1.32-0.16,2.45-1.16,3.74,0.4
		c0.72,0.87,4.45-0.86,5.18-2.22c0.17-0.32,0.21-0.81,0.46-0.98c0.44-0.28,1.01-0.37,1.53-0.53c0.14,0.52,0.51,1.13,0.36,1.53
		c-0.3,0.77-0.9,1.41-1.51,2.3c2.61,1.12,5.11,0.79,7.59,0.12c1.01-0.27,1.47,0.03,2.39,0.55c1.37,0.78,3.44,0.56,5.18,0.4
		c1.33-0.13,1.98,0,1.94,1.49c-1.34,0.13-2.59,0.31-3.84,0.36c-0.97,0.03-2.21,0.25-2.87-0.24c-2.01-1.47-4.06-0.5-6.1-0.61
		c-1.65-0.09-3.27-0.73-4.91-1.07c-0.48-0.1-1.04-0.18-1.5-0.05c-1.77,0.5-3.52,1.79-5.22-0.14c-0.06-0.07-0.23-0.1-0.34-0.08
		c-2.56,0.37-5.15,0.58-7.65,1.17c-2.13,0.51-2.36,0.58-3.13-1.67c-0.65,0.12-1.35,0.26-2.04,0.37c-0.79,0.12-1.59,0.33-2.36,0.28
		c-3.89-0.28-7.65-0.38-11.52,0.92c-3.03,1.02-4.55-0.79-4.01-3.77c0.22-0.09,0.44-0.18,0.66-0.27c0.12,0.74,0,1.66,0.4,2.2
		c1.11,1.52,5.49,1.33,6.66-0.22c0.19-0.26,0.16-0.79,0.07-1.15c-0.62-2.55,0.3-4.42,2.45-5.78L22.3,59.2z M21.27,65.39
		c0.87-1.41,1.64-2.57,2.29-3.8c0.13-0.25-0.08-0.84-0.32-1.09c-0.14-0.15-0.7-0.05-0.99,0.1C20.76,61.33,20.21,63.33,21.27,65.39z"
		/>
	<path class="st0" d="M22.34,59.18c-0.41-0.53-0.99-1.01-1.17-1.61c-0.19-0.6-0.03-1.33,0.07-2c0.53-3.48,0.54-3.48-2.94-3.25
		c-3.57,0.24-6.78,1.35-9.62,3.59c-3.36,2.65-4.22,7-1.74,10.53c1.4,1.99,3.12,3.75,4.68,5.62c1.15,1.38,2.1,2.98,3.45,4.12
		c1.82,1.53,3.91,2.75,5.92,4.04c2.24,1.44,4.52,2.8,6.78,4.2c-0.06,0.2-0.11,0.39-0.17,0.59c-0.53-0.09-1.19-0.01-1.58-0.3
		C20.14,80.41,13.3,77.27,8.75,71.3c-1.61-2.11-3.27-4.4-4.01-6.88c-1.54-5.1,1.01-9.32,6.44-10.95c3.59-1.08,7.32-1.84,11.03-2.2
		c1.14-0.11,2.75,1.35,3.6,2.49c0.83,1.13-0.51,3.65-1.96,4.51c-0.52,0.31-1.03,0.62-1.54,0.93C22.3,59.2,22.34,59.18,22.34,59.18z
		 M23.56,52.74c-0.22,0.11-0.43,0.23-0.65,0.34c-0.2,1.34-0.4,2.68-0.65,4.32c1.99-0.53,2.68-1.67,2.71-3.02
		C24.98,53.85,24.06,53.29,23.56,52.74z"/>
	<path class="st0" d="M86.27,62.3c2.86-0.07,5.73-0.07,8.59-0.24c1.2-0.07,2.42-0.38,3.57-0.75c0.64-0.21,1.16-0.77,1.73-1.17
		c-0.47-0.59-0.83-1.44-1.44-1.72c-1.94-0.88-3.92-1.81-5.99-2.23c-3.27-0.67-6.62-0.99-9.95-1.35c-0.81-0.09-1.71,0.19-2.5,0.48
		c-0.96,0.35-1.48,0.96-0.4,1.85c2.36,1.93,3.28,4.5,3.2,7.47c-0.06,2.16-0.14,4.31-0.21,6.47c-0.29,0.03-0.58,0.05-0.87,0.08
		c-0.17-0.86-0.39-1.72-0.49-2.59c-0.22-1.93-0.83-3.95-0.45-5.77c0.55-2.65-0.77-4.07-2.37-5.63c-0.85-0.83-0.76-1.84,0.38-2.4
		c0.8-0.39,1.71-0.73,2.59-0.77c5.82-0.3,11.22,1.52,16.59,3.41c0.06,0.02,0.11,0.05,0.16,0.09c1.04,0.76,2.72,1.06,2.47,2.81
		c-0.25,1.71-1.84,1.94-3.12,2.03c-3.81,0.26-7.64,0.33-11.46,0.47C86.29,62.66,86.28,62.48,86.27,62.3z"/>
	<path class="st0" d="M163.15,73.67c1.85,0.3,3.7,0.59,5.55,0.89c-0.02,0.14-0.04,0.29-0.06,0.43c-1.83-0.27-3.65-0.55-5.48-0.82
		C163.16,74,163.16,73.84,163.15,73.67z"/>
</g>
</svg>
