<?xml version="1.0" encoding="utf-8"?>
<!-- Generator: Adobe Illustrator 24.1.1, SVG Export Plug-In . SVG Version: 6.00 Build 0)  -->
<svg version="1.1" id="Livello_1" xmlns="http://www.w3.org/2000/svg" xmlns:xlink="http://www.w3.org/1999/xlink" x="0px" y="0px"
	 viewBox="0 0 165.92 89.22" style="enable-background:new 0 0 165.92 89.22;" xml:space="preserve">
<style type="text/css">
	.st0{fill:#330066;}
</style>
<path class="st0" d="M89.11,44.12c0.3-0.27,0.47-0.42,0.64-0.57c0.41,0.45,0.44,1.01,0.1,1.34c-1.85,0.82-2.22-2.93-3.29-3.91
	c-4.62-2.93-12.2,1.57-17.02,2.97c0.01,0.07,0.01,0.15,0.02,0.22c1.44,0.28,1.05,1,0.39,1.92c-0.1,0.19-0.25,0.43-0.2,0.6
	c0.28,2.67-2.02,4.9-0.73,7.61c0.69,1.36,2.68-2.73,3.19-3.37c0.83-1.01,0.72-4.1,1.79-4.43c0.44,0.12,0.39,0.52,0.3,0.87
	c-0.48,2.25-0.61,4.79,0.29,6.91c3.62-2.74,1.57-7.19,3.23-8.76c1.15,1.7-0.82,4.08,0.33,5.81c1.79,1.24,5.35-4.55,5.92-6.09
	c-0.06-0.05-0.12-0.1-0.18-0.15c-0.73,0.35-0.57,1.38-1.34,1.62c-0.47-0.73,0.48-1.63,0.82-2.28c0.62-0.73,2.21,0.22,1.45,1.07
	c-2.55,3.04-3.31,10.28,1.99,5.11c4.59-4.32,7.74-9.49,10.42-15.13c0.79-0.97-1.01-1.36-0.49-2.34c0.25-0.55,0.66-1.11,1.32-0.98
	c1.5,0.66,4.2-5.22,4.6-6.49c-1.72-0.29-2.41,1.53-3.1,2.75c-0.07-0.01-0.13-0.01-0.2-0.02c-0.24-0.88,0.58-1.7,0.95-2.46
	c0.72-1.54,2.73-0.47,3.48-1.67c2.86-4.47,4.86-9.85,8.17-13.86c-0.71,3.34-3.29,6.32-4.6,9.55c-0.42,1.56-2.4,4.02-1.67,5.43
	c3.83,2.89-0.73,8.01-3.97,9.19c-0.45,0.19-0.64,0.46-0.35,0.9c1.81,2.87,0.91,6.2,0.63,9.33c1.06,2.16,3.19-3.43,3.25-4.49
	c0.58-1.4,0-3.07,0.69-4.31c0.55,0.33,0.58,0.77,0.45,1.35c0.08,1.85,2.58-0.32,3.66-0.14c0.08,1.88-1.51,3.47-1.3,5.34
	c2.38-0.84,2.5-4.19,4.41-5.46c0.48,1.5-0.6,3.06-0.54,4.65c2.11-1.45,4.22-3.39,5.09-5.85c0.77,0.5,0.31,1.1,0.18,1.78
	c-1.31,7.24,3.9-2.43,5.72-3.7c3.26-2.86,0.37-12.03,4.3-13.43c4.61,1.29-4.23,12.77-2.94,17.9c0.06,0.03,0.12,0.06,0.17,0.09
	c1.22-1.62,1.65-3.72,1.88-5.64c0.9-0.36,2.97,1.28,3.25-0.21c0.02-0.44,0.14-0.83,0.55-1.05c0.25,0.33,0.32,0.71,0.35,1.12
	c0.81-0.12,3.04-2.17,1.19-2.12c-0.5,0.15-0.9,0.59-1.45,0.23c0.46-1.24,3.72-1.33,2.87,0.48c-0.35,1.62-3.05,1.62-2.76,3.21
	c0.15,1.19,0.58,2,1.71,0.96c1.54-0.29,5.11-7.72,5.55-5.62c-0.25,0.51-0.64,1.11-1.09,1.4c-0.19,1.31-1.73,1.77-1.69,3.19
	c0.91,2.66,5.48-4.68,7.02-4.77c-1.27,2.13-3.6,3.75-5.34,5.59c-0.89,0.84-2.02,0.52-2.46-0.82c-1.82,1.84-3.97,3.9-4.47-0.08
	c-0.51-0.81-1.35-0.33-2.03-0.48c-1.74,0.89-1.72,4.93-3.49,6.07c-0.91-1.73,0.32-4.03-0.24-5.92c-1.89,0.92-7.32,11.55-7.49,4.87
	c-1.91,0.56-2.74,3.58-4.73,3.87c-1.15-0.97,0.27-2.22,0.24-3.4c-0.07-0.03-0.15-0.05-0.22-0.08c-1.22,1.3-2.16,4.56-4.29,4.05
	c-0.67-1.58,1.1-3.41,1.17-5.07c-0.85-0.03-1.28,0.83-2.2,0.42c-0.57-0.18-0.72,0.34-0.79,0.79c-0.52,2.37-1.24,5.77-3.8,6.62
	c-0.51,0.11-0.77,0.33-1,0.79c-3.15,7.57-8.28-7.64-0.9-2.05c1.9,1.93,1.22-11.8-0.62-9.08c-2.59,4.14-6.73,7.37-7.54,12.39
	c-0.46,1.45-0.85,2.92-0.99,4.43c-0.01,0.04-0.38,0.04-0.45-0.04c-0.75-1.99,1.04-4.43,1.28-6.55c-0.06-0.04-0.12-0.07-0.18-0.11
	c-2.56,2.31-8.36,12.03-10.28,4.54c-1.65,0.88-2.62,3.35-4.54,1.21c-1.91,4.88-4.09,4.58-3.94-0.74c-0.06-0.02-0.13-0.03-0.19-0.05
	c-0.99,2.36-4.3,7.67-5.36,2.36c-9.25,10.94-4.68-6.93,1.38-8.88c-0.01-0.06-0.02-0.11-0.04-0.17c-3.09,0.84-6.13,2.27-9.04,3.62
	c-0.31,0.2-0.61,0.68-0.62,1.04c-0.08,4.94-2.58,9.36-6.35,12.42c-5.43,3.31-13.78-0.48-17.93,5.38c-2.45,0.7,0.09-3.96,0.08-5.11
	c0.51-3.2,2.99-4.5-1.53-4.88c-11.98-6.03,21.96-32.08,25.53-11.16c0.22,1.47,0.23,1.47,1.58,0.93c3.28-1.32,6.55-2.65,9.84-3.94
	C76.45,40.98,87,35,89.11,44.12z M40.05,55.44c0.01,0.04,0.03,0.07,0.04,0.11c6.17-1.91,11.82-5.11,17.7-7.75
	c0.5-0.23,0.63-0.59,0.62-1.15c-1.34-14.49-19.26-7.1-24.24,1.23c-2.78,2.88-3.65,8.95,2.01,8.19c1.45-1.14,2.17-6.19,1.9-8.02
	c-0.69,0.4-0.58,1.57-1.49,1.56c-0.08-1.02,1.61-4.18,2.49-2.21C40.05,51.79,35.19,57.12,40.05,55.44z M34.86,65.46
	c0.06,0.04,0.12,0.08,0.18,0.12c6.45-7.35,17.72,0.75,21.99-10.69c0.5-0.89,2.74-7.05,0.61-6.08c-6.25,2.95-12.38,6.73-19.27,7.93
	C36.01,57.61,35.93,63.15,34.86,65.46z M68.43,48.51c-0.04-0.01-0.19-0.07-0.44-0.15c0.46-1.01,0.89-1.98,1.33-2.95
	c-0.06-0.03-0.13-0.06-0.19-0.09c-2.71-0.1-8.05,10.8-5.04,10.43C66.56,54.07,67.93,51.48,68.43,48.51z M101.2,33.84
	c0.05,0.05,0.1,0.09,0.15,0.14c2.69-0.95,7.43-5.64,3.77-7.92C103.5,28.29,102.5,31.33,101.2,33.84z M128.61,22.23
	c-2.12-4.08-2.84,6.84-2.68,8C127.43,27.97,128.64,25.06,128.61,22.23z M97.39,45.83c0.54,2.07,2.1,3.8,3.28,0.73
	c0.16-1.18-1.59-1.47-2.38-1.99C97.34,44.2,97.11,44.45,97.39,45.83z M100.34,33.81c1.22-2.68,3.36-5.39,3.76-8.23
	c-1.99,1.8-2.85,4.89-4.4,7.16C99.48,33.26,99.85,33.57,100.34,33.81z M95.14,40.73c0.05,0.04,0.1,0.08,0.15,0.12
	C101.45,33.98,99.23,32.1,95.14,40.73z M105.63,22.72c-0.07-0.03-0.15-0.07-0.22-0.1c-0.27,0.66-1.09,1.26-0.88,1.99
	C105.27,24.46,105.25,23.3,105.63,22.72z M98.06,34.03c0.26-0.57,0.75-1.03,0.03-1.23C97.65,33.3,97.31,33.48,98.06,34.03z"/>
<path class="st0" d="M149.5,34.47c-3.42,0.77-3.61-7.39-4.99-5.62c-0.93,3.03-1.75,6.13-2.19,9.25c-0.08,0.15-0.32,0.22-0.49,0.32
	c0.28-4.84,2.15-9.95,3.62-14.62c1.56-3.51,2.25-7.87,4.49-10.83c0.36,2.53-5.26,11.16-3.8,12.69c1.05,0.35,3.56,0.56,2.28,2.17
	c-0.36,1.17-2.7,0.73-2.08,2c0.8,1.92,1.38,4.07,3.76,4.17C149.89,34.15,149.7,34.31,149.5,34.47z M146.69,28.52
	c2.19-1.44,1.12-1.94-0.87-2.06C144.19,26.94,145.6,28.28,146.69,28.52z"/>
</svg>
