<?xml version="1.0" encoding="utf-8"?>
<!-- Generator: Adobe Illustrator 24.1.1, SVG Export Plug-In . SVG Version: 6.00 Build 0)  -->
<svg version="1.0" id="Livello_1" xmlns="http://www.w3.org/2000/svg" xmlns:xlink="http://www.w3.org/1999/xlink" x="0px" y="0px"
	 viewBox="0 0 175.4 82.7" style="enable-background:new 0 0 175.4 82.7;" xml:space="preserve">
<style type="text/css">
	.st0{fill:#FFFFF0;}
</style>
<g>
	<path class="st0" d="M115.6,51.8c1.4-0.9,2.8-1.9,4.2-2.7c1.2-0.7,2.5-1.3,3.7-1.8c0.3-0.1,0.7,0,1,0c-0.2,0.3-0.3,0.7-0.5,0.9
		c-1.6,1.3-3.2,2.5-4.8,3.7c-0.6,0.5-1.2,1.1-1.9,1.6c0.7,0.5,1.4,0,2.1-0.1c-0.3,0.7-1.2,1-2,0.9c-0.6-0.1-1.1,0-1.5,0.4
		c-0.9,0.8-1.7,1.6-2.7,2.6c0.7,0.2,1.2,0.5,1.7,0.6c1.8,0.2,3.5,0.4,5.3,0.4c3.2,0,6.4-0.2,9.7-0.2c2.8,0,5.6,0,8.5,0
		c0.1,0,0.2,0,0.3,0c0.1-0.3,0.1-0.6,0.2-1.1c0.3,0.4,0.4,0.6,0.7,0.8c0.2,0.2,0.4,0.3,0.7,0.4c0.6,0.1,1.2,0.1,1.8,0
		c-0.9-0.5-1.8-1-2.7-1.6c0-0.1,0.1-0.1,0.1-0.2c0.3,0.1,0.7,0.2,1,0.4c0.5,0.2,1,0.5,1.5,0.8c1.4,0.8,3,1,4.6,1.2
		c0.3,0.1,0.7,0.1,1,0.2c0.1,0,0.2,0.2,0.4,0.4c-0.1,0.1-0.3,0.3-0.4,0.3c-0.4,0-0.8-0.1-1.2-0.1c-1.2-0.2-2.4-0.4-3.7-0.5
		c-2-0.1-4.1-0.2-6.2-0.2c-2.8,0-5.6,0.1-8.3,0.1c-4,0-7.9,0.4-11.9-0.1c-1-0.1-2-0.4-3-0.7c-0.4-0.1-0.6-0.1-0.8,0.2
		c-0.4,0.4-0.7,0.8-1.1,1.2c0.8,1,0.8,1.5-0.1,2.5c-0.6,0.7-1.3,1.4-2,2c-1.5,1.4-3,2.8-4.5,4.2c-0.6,0.5-1.1,1.1-1.7,1.6
		c-0.2,0.1-0.4,0.1-0.6,0.2c0-0.2,0-0.4,0.1-0.6c1.4-1.8,2.7-3.6,4.1-5.4c1.1-1.4,2.4-2.7,3.7-4.1c-0.4-0.1-0.8-0.2-1.1-0.2
		c-3-0.1-6.1-0.3-9.1-0.4c-2.6,0-5.3,0.2-7.9,0.2c-1.1,0-2.2-0.2-3.3-0.3c-1,0-1.9,0-2.9,0.1c-3,0.5-6,1-9.1,1
		c-2.1,0-4.1-0.5-5.9-1.6c-1.4-0.9-2.6-2-3-3.7c-0.3-1-0.2-1.9,0.1-2.9c-1,0.6-1.8,1.3-2.7,1.8c-0.6,0.4-1.4,0.6-2.1,0.9
		c-0.5,0.2-1.2,0.1-1.4-0.5c-0.2-0.5,0-1.1,0-1.6c0-0.1,0.1-0.2,0.1-0.3c-0.5,0.4-1.1,0.8-1.6,1.2c-0.6,0.5-1.2,1-1.9,1.4
		c-0.2,0.1-0.4,0.2-0.7,0.3c-0.7,0.2-1,0-1.1-0.8c-0.5,0.3-1,0.7-1.5,1c-0.2,0.1-0.4,0.3-0.7,0.3c-0.4,0-0.9,0-1.2-0.2
		c-0.2-0.2-0.2-0.7-0.2-1c0-0.3,0.2-0.7,0.4-1c-0.5,0.4-0.9,0.8-1.4,1.2c-0.1,0.1-0.2,0.2-0.4,0.2c-1,0.1-1.6,0.8-2.4,1.3
		c-0.1,0.1-0.2,0.1-0.3,0.2c-0.2,0-0.4,0-0.5,0c-0.1-0.1-0.1-0.3,0-0.4c0.1-0.2,0.2-0.5,0.3-0.7c0.9-1.6,1.9-3.3,2.8-4.9
		c0.1-0.1,0.2-0.3,0.3-0.4c0.1,0,0.1,0.1,0.2,0.1c-0.1,0.3-0.1,0.6-0.2,0.9c-0.8,1.4-1.6,2.9-2.4,4.3c0,0.1-0.1,0.2-0.1,0.3
		c0,0,0.1,0.1,0.1,0.1c0.5-0.6,1.1-1.3,1.6-1.9c0.9-1,1.7-2,2.6-3c0.3-0.3,0.6-0.6,0.9-0.9c0.2-0.1,0.4-0.1,0.7-0.1
		c0,0.2,0,0.5-0.1,0.6c-1,1.1-1.9,2.2-2.9,3.3c-0.2,0.2-0.4,0.5-0.7,0.7c0,0,0.1,0.1,0.1,0.1c0.1-0.1,0.3-0.1,0.4-0.2
		c0.7-0.6,1.4-1.2,2-1.9c0.7-0.8,1.2-1.8,1.8-2.6c1.2-1.7,2.5-3.4,3.7-5c0.5-0.6,1-1.2,1.5-1.8c0.1-0.1,0.4-0.3,0-0.5
		c0.1-0.1,0.2-0.3,0.3-0.4c0.1,0.1,0.2,0.1,0.3,0.2c0.9-0.7,1.8-1.5,2.7-2.2c0.3-0.3,0.7-0.4,1.1-0.5c0.1,0,0.3,0,0.4,0.1
		c0.1,0.1,0,0.3,0,0.4c-0.2,0.3-0.3,0.7-0.6,0.9c-1.1,1.3-2.1,2.5-3.3,3.7c-1.6,1.7-3.1,3.4-4.7,5.1c-0.5,0.6-1.1,1.1-1.7,1.7
		c-0.9,1-1.6,2.1-2,3.4c-0.2,0.6,0,0.7,0.6,0.5c0.4-0.1,0.8-0.3,1.1-0.5c1.8-1.4,3.3-3,4.5-5c0.1-0.2,0.3-0.4,0.5-0.5
		c0.1-0.1,0.3,0,0.4-0.1c0,0.1,0,0.3,0,0.4c-0.8,1-1.5,2.1-2.3,3.1c-0.5,0.6-0.9,1.2-1.1,1.9c0.1,0.1,0.1,0.1,0.2,0.2
		c0.8-0.6,1.7-1.2,2.5-1.8c1.1-0.8,2.2-1.7,3.2-2.6c0.1-0.1,0.4-0.1,0.5-0.1c0,0.2,0,0.4-0.1,0.6c-0.4,0.6-0.8,1.2-1.2,1.7
		c-0.3,0.4-0.3,0.9,0,1.2c0.2,0.2,0.8,0.2,1.1,0.1c1-0.5,1.9-1,2.8-1.6c0.5-0.3,0.8-0.7,1.3-0.9c1.5-0.9,2.2-2.5,3.4-3.6
		c1.2-1.2,2.4-2.3,3.6-3.3c1.8-1.4,3.5-2.9,4.9-4.6c0.4-0.5,0.8-0.9,1.4-1.5c-0.8,0-1.5,0-2.2-0.1c-2.3-0.2-4.6-0.2-6.9-0.5
		c-1.2-0.2-2.4-0.6-3.5-1.2c-2-1-2.9-2.8-3-5c-0.1-2.6,0.8-4.8,2.1-6.9c1.3-2.2,3-4.1,4.9-5.8c1.2-1.1,2.5-2.1,3.8-3.1
		c2.7-2,5.8-3.6,9-4.5c2.4-0.7,4.9-1,7.3-0.4c1.6,0.4,3.1,1.2,3.8,2.9c0.3,0.6,0.3,1.4,0.3,2.1c0,1.7-0.6,3.3-1.5,4.8
		c-1.1,1.9-2.1,3.9-3.4,5.8c-1.3,1.9-2.8,3.6-4.3,5.3c-1.6,1.9-3.2,3.7-4.9,5.5c-0.1,0.1-0.1,0.2-0.2,0.3c0.2,0,0.3,0.1,0.5,0.1
		c1.6-0.1,3.3-0.1,4.8-0.8c0.7-0.3,1.6-0.3,2.4-0.4c0.2,0,0.4,0.2,0.7,0.3c-0.2,0.2-0.3,0.4-0.5,0.5c-0.8,0.2-1.6,0.5-2.4,0.5
		c-1.5,0.1-2.8,0.8-4.1,1.4c-1.2,0.6-2.4,1.3-3.6,2c-1.9,1.1-3.7,2.5-5.2,4.1c-1.4,1.5-3,2.9-4.5,4.3c-1.1,1-2,2.1-2.1,3.6
		c-0.1,1.3,0.4,2.4,1.2,3.4c1.6,1.7,3.6,2.5,5.9,2.7c2.7,0.3,5.4,0,8-0.4c1.1-0.2,2.1-0.3,3.2-0.5c0-0.1,0-0.1,0.1-0.2
		c-0.3-0.1-0.5-0.3-0.8-0.4c-2-0.3-3.8-1.2-5.6-2.1c-1.9-1-2.6-3.7-1.3-5.5c1.5-2,3.4-3.6,5.6-4.7c1.6-0.9,3.2-1.7,4.9-2.5
		c0.8-0.4,1.7-0.6,2.5-1c1-0.5,2.1-1.1,3.1-1.6c3.1-1.6,6.3-2.9,9.8-3c1,0,2,0.3,3,0.5c0.4,0.1,1,0.4,1.2,0.8c0.5,0.7,1.1,0.8,1.8,1
		c1.4,0.3,2.8,0.7,4,1.6c2,1.5,3.1,3.4,2.9,5.9c-0.1,1.5-0.8,2.7-1.8,3.8C115.8,51.4,115.6,51.6,115.6,51.8
		C115.5,51.8,115.5,51.8,115.6,51.8z M106.1,65.6c0.3-0.2,0.7-0.4,1-0.6c0.9-0.8,1.7-1.6,2.5-2.4c0.5-0.5,1-1.1,1.5-1.7
		c0.1-0.1,0-0.4,0-0.6c-0.2,0-0.6,0-0.7,0.1c-1.4,1.5-2.8,3.1-4.2,4.6c-0.1,0.1-0.1,0.3-0.2,0.5c-0.1,0.1-0.3,0.1-0.4,0.2
		c-0.4,0.4-0.7,0.8-1,1.3c-0.1,0.1-0.1,0.2-0.2,0.3c0,0,0.1,0.1,0.1,0.1C105.1,66.7,105.6,66.2,106.1,65.6z M66.6,27.4
		c-0.6,1.8-1,3.4-0.7,5.1c0.3,1.5,1,2.8,2.4,3.5c1,0.6,2.3,1,3.4,1.2c2.9,0.3,5.8,0.5,8.7,0.6c0.6,0,1.2-0.2,1.6-0.7
		c1-1.2,2-2.3,3-3.4c1.7-1.9,3.4-3.8,5-5.8c1.5-1.9,2.7-4,4-6.1c1-1.7,1.7-3.5,2-5.5c0.3-2.2-0.8-3.6-2.6-4.3
		c-2.3-0.9-4.7-0.8-7-0.3c-4,0.8-7.4,2.7-10.6,5.1c-2.3,1.7-4.4,3.6-6.1,5.8C68.3,24.1,67.2,25.7,66.6,27.4z M91.4,58.3
		c0.1,0,0.2,0.1,0.3,0.1c1.9,0.1,3.8,0.2,5.6-0.1c3.2-0.6,6.3-1.2,9.4-2.2c0.2-0.1,0.4-0.2,0.5-0.3c0.3-0.5,0.6-1.1,0.9-1.6
		c0.3-0.8,0.1-1.1-0.7-1.1c-0.2,0-0.4,0-0.5,0c-0.5-0.1-1-0.2-1.4-0.4c-0.2-0.1-0.4-0.5-0.5-0.7c0.3,0,0.6,0,0.8,0
		c0.8,0.2,1.6,0.6,2.5,0.5c0.5-0.1,0.8-0.2,0.9-0.7c0.1-0.5,0.3-1.1,0.5-1.6c0.8-3,0.8-5.9,0-8.9c-0.2-0.8-0.4-0.9-1.2-1
		c-2.4-0.2-4.8,0-7.2,0.4c-2.1,0.3-4.2,0.8-6.3,1.3c-1,0.3-2.1,0.4-2.9,1.1c-1.3,1-2.7,2-3.9,3.1c-1.3,1.1-2.5,2.4-3.4,3.9
		c-1.7,2.8-0.6,8.2,4.4,8c1.6-0.1,3.2-0.4,4.7-0.7c0.7-0.1,1.4-0.4,2.1-0.5c1.2-0.3,2.5-0.5,3.7-0.9c0.9-0.2,1.8-0.5,2.7-0.7
		c0,0.1,0,0.1,0.1,0.2C98.8,56.6,95.1,57.4,91.4,58.3z M109.7,52.1c-0.5,1.1-1.1,2.2-1.6,3.4c0.3-0.1,0.5-0.1,0.6-0.1
		c2.7-1.1,5.2-2.5,7.2-4.8c1.7-1.9,1.8-5,0.3-7c-1.2-1.6-2.8-2.5-4.7-3c-0.4-0.1-0.9-0.2-1.4-0.3c0,0.2,0,0.3,0,0.4
		c0,0.1,0,0.3,0.1,0.4c0.5,2.4,0.7,4.8,0.3,7.2c-0.2,1-0.4,1.9-0.6,2.9C109.7,51.5,109.7,51.9,109.7,52.1z M84.7,57.1
		c0,0,0.1-0.1,0.1-0.1c-0.1-0.2-0.2-0.3-0.3-0.5c-1.4-1.8-1.6-3.7-0.9-5.8c0.6-1.7,1.8-3,3-4.2c0.3-0.3,0.5-0.7,0.8-1
		c1-0.3,1.6-1.2,2.5-1.9c-1.1,0.4-2.2,1-3.3,1.5c-2,0.9-3.8,2.1-5.4,3.5c-0.8,0.7-1.5,1.4-1.9,2.3c-0.9,1.5-0.7,2.4,0.4,3.4
		c0.8,0.7,1.8,1.4,2.7,1.9C83.1,56.7,83.9,56.9,84.7,57.1z M95.5,40.8C95.5,40.9,95.5,40.9,95.5,40.8c2-0.3,4-0.7,5.9-0.9
		c2.1-0.2,4.1-0.2,6.2-0.4c0.2,0,0.4-0.2,0.6-0.3c-0.2-0.2-0.4-0.4-0.6-0.5c-0.3-0.1-0.6-0.2-0.9-0.3c-0.2-0.1-0.4-0.2-0.6-0.2
		c-2.8-0.3-5.4,0.4-7.9,1.4c-0.2,0.1-0.4,0.3-0.6,0.4C97,40.3,96.2,40.6,95.5,40.8z M111.9,55.1c-1.9,0.9-3.9,1.9-5.4,3.5
		c0.1,0.1,0.2,0.1,0.2,0.1c1.2,0.1,2.4,0.3,3.7,0.4c0.1,0,0.3,0,0.4-0.1c0.4-0.4,0.8-0.8,1.2-1.2c0.1-0.1,0.1-0.4,0.1-0.5
		C111.5,56.6,111.6,55.9,111.9,55.1z M65,40.2c-2.9,1.6-7.2,7.1-8.2,9.1C59.5,46.2,62.5,43.4,65,40.2z M115.2,52.9
		c-0.2,0.1-0.3,0.1-0.4,0.2c-0.7,0.6-1.3,1.2-2,1.9c-0.2,0.2-0.4,0.5-0.5,0.8c0,0.3,0.1,0.6,0.2,0.9c0.2-0.1,0.5-0.1,0.7-0.2
		c0.8-0.7,1.6-1.4,2.3-2.2c0.1-0.1,0.4-0.4,0.3-0.5C115.7,53.5,115.5,53.3,115.2,52.9z M101,58.2c0,0,0,0.1,0,0.1
		c0.1,0,0.2,0.1,0.3,0.1c1,0.1,2,0.1,3,0.2c1.1,0.1,2.1-0.7,2.3-1.9C104.8,57.2,102.9,57.7,101,58.2z M84.3,38.3
		c-2.7,0.1-2.7,0.1-4.1,1.6c-0.1,0.1-0.3,0.3-0.4,0.5c-0.2,0.2-0.3,0.4-0.4,0.6c0,0,0.1,0.1,0.1,0.1C81,40.1,82.6,39.2,84.3,38.3z
		 M123.2,48.2c-0.9,0-5,2.5-5.6,3.2c0.3-0.1,0.5-0.1,0.8-0.2c0.5-0.1,1.1-0.1,1.5-0.4C120.9,49.9,122,49.1,123.2,48.2z M118.5,51.7
		c0,0-0.1-0.1-0.1-0.1c-0.9,0.3-1.7,0.7-2.6,1c0.4,0.8,0.7,0.9,1.3,0.4C117.6,52.5,118.1,52.1,118.5,51.7z"/>
	<path class="st0" d="M63.9,13.8c0.4-0.4,0.7-0.9,1.2-1.3c2.2-1.6,4.3-3.3,6.6-4.8c1.7-1.1,3.6-1.8,5.4-2.8c0.1,0,0.2-0.1,0.2-0.1
		c0.4,0,0.7,0.1,1.1,0.1c-0.1,0.3-0.1,0.8-0.3,1c-1.1,1.2-2.3,2.4-3.4,3.7c-0.7,0.8-1.5,1.5-2.2,2.3c-2.5,2.8-4.9,5.7-7.1,8.8
		c-2.3,3.2-4.5,6.5-6.7,9.8c-2.6,3.9-5,7.9-7.5,11.8c-0.9,1.4-1.7,2.8-2.5,4.2c-1.5,2.4-3,4.8-4.6,7.1c-1.8,2.7-3.8,5.3-5.7,8
		c-0.4,0.6-1,1.1-1.4,1.7c-0.7,1-1.4,1.9-2,2.9c-1.1,2-2.6,3.6-4,5.3c-0.8,1-1.8,1.8-2.9,2.5c-1,0.6-2,0.9-3.1,0.3
		c-0.1-0.1-0.3,0.1-0.6,0.2c-0.1-0.2-0.2-0.5-0.2-0.8c-0.1-0.7-0.3-0.9-1-0.8c0-0.1,0-0.1,0-0.2c0.2,0,0.4-0.1,0.7-0.1
		c0,0,0-0.1,0-0.1c0-0.1,0-0.1,0-0.3c0.1,0.1,0.3,0.2,0.3,0.3c0.2,0.3,0.4,0.7,0.6,0.9c0.7,0.6,1.4,0.8,2.3,0.4c0-0.2,0-0.3,0-0.5
		c1.1,0.4,1.6-0.5,2.2-1c0.7-0.6,1.3-1.3,1.9-2c1.2-1.7,2.4-3.4,3.6-5c1.2-1.7,2.5-3.4,3.7-5c0.4-0.5,0.7-1.1,1-1.6
		c0.2-0.2,0.4-0.4,0.6-0.6c1.5-2.1,2.9-4.1,4.3-6.2c1.6-2.4,3.1-4.8,4.6-7.2c1.2-1.9,2.3-3.8,3.5-5.7c1.2-2,2.5-3.9,3.8-5.9
		c0.2-0.3,0.2-0.6,0.3-0.8c0.3-0.3,0.5-0.6,0.7-0.9c0.8-1.2,1.6-2.3,2.4-3.5c1.6-2.3,3.1-4.5,4.7-6.8c2.2-3.1,4.5-6,7.1-8.8
		c1.4-1.5,2.9-3,4.3-4.5c0.7-0.7,1.3-1.5,2-2.2c0-0.1-0.1-0.1-0.1-0.2c-0.6,0.2-1.3,0.3-1.8,0.6c-1.5,0.7-3,1.5-4.4,2.4
		c-0.7,0.4-1.4,0.8-2.1,1.3c-0.7,0.5-1.4,1-2.1,1.6c-1,0.8-2,1.6-3,2.4C64.3,13.6,64.1,13.7,63.9,13.8
		C63.9,13.7,63.9,13.8,63.9,13.8z"/>
	<path class="st0" d="M48,32.5c0.1-0.4,0.3-0.8,0.4-1.1c0.2-0.5,0.5-0.9,0.7-1.4c0-0.1,0.1-0.1,0.1-0.2c0.9-1.1,1.8-2.3,2.7-3.4
		c1.1-1.3,2.2-2.7,3.3-4c1-1.2,2-2.3,3-3.4c1.2-1.2,2.4-2.4,3.6-3.6c0,0,0.1-0.1,0.3,0c-0.6,1.2-1.9,1.9-2.7,3
		c0.1,0,0.2-0.1,0.3-0.1c0.2,0.1,0.5,0.1,0.5,0.3c0,0.1-0.1,0.5-0.2,0.5c-1.4,0.7-2.1,1.9-2.9,3.1c-0.7,1.1-1.4,2.2-2.1,3.3
		c-0.8,1.1-1.7,2.1-2.5,3.2c-0.5,0.6-0.8,1.3-1.2,2c-0.2,0.3-0.5,0.5-0.8,0.9c-1.3,1.9-2.6,3.7-3.9,5.6c-1.2,1.7-2.3,3.5-3.4,5.3
		c-1.3,1.9-2.6,3.9-3.9,5.8c-0.3,0.5-0.5,1-0.8,1.6c-0.8,1.5-1.7,3-2.6,4.5c-0.1,0.1-0.1,0.3-0.3,0.3c-0.2,0.1-0.5,0.1-0.7,0.2
		c0-0.2,0-0.5,0.1-0.7c0.9-1.4,1.8-2.8,2.6-4.2c0.8-1.3,1.5-2.7,2.2-4c1.1-2,2.2-4,3.3-6.1c0.5-0.9,1-1.9,1.6-2.8
		c0.7-1.2,1.5-2.4,2.3-3.6C47.3,33,47.7,32.8,48,32.5c-0.1,0.2-0.2,0.4-0.3,0.7c-1.5,2.4-2.9,4.8-4.4,7.3c-0.4,0.6-0.7,1.3-1,1.9
		c0.1,0,0.1,0.1,0.2,0.1c0.2-0.4,0.5-0.7,0.7-1.1c1-1.5,2-2.9,2.9-4.4c0.4-0.7,0.8-1.4,1.2-2.2c0.1-0.1,0.2-0.2,0.3-0.3
		c0.2-0.1,0.4-0.1,0.4-0.1c-0.1-0.3-0.2-0.5-0.1-0.6c0.1-0.2,0.2-0.4,0.3-0.6c0.3-0.5,0.6-1.1,0.9-1.6c0.1,0,0.1,0.1,0.2,0.1
		c-0.1,0.7-0.5,1.4-0.9,2c3.4-4.7,6.8-9.5,10.2-14.2c-0.8,0.7-1.6,1.4-2.3,2.2c-0.9,1-1.7,2.1-2.5,3.2c-1.3,1.7-2.6,3.3-3.9,5
		c-0.2,0.2-0.2,0.6-0.2,0.9c0,0.5-0.1,0.6-0.5,0.4C48.7,31.6,48.3,32.1,48,32.5z"/>
	<path class="st0" d="M63.9,13.7c-0.1,0.4-1,1.2-1.5,1.4C62.7,14.3,63.4,14.1,63.9,13.7C63.9,13.8,63.9,13.7,63.9,13.7z"/>
</g>
</svg>
