<?xml version="1.0" encoding="utf-8"?>
<!-- Generator: Adobe Illustrator 24.1.1, SVG Export Plug-In . SVG Version: 6.00 Build 0)  -->
<svg version="1.1" id="Livello_1" xmlns="http://www.w3.org/2000/svg" xmlns:xlink="http://www.w3.org/1999/xlink" x="0px" y="0px"
	 viewBox="0 0 165.92 118.44" style="enable-background:new 0 0 165.92 118.44;" xml:space="preserve">
<style type="text/css">
	.st0{fill:#330066;}
</style>
<path class="st0" d="M62.22,84.34c3.65-0.74,4.95-3.82,7.02-6.52c-2.51-0.39-2.89-2.35-3.67-4.35c-0.46,1.02-0.82,1.75-1.13,2.51
	c-0.53,1.3-0.97,2.64-1.57,3.9c-0.94,1.98-2.99,2.14-4.13,0.26c-0.55-0.9-0.73-2.02-1.05-3.05c-0.12-0.37-0.16-0.76-0.4-1.16
	c-0.79,2.29-0.88,4.75-1.66,7.01c-0.16-0.04-0.32-0.07-0.48-0.11c0.01-0.29-0.04-0.59,0.03-0.87c1.41-5.95,1.56-11.96,1.43-18.06
	c-0.08-3.99,0.68-8.01,1.07-12.01c0.03-0.31,0.14-0.62,0.25-0.91c0.04-0.11,0.18-0.17,0.51-0.46c0.08,0.52,0.19,0.86,0.17,1.19
	c-0.3,6.5-0.78,13.01-0.85,19.51c-0.03,2.62,0.72,5.26,1.3,7.85c0.15,0.66,0.99,1.16,1.52,1.73c0.59-0.54,1.42-0.98,1.73-1.65
	c0.95-2.05,1.75-4.17,2.49-6.31c0.23-0.68,0.24-1.52,0.09-2.23c-1.7-7.74-2.06-15.5-0.47-23.31c0.16-0.79,0.46-1.57,0.79-2.3
	c0.14-0.3,0.54-0.49,0.82-0.73c0.14,0.3,0.38,0.6,0.41,0.91c0.28,2.97,0.54,5.95,0.79,8.92c0.42,5.02,0.61,10.07-0.62,14.99
	c-0.57,2.27-0.36,4.25,0.55,6.29c0.39,0.88,0.95,1.79,1.95,1.52c0.61-0.17,1.16-1.02,1.49-1.7c0.66-1.36,1.14-2.8,1.74-4.31
	c-0.05-0.02-0.41-0.16-0.83-0.33c0.12-0.25,0.15-0.54,0.29-0.61c1.63-0.8,1.85-2.14,1.64-3.77c-0.25-1.88-0.35-3.78-0.49-5.68
	c-0.03-0.38,0.02-0.76,0.04-1.15c0.12-0.04,0.24-0.08,0.37-0.12c0.2,0.32,0.49,0.62,0.57,0.96c0.15,0.66,0.09,1.37,0.27,2.01
	c0.15,0.54,0.52,1.01,0.79,1.52c0.27,0.51,0.54,1.03,0.79,1.55c0.71,1.46,1.37,2.94,2.12,4.38c0.57,1.1,1.58,1.28,2.54,0.68
	c2.19-1.35,4.42-2.65,5-5.54c0.28-1.41,0.89-2.75,1.43-4.1c0.16-0.41,0.57-0.73,0.87-1.09c0.09,0.07,0.19,0.14,0.28,0.22
	c-0.58,1.7-1.16,3.4-1.75,5.09c0.12,0.07,0.24,0.14,0.37,0.21c1.16-1.16,2.33-2.33,3.49-3.49c0.09,0.04,0.18,0.07,0.27,0.11
	c-0.23,0.5-0.38,1.07-0.71,1.5c-0.52,0.68-1.09,1.35-1.76,1.87c-1.92,1.49-2.87,3.42-3.01,5.81c-0.13,2.21-0.32,4.41-0.36,6.62
	c-0.01,0.74,0.35,1.49,0.56,2.33c3.2-2.28,3.2-2.28,6.53,1.02c0.16-1.39,0.32-2.6,0.41-3.81c0.01-0.16-0.39-0.31-0.51-0.52
	c-0.36-0.61-1.06-1.35-0.93-1.85c0.61-2.3,1.45-4.54,2.24-6.79c0.07-0.2,0.37-0.32,0.92-0.39c-0.17,1.83-0.35,3.66-0.52,5.5
	c0.07,0.04,0.15,0.08,0.22,0.13c0.72-0.97,1.43-1.95,2.18-2.91c0.92-1.17,1.77-2.44,2.86-3.44c0.74-0.68,1.85-0.96,2.77-1.46
	c0.34-0.18,0.71-0.42,0.89-0.74c0.35-0.63,0.49-1.37,0.85-1.99c1.03-1.79,2.46-2.11,4.32-0.92c0.18-0.74,0.34-1.43,0.5-2.13
	c0.14-0.02,0.29-0.04,0.43-0.06c0.16,0.49,0.38,0.97,0.48,1.48c0.15,0.75,0.17,1.53,0.36,2.27c0.11,0.39,0.45,0.98,0.73,1
	c0.41,0.04,0.91-0.28,1.26-0.58c0.33-0.28,0.54-0.72,0.74-1.13c0.72-1.41,1.36-2.87,2.12-4.25c1.24-2.27,1.6-4.4,0.6-7.02
	c-1.35-3.52-1.32-7.36-1.1-11.13c0.02-0.33,0.15-0.64,0.44-0.97c0.08,4.43,0.07,8.85,1.61,13.05c0.16,0.01,0.32,0.01,0.47,0.02
	c0.32-3.26,0.64-6.53,0.95-9.79c0.07-0.01,0.14-0.01,0.21-0.02c0.04,0.42,0.13,0.84,0.11,1.25c-0.2,2.98-0.44,5.95-0.63,8.93
	c-0.03,0.41,0.02,1.15,0.18,1.19c0.43,0.11,1.06,0.09,1.38-0.16c1.34-1.04,2.44-2.27,2.52-4.13c0.06-1.47,0.22-2.94,0.36-4.71
	c0.57,0.37,0.87,0.56,1.25,0.81c0.05-0.26,0.14-0.51,0.15-0.76c0.19-3.75,0.36-7.5,0.54-11.25c0.03-0.54,0-1.11,0.17-1.61
	c0.13-0.36,0.54-0.63,0.82-0.94c0.29,0.36,0.82,0.72,0.82,1.08c0.01,2.03-0.05,4.07-0.19,6.1c-0.29,4.1-0.04,8.09,1.42,12.02
	c1.38,3.72,1.97,7.78,4.4,11.04c1.78,2.38,3.86,4.53,5.81,6.77c0.21,0.24,0.46,0.43,0.67,0.67c0.08,0.09,0.08,0.24-0.08,0.57
	c-1.06-0.93-2.18-1.81-3.18-2.8c-4.05-3.99-6.06-9.03-7.87-14.34c-1.82-5.36-1.88-10.72-1.77-16.19c0.02-0.77,0.01-1.54,0.01-2.31
	c0-0.13-0.06-0.26-0.32-0.4c-0.12,2.84-0.15,5.68-0.38,8.5c-0.31,3.87-0.75,7.73-1.19,11.6c-0.05,0.43-0.39,0.84-0.59,1.25
	c-0.23-0.43-0.46-0.85-0.67-1.29c-0.11-0.23-0.16-0.48-0.3-0.89c-1.12,1.38-2.2,2.51-4.05,2.22c-0.16-0.02-0.46,0.56-0.61,0.89
	c-1.19,2.59-2.36,5.18-3.54,7.77c-0.07,0.16-0.18,0.32-0.28,0.46c-1.34,1.94-2.73,1.77-4.08-0.68c-0.12,1.25-0.22,2.33-0.32,3.41
	c-0.19,0.01-0.38,0.02-0.57,0.02c-0.07-0.45-0.17-0.9-0.21-1.36c-0.07-0.8,0.03-1.64-0.18-2.4c-0.32-1.12-1.3-1.35-2.24-0.68
	c-1.29,0.93-1.98,3.27-1.47,4.84c0.5,1.52,0.53,3.04-0.3,4.46c-0.17,0.29-0.62,0.43-0.94,0.64c-0.15-0.3-0.45-0.61-0.44-0.9
	c0.04-1.35,0.17-2.69,0.24-4.04c0.02-0.3,0.03-0.79-0.11-0.85c-0.29-0.13-0.76-0.15-1,0.01c-0.64,0.42-1.3,0.87-1.76,1.46
	c-1.65,2.1-3.29,4.2-4.79,6.41c-1.64,2.41-1.38,5.28-1.55,8.01c-0.03,0.4,0.3,0.84,0.48,1.25c2.14,4.98,4.39,9.92,6.36,14.96
	c0.47,1.19,0.25,2.78-0.04,4.1c-0.42,1.93-2.11,2.38-3.64,1.12c-2.94-2.43-4.03-5.76-4.18-9.39c-0.15-3.6-0.02-7.22,0.03-10.83
	c0.02-1.3-1.83-4.37-3.11-4.6c-0.55-0.1-1.24,0.45-1.82,0.77c-0.43,0.24-0.94,0.92-1.18,0.82c-0.51-0.21-1.15-0.75-1.22-1.23
	c-0.25-1.73-0.41-3.49-0.38-5.24c0.03-1.56,0.36-3.12,0.53-4.49c-1.61,0.67-3.2,1.77-4.88,1.93c-2.14,0.2-2.48-2.24-3.73-3.76
	c0.05,1.27,0.15,2.29,0.09,3.31c-0.02,0.44-0.37,0.87-0.57,1.3c-0.27-0.36-0.59-0.7-0.78-1.09c-0.1-0.21,0.01-0.53-0.14-0.73
	c-2.31,3.53-3.6,10.15-2.74,13.36c0.9-0.84,1.74-1.62,2.58-2.41c0.12,0.11,0.23,0.21,0.35,0.32c-0.75,0.97-1.45,1.97-2.26,2.89
	c-0.69,0.78-0.95,1.6-0.73,2.61c0.44,1.98,0.85,3.97,1.26,5.96c0.11,0.52,0.15,1.05,0.23,1.58c-0.12,0.09-0.24,0.19-0.36,0.28
	c-0.32-0.34-0.8-0.64-0.93-1.04c-0.25-0.77-0.14-1.67-0.47-2.38c-0.51-1.12-1.23-2.15-1.93-3.18c-0.1-0.15-0.56-0.07-0.86-0.07
	c-0.45,0-0.9,0.03-1.67,0.07c0.49-0.58,0.73-0.87,0.97-1.16c-1.3-0.97-1.86-0.85-2.36,0.63c-0.26,0.76-0.41,1.58-0.46,2.39
	c-0.27,3.65-0.69,7.32,0.37,10.92c0.27,0.92,0.73,1.78,1.13,2.72c-0.85,0.25-1.34-0.48-1.55-1.2c-0.5-1.68-1.07-3.39-1.16-5.12
	c-0.15-2.65,0.04-5.33,0.15-7.99c0.03-0.67,0.22-1.34,0.42-1.99c0.55-1.78,1.8-2.27,3.48-1.41c1.07,0.55,2.57-0.04,2.63-1.19
	c0.1-2.1,0-4.21-0.03-6.75c-0.78,1.13-1.27,1.98-1.91,2.7c-1.04,1.18-2.12,2.35-3.29,3.39C64.22,84.99,63.21,85.1,62.22,84.34z
	 M92.27,83.89c-0.84,3.85-0.48,11.92,0.86,14.87c0.7,1.56,1.86,2.96,3.04,4.23c0.91,0.98,1.95,0.66,2.19-0.62
	c0.23-1.25,0.44-2.69,0.05-3.84c-1.13-3.37-2.54-6.65-3.9-9.94C93.88,87.1,93.12,85.68,92.27,83.89z M65.61,69.48
	c2.15-7.8,1.09-15.61,0.15-23.41C63.66,53.87,63.61,61.67,65.61,69.48z M91.72,75.85c0.87-1.5,0.84-3.17,0.83-4.83
	C91.8,72.54,91.19,74.08,91.72,75.85z"/>
<path class="st0" d="M43.98,61.97c-1.45,2.03-2.9,4.05-4.41,6.15c0.32,0.24,0.57,0.43,0.82,0.62c-0.06,0.15-0.06,0.27-0.12,0.32
	c-1.34,1.07-2.66,2.17-4.05,3.17c-0.3,0.22-0.86,0.07-1.31,0.09c0.2-0.33,0.37-0.69,0.62-0.98c0.67-0.79,1.43-1.5,2.05-2.33
	c2.39-3.18,4.74-6.4,7.12-9.58c0.21-0.27,0.61-0.4,0.92-0.6c0.11,0.39,0.39,0.82,0.31,1.16c-0.56,2.42-1.2,4.83-1.8,7.24
	c-0.11,0.43-0.16,0.87-0.24,1.3c0.1,0.05,0.2,0.1,0.31,0.15c1.1-1.74,2.2-3.48,3.29-5.22c0.13,0,0.25,0,0.38,0
	c0.06,0.39,0.19,0.79,0.16,1.18c-0.4,5.99-0.82,11.98-1.23,17.98c-0.01,0.12,0.07,0.25,0.11,0.37c1.6-0.23,3.18-2.46,3.27-4.37
	c0.1-2.16,0.3-4.32,0.59-6.46c0.12-0.86,0.19-2.24,1.39-2.07c0.58,0.08,1.24,1.32,1.43,2.13c0.52,2.25-0.28,4.35-1.43,6.2
	c-1.59,2.55-1.8,5.09-0.48,7.97c-1.94-1.04-1.37-2.76-1.45-4.41c-0.76,0.69-1.24,1.35-1.9,1.65c-0.58,0.27-1.49,0.37-2,0.09
	c-0.38-0.21-0.5-1.16-0.48-1.77c0.04-1.76,0.25-3.51,0.32-5.26c0.13-3.1,0.21-6.21,0.32-9.73c-0.59,0.97-0.92,1.73-1.46,2.3
	c-0.4,0.43-1.05,0.61-1.59,0.9c-0.2-0.54-0.65-1.13-0.57-1.62c0.32-1.87,0.81-3.71,1.23-5.56c0.06-0.28,0.1-0.57,0.16-0.86
	C44.17,62.08,44.08,62.02,43.98,61.97z M51.95,70.96c-0.45,2.37-0.9,4.73-1.35,7.1C52.63,76.42,53.33,72.75,51.95,70.96z"/>
<path class="st0" d="M78.84,77.77c-1.67,2.22-3.33,4.45-5.02,6.66c-0.04,0.05-0.31-0.09-0.61-0.19c2.9-4.69,5.85-9.23,9.94-12.96
	c-0.35,0.61-0.68,1.24-1.06,1.84c-0.42,0.64-0.98,1.21-1.32,1.88c-0.33,0.64-0.67,1.39-0.65,2.08c0.06,2,0.31,4,0.48,5.99
	c0.16,0.02,0.32,0.03,0.48,0.05c0.26-0.75,0.53-1.5,0.93-2.64c0.56,1.05,0.94,1.77,1.41,2.64c0.22-0.42,0.37-0.72,0.67-1.3
	c-0.13,4.89,3.12,8.12,4.77,12.02c0.88,2.07,1.85,4.12,2.57,6.24c0.32,0.94,0.24,2.06,0.15,3.08c-0.13,1.41-1.2,1.92-2.46,1.21
	c-1.91-1.08-3.05-2.78-3.77-4.8c-1.41-3.98-1.49-8.15-1.77-12.3c-0.1-1.52-0.64-3.01-1.05-4.84c-0.95,0.94-0.5,3.46-2.72,1.42
	c-0.15,1.4-0.2,2.6-0.42,3.75c-0.12,0.63-0.54,1.2-0.82,1.8c-0.49-0.38-0.99-0.76-1.48-1.16c-0.13-0.1-0.22-0.24-0.34-0.37
	c-0.1,0.12-0.18,0.17-0.2,0.25c-0.18,0.51-0.35,1.03-0.52,1.55c-0.18-0.49-0.48-0.98-0.5-1.48c-0.06-1.42,0.01-2.84,0.02-4.54
	c2.01,1.13,1.45,3.35,2.64,4.57C79.2,86.71,79.63,79.71,78.84,77.77z M84.69,87.36c-0.14,0.05-0.29,0.11-0.43,0.16
	c0.22,4.71,0.4,9.44,2.85,13.69c0.54,0.94,1.49,1.68,2.36,2.37c0.73,0.57,1.38,0.3,1.24-0.7c-0.23-1.72-0.3-3.55-0.97-5.11
	C88.23,94.22,86.4,90.82,84.69,87.36z"/>
</svg>
