<?xml version="1.0" encoding="utf-8"?>
<!-- Generator: Adobe Illustrator 24.1.1, SVG Export Plug-In . SVG Version: 6.00 Build 0)  -->
<svg version="1.1" id="Livello_1" xmlns="http://www.w3.org/2000/svg" xmlns:xlink="http://www.w3.org/1999/xlink" x="0px" y="0px"
	 viewBox="0 0 39.06 42.98" style="enable-background:new 0 0 39.06 42.98;" xml:space="preserve">
<style type="text/css">
	.st0{fill:#FFFFF0;}
</style>
<path class="st0" d="M20.31,35.32c-2.92,0-5.84-0.01-8.77,0c-0.92,0-1.72-0.3-2.43-0.85c-1.27-0.99-1.93-2.29-1.92-3.92
	C7.2,29,7.2,27.44,7.21,25.88c0.01-3.37,0.02-6.75,0.04-10.12c0-0.82-0.01-1.63,0.04-2.45c0.06-1.01,0.45-1.9,1.12-2.65
	c0.84-0.95,1.89-1.49,3.15-1.58c0.68-0.05,1.38,0,2.06,0c4.09,0,8.18,0,12.27,0c1.13,0,2.26-0.05,3.38,0.02
	c1.28,0.08,2.33,0.68,3.15,1.66c0.75,0.88,1.08,1.92,1.07,3.06c-0.01,2.85-0.04,5.7-0.05,8.54c-0.01,2.76,0.01,5.52,0.01,8.28
	c0,1.17-0.34,2.22-1.08,3.13c-0.67,0.82-1.53,1.35-2.56,1.61c-0.16,0.04-0.33,0.04-0.5,0.04c-3-0.02-6.01-0.05-9.01-0.07
	C20.31,35.35,20.31,35.34,20.31,35.32z M26.1,27.73c0-0.84,0-1.69,0-2.53c0-0.84-0.01-1.69-0.03-2.53c0-0.17,0.06-0.22,0.22-0.22
	c0.91,0,1.82,0,2.73,0c0.27,0,0.28-0.01,0.28-0.27c0-1.02,0-2.04,0.01-3.06c0-0.19-0.05-0.25-0.25-0.25c-0.92,0.01-1.85,0-2.77,0.01
	c-0.16,0-0.24-0.04-0.23-0.22c0.02-0.33,0.01-0.66,0.04-0.99c0.09-0.9,0.47-1.41,1.5-1.45c0.51-0.02,1.01-0.02,1.52-0.02
	c0.16,0,0.21-0.05,0.21-0.21c0-1.01,0-2.01,0.01-3.02c0-0.19-0.06-0.25-0.24-0.25c-0.53,0-1.07-0.02-1.6-0.02
	c-0.92,0.01-1.83,0.02-2.74,0.22c-1.77,0.4-3.03,1.7-3.26,3.5c-0.09,0.71-0.06,1.44-0.08,2.16c-0.01,0.28-0.01,0.29-0.28,0.29
	c-0.67,0-1.34-0.01-2-0.01c-0.51,0-0.51,0-0.52,0.51c0,0.93,0,1.86,0,2.79c0,0.18,0.07,0.27,0.25,0.26c0.07,0,0.13,0,0.2,0
	c0.67,0,1.35,0,2.02,0.01c0.3,0,0.31,0.02,0.31,0.31c0,0.66,0.01,1.32,0.01,1.98c0,2.65,0,5.29,0,7.94c0,0.28,0,0.28,0.29,0.29
	c1.35,0.01,2.7,0.02,4.05,0.03c0.34,0,0.34,0,0.34-0.34C26.1,31,26.1,29.37,26.1,27.73z"/>
</svg>
