<?xml version="1.0" encoding="utf-8"?>
<!-- Generator: Adobe Illustrator 24.1.1, SVG Export Plug-In . SVG Version: 6.00 Build 0)  -->
<svg version="1.0" id="Livello_1" xmlns="http://www.w3.org/2000/svg" xmlns:xlink="http://www.w3.org/1999/xlink" x="0px" y="0px"
	 viewBox="0 0 39.1 43" style="enable-background:new 0 0 39.1 43;" xml:space="preserve">
<style type="text/css">
	.st0{fill:#330066;}
</style>
<path class="st0" d="M20,34.1c-2.9,0-5.8,0-8.8,0c-0.9,0-1.7-0.3-2.4-0.9c-1.3-1-1.9-2.3-1.9-3.9c0-1.6,0-3.1,0-4.7
	c0-3.4,0-6.7,0-10.1c0-0.8,0-1.6,0-2.4c0.1-1,0.5-1.9,1.1-2.7c0.8-0.9,1.9-1.5,3.2-1.6c0.7,0,1.4,0,2.1,0c4.1,0,8.2,0,12.3,0
	c1.1,0,2.3,0,3.4,0c1.3,0.1,2.3,0.7,3.2,1.7c0.7,0.9,1.1,1.9,1.1,3.1c0,2.8,0,5.7,0,8.5c0,2.8,0,5.5,0,8.3c0,1.2-0.3,2.2-1.1,3.1
	c-0.7,0.8-1.5,1.3-2.6,1.6c-0.2,0-0.3,0-0.5,0C26,34.2,23,34.2,20,34.1C20,34.1,20,34.1,20,34.1z M25.8,26.5c0-0.8,0-1.7,0-2.5
	c0-0.8,0-1.7,0-2.5c0-0.2,0.1-0.2,0.2-0.2c0.9,0,1.8,0,2.7,0c0.3,0,0.3,0,0.3-0.3c0-1,0-2,0-3.1c0-0.2-0.1-0.3-0.3-0.3
	c-0.9,0-1.8,0-2.8,0c-0.2,0-0.2,0-0.2-0.2c0-0.3,0-0.7,0-1c0.1-0.9,0.5-1.4,1.5-1.5c0.5,0,1,0,1.5,0c0.2,0,0.2-0.1,0.2-0.2
	c0-1,0-2,0-3c0-0.2-0.1-0.3-0.2-0.3c-0.5,0-1.1,0-1.6,0c-0.9,0-1.8,0-2.7,0.2c-1.8,0.4-3,1.7-3.3,3.5c-0.1,0.7-0.1,1.4-0.1,2.2
	c0,0.3,0,0.3-0.3,0.3c-0.7,0-1.3,0-2,0c-0.5,0-0.5,0-0.5,0.5c0,0.9,0,1.9,0,2.8c0,0.2,0.1,0.3,0.2,0.3c0.1,0,0.1,0,0.2,0
	c0.7,0,1.3,0,2,0c0.3,0,0.3,0,0.3,0.3c0,0.7,0,1.3,0,2c0,2.6,0,5.3,0,7.9c0,0.3,0,0.3,0.3,0.3c1.3,0,2.7,0,4,0c0.3,0,0.3,0,0.3-0.3
	C25.8,29.8,25.8,28.1,25.8,26.5z"/>
</svg>
