<?xml version="1.0" encoding="utf-8"?>
<!-- Generator: Adobe Illustrator 24.1.1, SVG Export Plug-In . SVG Version: 6.00 Build 0)  -->
<svg version="1.1" id="Livello_1" xmlns="http://www.w3.org/2000/svg" xmlns:xlink="http://www.w3.org/1999/xlink" x="0px" y="0px"
	 viewBox="0 0 425.2 426.4" style="enable-background:new 0 0 425.2 426.4;" xml:space="preserve">
<style type="text/css">
	.st0{fill:#330066;}
	.st1{fill:#FFFFF0;}
</style>
<polygon class="st0" points="216.9,0 0,0 425.2,426.4 425.2,209.6 "/>
<g>
	<path class="st1" d="M177.7,89.8l-3.6-3.6l26-25.4l3.6,3.6L177.7,89.8z"/>
	<path class="st1" d="M210,70.8l3.2,3.3l-7.7,32.4l-0.9,0l20.6-20.1l3.5,3.6l-26,25.4l-3.3-3.3l7.4-32l0.9,0l-20.3,19.8l-3.5-3.6
		L210,70.8z"/>
	<path class="st1" d="M251.6,113.3l3,3.1l-16.6,35l-3.8-3.9l13.9-27.7l-28,13.3l-3.8-3.9L251.6,113.3z M229.8,124.6l13.4,13.7
		l-3.5,3.4L226.3,128L229.8,124.6z"/>
	<path class="st1" d="M267.9,130l3.6,3.6l-26,25.5l-3.6-3.6L267.9,130z M257.9,142.9l8.7,8.9c0.7,0.7,1.4,1.1,2.3,1.4
		c0.9,0.2,1.7,0.2,2.6-0.2c0.9-0.3,1.7-0.8,2.5-1.6s1.4-1.6,1.7-2.5c0.3-0.9,0.4-1.8,0.2-2.6s-0.6-1.6-1.3-2.3l-8.7-8.9l3.5-3.4
		l8.5,8.7c1.5,1.5,2.5,3.1,2.9,4.9s0.5,3.5-0.1,5.2c-0.5,1.7-1.5,3.3-3,4.8c-1.5,1.5-3.1,2.4-4.9,2.9c-1.8,0.5-3.5,0.5-5.2-0.1
		s-3.3-1.5-4.8-3l-8.5-8.7L257.9,142.9z M262.2,152.5l4.4,2.8l-6.1,19l-4.2-4.3L262.2,152.5z"/>
	<path class="st1" d="M291.3,153.8l3.6,3.6l-26,25.5l-3.6-3.6L291.3,153.8z M281.3,166.7l8.7,8.9c0.7,0.7,1.4,1.1,2.3,1.3
		c0.9,0.2,1.7,0.2,2.6-0.2c0.9-0.3,1.7-0.8,2.5-1.6c0.8-0.8,1.4-1.6,1.7-2.5c0.3-0.9,0.4-1.8,0.2-2.6c-0.2-0.9-0.6-1.6-1.3-2.3
		l-8.7-8.9l3.5-3.4l8.5,8.7c1.5,1.5,2.4,3.1,2.9,4.9s0.5,3.5-0.1,5.2c-0.5,1.7-1.5,3.3-3,4.8c-1.5,1.5-3.1,2.4-4.9,2.9
		c-1.8,0.5-3.5,0.5-5.2-0.1c-1.7-0.5-3.3-1.5-4.8-3l-8.5-8.7L281.3,166.7z M285.6,176.4l4.4,2.8l-6.1,19l-4.2-4.3L285.6,176.4z"/>
	<path class="st1" d="M292.2,206.8l-3.6-3.6l26-25.4l3.6,3.6L292.2,206.8z"/>
	<path class="st1" d="M322.6,185.8l3.9,4L312.2,216l26.5-13.7l3.9,4l-34.3,17l-3.4-3.5L322.6,185.8z"/>
	<path class="st1" d="M324.5,238c-0.6-2.2-0.5-4.3,0.2-6.5c0.7-2.2,2-4.2,3.9-6.1l7.4-7.2c1.9-1.9,4-3.1,6.1-3.8
		c2.2-0.7,4.4-0.7,6.5-0.1c2.1,0.6,4.1,1.8,5.9,3.6c1.8,1.8,2.9,3.8,3.5,6c0.6,2.2,0.5,4.3-0.2,6.5c-0.7,2.2-2,4.2-3.9,6.1l-7.4,7.2
		c-1.9,1.9-4,3.1-6.1,3.8c-2.2,0.7-4.4,0.7-6.5,0.1c-2.1-0.6-4.1-1.8-5.9-3.6C326.2,242.1,325.1,240.2,324.5,238z M335.1,242.6
		c1.3,0.3,2.6,0.3,3.9-0.1c1.3-0.4,2.6-1.2,3.7-2.3l7.6-7.5c1.2-1.1,2-2.4,2.4-3.7c0.5-1.3,0.5-2.6,0.2-3.9c-0.3-1.3-1-2.5-2-3.5
		c-1-1.1-2.2-1.8-3.5-2.1c-1.3-0.3-2.6-0.3-3.9,0.1c-1.3,0.4-2.6,1.2-3.7,2.3l-7.6,7.5c-1.2,1.1-2,2.4-2.4,3.7
		c-0.5,1.3-0.5,2.6-0.2,3.9c0.3,1.3,1,2.5,2,3.5C332.6,241.5,333.8,242.2,335.1,242.6z"/>
</g>
</svg>
