<?xml version="1.0" encoding="utf-8"?>
<!-- Generator: Adobe Illustrator 24.1.1, SVG Export Plug-In . SVG Version: 6.00 Build 0)  -->
<svg version="1.1" id="Livello_1" xmlns="http://www.w3.org/2000/svg" xmlns:xlink="http://www.w3.org/1999/xlink" x="0px" y="0px"
	 viewBox="0 0 41.2 42.9" style="enable-background:new 0 0 41.2 42.9;" xml:space="preserve">
<style type="text/css">
	.st0{fill:#330066;}
	.st1{fill:#FF0000;}
</style>
<polygon class="st0" points="22.7,1.1 4.9,1.1 39.8,36.1 39.8,18.3 "/>
<g>
	<g>
		<path class="st1" d="M21.4,6.5l0.3,0.3l-2.3,2.3l-0.3-0.3L21.4,6.5z"/>
		<path class="st1" d="M22.4,7.4l0.3,0.3L22,10l-0.2,0.7l0,0c0.2-0.2,0.5-0.5,0.7-0.8l1.2-1.2L24,9.1l-2.3,2.3l-0.3-0.3L22,8.8
			l0.2-0.7l0,0c-0.2,0.2-0.4,0.5-0.7,0.8L20.3,10L20,9.7L22.4,7.4z"/>
		<path class="st1" d="M25.8,10.9l0.3,0.3l-1.6,3.1L24.3,14l0.9-1.7c0.2-0.3,0.4-0.7,0.6-1l0,0c-0.3,0.2-0.7,0.4-1,0.5L23,12.7
			l-0.3-0.3L25.8,10.9z M24.1,11.9l1.1,1.1l-0.2,0.2l-1.1-1.1L24.1,11.9z"/>
		<path class="st1" d="M27.2,12.4l0.7,0.7c0.5,0.5,0.6,1,0.1,1.5c-0.5,0.5-1,0.3-1.5-0.1L26.2,14l-1,1l-0.3-0.3L27.2,12.4z
			 M26.6,14.3l0.4,0.1l-0.5,1.9L26.2,16L26.6,14.3z M26.8,14.2c0.4,0.4,0.7,0.4,1,0.1c0.3-0.3,0.2-0.6-0.1-1l-0.4-0.4l-0.9,0.9
			L26.8,14.2z"/>
		<path class="st1" d="M29.2,14.4l0.7,0.7c0.5,0.5,0.6,1,0.1,1.5c-0.5,0.5-1,0.3-1.5-0.1L28.2,16l-1,1l-0.3-0.3L29.2,14.4z
			 M28.6,16.3l0.4,0.1l-0.5,1.9L28.2,18L28.6,16.3z M28.8,16.2c0.4,0.4,0.7,0.4,1,0.1c0.3-0.3,0.2-0.6-0.1-1L29.3,15l-0.9,0.9
			L28.8,16.2z"/>
		<path class="st1" d="M31.2,16.4l0.3,0.3L29.2,19l-0.3-0.3L31.2,16.4z"/>
		<path class="st1" d="M31.8,17.1l0.3,0.3L31.3,19c-0.2,0.4-0.4,0.6-0.6,1l0,0c0.4-0.2,0.6-0.3,1-0.5l1.6-0.9l0.3,0.3l-3.1,1.6
			l-0.3-0.3L31.8,17.1z"/>
		<path class="st1" d="M32.7,20.2c0.8-0.7,1.6-0.8,2.2-0.2c0.6,0.6,0.5,1.5-0.2,2.2C33.9,23,33,23,32.4,22.4
			C31.9,21.8,31.9,21,32.7,20.2z M34.3,21.9c0.6-0.6,0.7-1.2,0.3-1.6s-1-0.3-1.6,0.2c-0.6,0.6-0.7,1.2-0.3,1.6S33.8,22.5,34.3,21.9z
			"/>
	</g>
</g>
</svg>
