<?xml version="1.0" encoding="utf-8"?>
<!-- Generator: Adobe Illustrator 24.1.1, SVG Export Plug-In . SVG Version: 6.00 Build 0)  -->
<svg version="1.1" id="Livello_1" xmlns="http://www.w3.org/2000/svg" xmlns:xlink="http://www.w3.org/1999/xlink" x="0px" y="0px"
	 viewBox="0 0 39.06 42.98" style="enable-background:new 0 0 39.06 42.98;" xml:space="preserve">
<style type="text/css">
	.st0{fill:#FFFFF0;}
</style>
<g>
	<path class="st0" d="M33.43,22.28c0,1.31,0,2.62,0,3.93c0,1.13,0.01,2.27-0.03,3.4c-0.05,1.5-0.51,2.86-1.56,3.98
		c-0.98,1.04-2.21,1.56-3.6,1.72c-1.35,0.16-2.71,0.06-4.06,0.07c-1.56,0.01-3.13,0.01-4.69,0c-0.94,0-1.87-0.02-2.81-0.02
		c-0.83,0-1.66,0.02-2.49,0.02c-1.09,0-2.17-0.05-3.21-0.41c-0.74-0.25-1.37-0.68-1.94-1.21c-0.74-0.7-1.24-1.54-1.51-2.52
		c-0.22-0.78-0.29-1.59-0.29-2.4c0-1.82,0.01-3.64,0.02-5.46c0-1.22,0-2.44,0-3.66c0.01-1.53,0.01-3.06,0.05-4.59
		c0.02-1.14,0.25-2.24,0.85-3.23c0.97-1.6,2.4-2.49,4.24-2.74c1.04-0.14,2.09-0.1,3.13-0.1c1.24,0,2.48,0,3.72,0
		c1.94,0,3.87,0,5.81,0.01c0.93,0,1.86,0,2.79,0.05c1.29,0.07,2.48,0.44,3.49,1.28c1.06,0.88,1.71,2,1.95,3.35
		c0.09,0.49,0.14,0.99,0.15,1.49c0.02,2.35,0.01,4.7,0.01,7.04C33.44,22.28,33.43,22.28,33.43,22.28z M30.06,22.15
		c-0.02,0-0.04,0-0.05,0c0-1.2,0.02-2.4,0-3.6c-0.02-1.21-0.19-2.4-0.82-3.46c-0.6-1.01-1.46-1.71-2.56-2.13
		c-0.9-0.35-1.85-0.43-2.8-0.46c-0.97-0.03-1.94-0.03-2.91-0.04c-1.78,0-3.56-0.06-5.34,0.12c-1.04,0.11-2.01,0.45-2.85,1.09
		c-1.12,0.86-1.74,2.02-1.92,3.4c-0.12,0.92-0.16,1.85-0.18,2.78c-0.03,1.67-0.03,3.34-0.03,5.02c0,0.98,0.02,1.97,0.24,2.94
		c0.18,0.76,0.46,1.47,0.95,2.08c0.78,1,1.81,1.59,3.04,1.86c0.85,0.19,1.71,0.21,2.57,0.22c1.87,0.01,3.75,0.01,5.62-0.01
		c1.04-0.01,2.08-0.04,3.09-0.32c1.17-0.32,2.12-0.96,2.82-1.95c0.7-0.98,0.98-2.11,1.03-3.29C30.02,24.98,30.03,23.56,30.06,22.15z
		"/>
	<path class="st0" d="M28.32,22.14c-0.02,1.35-0.03,2.7-0.08,4.05c-0.03,0.79-0.15,1.56-0.55,2.26c-0.58,1.01-1.48,1.56-2.61,1.65
		c-1.25,0.1-2.52,0.11-3.78,0.14c-0.99,0.02-1.98,0.02-2.97,0c-0.93-0.02-1.86-0.04-2.79-0.14c-1.15-0.12-2.07-0.66-2.65-1.69
		c-0.34-0.61-0.48-1.29-0.5-1.98c-0.04-1.59-0.06-3.18-0.07-4.78c-0.01-0.9,0.01-1.8,0.03-2.69c0.02-0.82,0.06-1.63,0.34-2.41
		c0.43-1.19,1.29-1.89,2.5-2.16c0.91-0.21,1.84-0.19,2.76-0.2c1.69-0.01,3.39-0.02,5.08,0.01c0.81,0.01,1.62,0.06,2.41,0.2
		c1.24,0.22,2.08,0.96,2.51,2.15c0.3,0.82,0.32,1.67,0.32,2.51c0.01,1.03,0,2.05,0,3.08C28.3,22.14,28.31,22.14,28.32,22.14z
		 M25.29,22.22c0.06-2.69-2.17-4.96-4.91-5.02c-2.68-0.05-4.99,2.18-5.06,4.86c-0.07,2.8,2.13,5.07,4.84,5.14
		C22.98,27.29,25.29,24.98,25.29,22.22z M25.51,18.14c0.66,0,1.15-0.48,1.15-1.12c0-0.64-0.5-1.16-1.15-1.16
		c-0.63,0-1.15,0.51-1.16,1.13C24.36,17.64,24.86,18.14,25.51,18.14z"/>
	<path class="st0" d="M23.57,22.22c-0.04,1.88-1.5,3.31-3.35,3.27c-1.8-0.04-3.2-1.54-3.17-3.39c0.04-1.79,1.55-3.22,3.36-3.18
		C22.17,18.96,23.61,20.46,23.57,22.22z"/>
</g>
</svg>
