<?xml version="1.0" encoding="utf-8"?>
<!-- Generator: Adobe Illustrator 24.1.1, SVG Export Plug-In . SVG Version: 6.00 Build 0)  -->
<svg version="1.0" id="Livello_1" xmlns="http://www.w3.org/2000/svg" xmlns:xlink="http://www.w3.org/1999/xlink" x="0px" y="0px"
	 viewBox="0 0 39.1 43" style="enable-background:new 0 0 39.1 43;" xml:space="preserve">
<style type="text/css">
	.st0{fill:#330066;}
</style>
<g>
	<path class="st0" d="M33.1,21c0,1.3,0,2.6,0,3.9c0,1.1,0,2.3,0,3.4c-0.1,1.5-0.5,2.9-1.6,4c-1,1-2.2,1.6-3.6,1.7
		c-1.4,0.2-2.7,0.1-4.1,0.1c-1.6,0-3.1,0-4.7,0c-0.9,0-1.9,0-2.8,0c-0.8,0-1.7,0-2.5,0c-1.1,0-2.2-0.1-3.2-0.4
		c-0.7-0.2-1.4-0.7-1.9-1.2C7.9,31.8,7.5,31,7.2,30c-0.2-0.8-0.3-1.6-0.3-2.4c0-1.8,0-3.6,0-5.5c0-1.2,0-2.4,0-3.7
		c0-1.5,0-3.1,0-4.6c0-1.1,0.3-2.2,0.9-3.2c1-1.6,2.4-2.5,4.2-2.7c1-0.1,2.1-0.1,3.1-0.1c1.2,0,2.5,0,3.7,0c1.9,0,3.9,0,5.8,0
		c0.9,0,1.9,0,2.8,0.1C28.8,7.9,30,8.3,31,9.2c1.1,0.9,1.7,2,2,3.4c0.1,0.5,0.1,1,0.1,1.5C33.1,16.3,33.1,18.7,33.1,21
		C33.1,21,33.1,21,33.1,21z M29.7,20.9C29.7,20.9,29.7,20.9,29.7,20.9c-0.1-1.2,0-2.4-0.1-3.6c0-1.2-0.2-2.4-0.8-3.5
		c-0.6-1-1.5-1.7-2.6-2.1c-0.9-0.3-1.9-0.4-2.8-0.5c-1,0-1.9,0-2.9,0c-1.8,0-3.6-0.1-5.3,0.1c-1,0.1-2,0.4-2.9,1.1
		c-1.1,0.9-1.7,2-1.9,3.4c-0.1,0.9-0.2,1.9-0.2,2.8c0,1.7,0,3.3,0,5c0,1,0,2,0.2,2.9c0.2,0.8,0.5,1.5,0.9,2.1c0.8,1,1.8,1.6,3,1.9
		c0.8,0.2,1.7,0.2,2.6,0.2c1.9,0,3.7,0,5.6,0c1,0,2.1,0,3.1-0.3c1.2-0.3,2.1-1,2.8-1.9c0.7-1,1-2.1,1-3.3
		C29.7,23.7,29.7,22.3,29.7,20.9z"/>
	<path class="st0" d="M28,20.9c0,1.3,0,2.7-0.1,4c0,0.8-0.2,1.6-0.6,2.3c-0.6,1-1.5,1.6-2.6,1.7C23.5,29,22.2,29,21,29c-1,0-2,0-3,0
		c-0.9,0-1.9,0-2.8-0.1c-1.1-0.1-2.1-0.7-2.6-1.7c-0.3-0.6-0.5-1.3-0.5-2c0-1.6-0.1-3.2-0.1-4.8c0-0.9,0-1.8,0-2.7
		c0-0.8,0.1-1.6,0.3-2.4c0.4-1.2,1.3-1.9,2.5-2.2c0.9-0.2,1.8-0.2,2.8-0.2c1.7,0,3.4,0,5.1,0c0.8,0,1.6,0.1,2.4,0.2
		c1.2,0.2,2.1,1,2.5,2.2c0.3,0.8,0.3,1.7,0.3,2.5C28,18.8,28,19.9,28,20.9C28,20.9,28,20.9,28,20.9z M25,21c0.1-2.7-2.2-5-4.9-5
		c-2.7-0.1-5,2.2-5.1,4.9c-0.1,2.8,2.1,5.1,4.8,5.1C22.6,26.1,25,23.7,25,21z M25.2,16.9c0.7,0,1.1-0.5,1.2-1.1
		c0-0.6-0.5-1.2-1.1-1.2c-0.6,0-1.2,0.5-1.2,1.1C24,16.4,24.5,16.9,25.2,16.9z"/>
	<path class="st0" d="M23.2,21c0,1.9-1.5,3.3-3.3,3.3c-1.8,0-3.2-1.5-3.2-3.4c0-1.8,1.5-3.2,3.4-3.2C21.8,17.7,23.3,19.2,23.2,21z"
		/>
</g>
</svg>
