<?xml version="1.0" encoding="utf-8"?>
<!-- Generator: Adobe Illustrator 24.1.1, SVG Export Plug-In . SVG Version: 6.00 Build 0)  -->
<svg version="1.1" id="Livello_1" xmlns="http://www.w3.org/2000/svg" xmlns:xlink="http://www.w3.org/1999/xlink" x="0px" y="0px"
	 viewBox="0 0 165.92 118.44" style="enable-background:new 0 0 165.92 118.44;" xml:space="preserve">
<style type="text/css">
	.st0{fill:#330066;}
</style>
<g>
	<path class="st0" d="M148.89,46c-0.59,0.12-0.63,0.1-0.84-0.32c-0.31,0.48-0.69,0.86-1.26,0.97c-0.73,0.14-1.09-0.03-1.33-0.61
		c-0.03,0.02-0.07,0.04-0.08,0.07c-0.46,0.67-1.12,1.05-1.88,1.24c-0.95,0.23-1.9,0.43-2.86,0.61c-0.55,0.1-1.03-0.05-1.29-0.66
		c-0.21,0.25-0.4,0.48-0.6,0.7c-0.54,0.63-1.24,0.96-2.06,1.02c-0.42,0.03-0.64-0.12-0.82-0.5c-0.27-0.57-0.33-0.6-0.86-0.24
		c-0.58,0.4-1.12,0.85-1.71,1.22c-0.39,0.24-0.83,0.44-1.27,0.57c-0.35,0.1-0.73,0.07-1.16,0.1c-0.1,0.23-0.24,0.54-0.38,0.85
		c-0.18,0.38-0.45,0.67-0.84,0.83c-0.44,0.19-0.78,0.09-1.11-0.34c-0.88,1.04-2.14,1.39-3.35,1.8c-0.17,0.06-0.35,0.09-0.52,0.11
		c-0.47,0.07-0.69-0.11-0.68-0.57c0.02-0.55-0.22-1-0.53-1.41c-0.21-0.28-0.29-0.29-0.5,0.01c-0.31,0.46-0.59,0.94-0.87,1.41
		c-0.55,0.92-1.07,1.85-1.65,2.75c-0.46,0.71-1.13,1.18-1.96,1.41c-1,0.27-1.72-0.04-2.17-0.98c-0.07-0.14-0.13-0.29-0.22-0.48
		c-0.1,0.14-0.17,0.27-0.26,0.38c-0.52,0.71-1.03,1.43-1.55,2.13c-0.38,0.51-0.88,0.86-1.48,1.07c-0.16,0.06-0.35,0.12-0.43-0.1
		c-0.08-0.19,0.08-0.27,0.21-0.38c0.51-0.42,1.04-0.82,1.52-1.28c0.46-0.45,0.4-1.39-0.07-1.81c-0.04-0.04-0.18-0.04-0.23,0
		c-0.17,0.16-0.33,0.33-0.48,0.51c-0.75,0.91-1.46,1.85-2.25,2.73c-0.42,0.47-0.92,0.88-1.44,1.24c-0.86,0.58-1.57,0.24-1.76-0.78
		c-0.01-0.07-0.03-0.14-0.05-0.28c-0.17,0.25-0.31,0.47-0.47,0.67c-0.31,0.4-0.62,0.8-0.97,1.17c-0.19,0.2-0.44,0.35-0.68,0.48
		c-0.52,0.28-1.05,0.16-1.45-0.28c-0.09-0.1-0.17-0.19-0.29-0.32c-0.16,0.18-0.32,0.32-0.44,0.49c-0.53,0.77-1.04,1.56-1.58,2.33
		c-0.24,0.34-0.5,0.68-0.79,0.99c-0.6,0.62-1.2,0.51-1.53-0.28c-0.16-0.39-0.24-0.82-0.36-1.24c-0.03-0.1-0.04-0.21-0.07-0.4
		c-0.18,0.29-0.33,0.5-0.46,0.72c-0.67,1.11-1.34,2.24-2.03,3.34c-0.21,0.33-0.47,0.63-0.75,0.91c-0.18,0.18-0.41,0.33-0.65,0.42
		c-0.74,0.27-1.44-0.17-1.5-0.95c-0.03-0.4,0.03-0.8,0.04-1.2c0.02-0.57,0.07-1.14,0.04-1.71c-0.02-0.56-0.28-0.84-0.83-0.99
		c-0.21-0.06-0.42-0.08-0.63-0.14c-0.35-0.1-0.69-0.21-1.02-0.32c0,0.41,0.01,0.9-0.02,1.38c-0.11,2.11-0.77,4.06-1.82,5.88
		c-0.52,0.89-1.12,1.73-1.74,2.54c-0.29,0.38-0.7,0.71-1.11,0.98c-0.71,0.47-1.36,0.24-1.67-0.55c-0.14-0.35-0.23-0.71-0.33-1.04
		c0.01-0.02-0.01,0.01-0.02,0.04c-0.42,3.17-1.36,6.19-2.51,9.16c-0.57,1.46-1.18,2.9-1.98,4.25c-0.2,0.35-0.44,0.67-0.69,0.99
		c-0.13,0.17-0.3,0.31-0.48,0.43c-0.4,0.27-0.84,0.18-1-0.26c-0.18-0.52-0.32-1.08-0.36-1.63c-0.15-1.99,0.02-3.96,0.26-5.93
		c0.94-7.98,2.96-15.68,5.85-23.17c1.97-5.1,4.24-10.07,7.02-14.79c1.25-2.12,2.59-4.17,4.25-6c0.73-0.8,1.51-1.57,2.49-2.08
		c0.3-0.16,0.64-0.27,0.97-0.34c0.67-0.13,1.22,0.2,1.49,0.83c0.25,0.6,0.28,1.24,0.24,1.88c-0.1,1.6-0.53,3.13-1,4.66
		c-1.14,3.65-2.59,7.19-4.14,10.69c-1.36,3.09-2.78,6.15-4.43,9.1c-0.72,1.28-1.5,2.51-2.57,3.53c-0.06,0.06-0.12,0.14-0.19,0.16
		c-0.09,0.02-0.21,0-0.27-0.05c-0.05-0.04-0.05-0.17-0.04-0.25c0-0.05,0.06-0.09,0.1-0.13c1.15-1.07,1.97-2.38,2.7-3.75
		c3.32-6.25,6.18-12.7,8.38-19.44c0.47-1.43,0.87-2.89,0.97-4.4c0.03-0.44-0.02-0.88-0.05-1.31c-0.01-0.15-0.06-0.29-0.12-0.43
		c-0.22-0.54-0.61-0.72-1.18-0.57c-0.66,0.17-1.2,0.56-1.71,0.99c-1.4,1.18-2.51,2.62-3.54,4.12c-1.95,2.83-3.59,5.85-5.09,8.93
		c-3.08,6.35-5.59,12.91-7.36,19.74c-1.27,4.89-2.2,9.84-2.54,14.89c-0.09,1.27-0.13,2.54,0.07,3.81c0.03,0.21,0.09,0.42,0.17,0.62
		c0.1,0.28,0.25,0.32,0.46,0.12c0.25-0.24,0.5-0.5,0.66-0.79c0.49-0.86,0.98-1.73,1.38-2.64c1.34-3,2.4-6.1,3.04-9.33
		c0.42-2.12,0.51-4.27,0.58-6.42c0.03-0.91,0.07-1.81,0.11-2.72c0-0.08-0.01-0.18,0.03-0.25c0.06-0.09,0.17-0.21,0.24-0.2
		c0.08,0.01,0.21,0.14,0.21,0.23c0.02,0.31,0,0.62,0,0.93c0,1.91-0.01,3.81,0.03,5.72c0.01,0.56,0.16,1.13,0.25,1.69
		c0.02,0.13,0.1,0.26,0.16,0.38c0.19,0.33,0.45,0.43,0.78,0.22c0.34-0.22,0.68-0.47,0.96-0.77c0.91-0.96,1.59-2.09,2.18-3.26
		c1.02-2.02,1.57-4.14,1.42-6.42c-0.03-0.39-0.09-0.78-0.11-1.17c0-0.11,0.1-0.22,0.16-0.34c0.11,0.07,0.24,0.11,0.32,0.21
		c0.09,0.11,0.14,0.27,0.19,0.41c0.17,0.48,0.52,0.71,1.02,0.76c0.19,0.02,0.39,0.07,0.58,0.11c0.86,0.21,1.29,0.66,1.32,1.54
		c0.03,0.66-0.05,1.32-0.08,1.99c-0.01,0.29-0.04,0.58,0,0.87c0.06,0.48,0.49,0.71,0.91,0.48c0.26-0.14,0.51-0.33,0.68-0.57
		c0.53-0.76,1.03-1.54,1.53-2.32c0.4-0.64,0.78-1.3,1.17-1.95c0.11-0.18,0.22-0.36,0.37-0.49c0.11-0.1,0.3-0.19,0.43-0.16
		c0.11,0.03,0.22,0.21,0.26,0.35c0.07,0.25,0.07,0.52,0.14,0.77c0.1,0.36,0.21,0.72,0.37,1.06c0.14,0.3,0.32,0.33,0.55,0.1
		c0.3-0.32,0.59-0.66,0.84-1.01c0.5-0.71,0.96-1.45,1.46-2.17c0.16-0.23,0.35-0.44,0.55-0.63c0.31-0.29,0.59-0.27,0.89,0.03
		c0.59,0.6,0.97,0.64,1.57,0.02c0.48-0.49,0.87-1.08,1.29-1.62c0.14-0.18,0.25-0.4,0.41-0.57c0.09-0.09,0.26-0.17,0.38-0.14
		c0.09,0.02,0.16,0.2,0.19,0.32c0.07,0.32,0.08,0.65,0.18,0.96c0.11,0.38,0.41,0.5,0.72,0.28c0.54-0.38,1.09-0.77,1.53-1.26
		c0.73-0.79,1.37-1.66,2.06-2.49c0.22-0.27,0.43-0.54,0.68-0.78c0.37-0.35,0.71-0.3,1.02,0.11c0.11,0.15,0.2,0.31,0.28,0.48
		c0.07,0.17,0.11,0.35,0.19,0.58c0.33-0.49,0.64-0.96,0.94-1.43c0.03-0.04,0.02-0.13,0-0.19c-0.92-3.45-0.88-6.92-0.24-10.41
		c0.08-0.45,0.16-0.9,0.25-1.4c-0.41,0.19-0.77,0.37-1.14,0.53c-2.08,0.92-4.16,1.86-6.25,2.75c-2.62,1.12-5.26,2.19-7.88,3.3
		c-0.47,0.2-0.92,0.46-1.37,0.71c-0.19,0.11-0.34,0.3-0.53,0.41c-0.1,0.06-0.27,0.1-0.36,0.05c-0.16-0.09-0.11-0.26,0.01-0.36
		c0.39-0.29,0.75-0.63,1.19-0.83c1.65-0.75,3.33-1.46,5-2.17c1.81-0.77,3.64-1.49,5.45-2.27c1.75-0.76,3.48-1.58,5.23-2.34
		c0.54-0.24,0.86-0.53,0.98-1.16c0.17-0.88,0.48-1.73,0.77-2.58c0.12-0.34,0.33-0.66,0.54-0.94c0.43-0.57,1.02-0.74,1.68-0.46
		c0.98,0.41,1.78,1.02,2.05,2.16c0.59-0.29,1.17-0.57,1.76-0.84c1.93-0.89,3.86-1.79,5.8-2.66c1.7-0.76,3.42-1.5,5.13-2.22
		c0.78-0.33,1.57-0.6,2.37-0.89c0.55-0.2,1.09-0.15,1.6,0.12c0.28,0.15,0.56,0.31,0.83,0.47c0.14,0.08,0.21,0.22,0.09,0.35
		c-0.06,0.07-0.24,0.09-0.34,0.05c-0.2-0.08-0.38-0.2-0.56-0.32c-0.52-0.32-1.06-0.4-1.64-0.18c-1,0.39-2.02,0.75-3.01,1.17
		c-1.83,0.78-3.65,1.57-5.46,2.39c-1.71,0.77-3.4,1.58-5.1,2.37c-0.42,0.2-0.85,0.4-1.26,0.62c-0.09,0.05-0.19,0.17-0.19,0.26
		c-0.03,1.28-0.3,2.53-0.59,3.77c-0.85,3.61-2.09,7.08-4,10.28c-0.22,0.37-0.27,0.67-0.06,1.03c0.03,0.06,0.05,0.12,0.08,0.18
		c0.41,0.85,0.9,1.05,1.81,0.76c0.8-0.26,1.35-0.8,1.77-1.49c0.62-1.02,1.19-2.06,1.79-3.09c0.18-0.31,0.39-0.62,0.62-0.9
		c0.35-0.41,0.71-0.4,1.06,0.01c0.46,0.54,0.77,1.15,0.71,1.9c0.09,0,0.15,0.01,0.21,0c0.98-0.24,1.92-0.58,2.78-1.1
		c0.55-0.33,0.91-0.83,1.1-1.44c0.17-0.54,0.5-0.97,0.91-1.33c0.26-0.22,0.6-0.37,0.98-0.26c0.32,0.09,0.51,0.27,0.53,0.6
		c0.01,0.19,0.12,0.23,0.27,0.25c0.57,0.07,1.08-0.12,1.55-0.41c0.6-0.38,1.16-0.82,1.75-1.22c0.21-0.15,0.44-0.29,0.68-0.39
		c0.4-0.17,0.68-0.06,0.91,0.31c0.03,0.06,0.07,0.11,0.1,0.17c0.22,0.47,0.26,0.49,0.78,0.38c0.56-0.11,1.03-0.38,1.4-0.82
		c0.21-0.25,0.41-0.51,0.64-0.75c0.31-0.32,0.59-0.26,0.74,0.15c0.11,0.3,0.31,0.45,0.62,0.41c0.46-0.06,0.93-0.11,1.38-0.22
		c0.79-0.2,1.57-0.42,2.34-0.7c0.29-0.1,0.54-0.37,0.75-0.61c0.32-0.38,0.59-0.8,0.85-1.22c0.4-0.62,1.01-0.81,1.68-0.88
		c0.32-0.04,0.65-0.04,0.98-0.05c0.16-0.01,0.36-0.02,0.38,0.19c0.01,0.11-0.11,0.24-0.14,0.31c-0.01,0.42-0.03,0.81-0.04,1.26
		c0.19-0.19,0.35-0.35,0.52-0.51c0.09-0.08,0.17-0.18,0.28-0.23c0.09-0.04,0.23-0.05,0.3-0.01c0.07,0.05,0.12,0.19,0.11,0.28
		c-0.01,0.13-0.08,0.27-0.15,0.39c-1.1,1.87-2.18,3.76-3.33,5.6c-0.9,1.43-1.9,2.79-2.85,4.18c-0.04,0.06-0.08,0.12-0.13,0.21
		c0.37-0.01,0.72-0.04,1.06-0.04c0.81-0.01,1.61,0.08,2.37,0.36c1,0.37,1.48,1.03,1.4,1.89c-0.09,0.94-0.79,1.66-1.78,1.83
		c-0.26,0.04-0.52,0.07-0.78,0.07c-0.1,0-0.25-0.11-0.28-0.19c-0.05-0.16,0.07-0.25,0.24-0.27c0.29-0.03,0.58-0.05,0.86-0.11
		c0.67-0.13,1.08-0.55,1.23-1.2c0.12-0.51-0.02-0.97-0.47-1.25c-0.34-0.21-0.72-0.37-1.1-0.46c-1-0.26-2.02-0.24-3.04-0.08
		c-0.11,0.02-0.23,0.12-0.3,0.22c-1.74,2.33-3.58,4.57-5.54,6.72c-3.27,3.59-6.74,6.97-10.63,9.9c-1.96,1.47-4.02,2.78-6.25,3.79
		c-1.6,0.72-3.26,1.3-5.03,1.41c-0.75,0.05-1.5,0-2.21-0.27c-1.22-0.47-1.72-1.45-1.38-2.72c0.23-0.87,0.72-1.6,1.28-2.29
		c1.16-1.44,2.57-2.62,4.03-3.73c3.09-2.36,6.38-4.43,9.73-6.39c2.67-1.56,5.38-3.03,8.18-4.35c2.06-0.97,4.17-1.84,6.38-2.42
		c0.29-0.08,0.58-0.17,0.88-0.19c0.36-0.03,0.56-0.21,0.76-0.49c2.07-2.86,4-5.8,5.74-8.87C148.71,46.23,148.79,46.14,148.89,46z
		 M142.19,56.17c-0.15,0.02-0.2,0.02-0.25,0.04c-1.22,0.38-2.47,0.71-3.67,1.17c-2.9,1.11-5.66,2.52-8.36,4.04
		c-2.12,1.19-4.22,2.42-6.29,3.69c-2.74,1.68-5.41,3.49-7.87,5.57c-1.15,0.97-2.25,1.99-3.02,3.3c-0.27,0.46-0.49,0.98-0.61,1.49
		c-0.19,0.79,0.16,1.43,0.9,1.76c0.34,0.15,0.73,0.25,1.1,0.31c0.89,0.14,1.77,0.01,2.65-0.18c1.74-0.38,3.35-1.09,4.9-1.92
		c2.72-1.44,5.16-3.28,7.49-5.28c4.32-3.71,8.19-7.84,11.73-12.29C141.31,57.33,141.72,56.78,142.19,56.17z M120.74,40.58
		c-0.04,0.01-0.07,0.03-0.1,0.04c-1.12,0.55-2.21,1.14-3.36,1.64c-0.65,0.28-0.95,0.66-1.07,1.37c-0.5,2.94-0.84,5.87-0.34,8.84
		c0.1,0.6,0.22,1.21,0.33,1.85C117.94,52.29,121.13,42.57,120.74,40.58z M116.55,42.07c0.06-0.01,0.08-0.01,0.09-0.02
		c1.31-0.64,2.62-1.29,3.93-1.93c0.17-0.08,0.2-0.18,0.16-0.36c-0.2-0.85-0.84-1.28-1.54-1.64c-0.61-0.31-1.03-0.17-1.42,0.4
		c-0.1,0.15-0.19,0.3-0.27,0.46C117.04,39.97,116.8,41,116.55,42.07z M148.16,44.24c-0.35,0.08-0.83,0.13-1.26,0.29
		c-0.52,0.2-0.96,0.52-0.97,1.17c-0.01,0.4,0.1,0.51,0.49,0.5c0.59-0.01,0.98-0.34,1.24-0.82C147.86,45.01,148,44.62,148.16,44.24z
		 M129.83,49.41c-0.42,0.3-0.61,0.74-0.79,1.18c-0.07,0.16-0.08,0.36-0.07,0.54c0.03,0.28,0.15,0.35,0.42,0.27
		c0.43-0.12,0.6-0.47,0.77-0.83c0.32-0.7,0.32-0.7-0.29-1.15C129.86,49.42,129.85,49.42,129.83,49.41z"/>
	<path class="st0" d="M41.2,62.14c0.49-0.78,0.95-1.54,1.43-2.29c1.12-1.74,2.28-3.46,3.65-5.02c0.3-0.33,0.64-0.63,0.98-0.92
		c0.12-0.1,0.3-0.16,0.46-0.18c0.24-0.04,0.45,0.17,0.45,0.46c0,0.31-0.01,0.65-0.11,0.94c-0.43,1.21-0.82,2.44-1.36,3.59
		c-2.8,6.04-6.54,11.45-11.07,16.34c-0.14,0.15-0.27,0.34-0.35,0.53c-1.22,2.91-2.44,5.82-3.66,8.74c-0.02,0.04-0.03,0.08-0.03,0.07
		c0.26,0.03,0.54,0.01,0.77,0.11c0.34,0.15,0.52,0.49,0.62,0.83c0.27,0.94,0.52,1.88,0.74,2.82c0.44,1.95,0.85,3.9,1.65,5.74
		c1,2.28,2.36,4.32,4.32,5.9c1.46,1.17,2.62,1.17,4.15,0.1c0.18-0.13,0.35-0.29,0.55-0.39c0.08-0.04,0.26-0.03,0.31,0.03
		c0.05,0.06,0.04,0.26-0.02,0.31c-0.79,0.65-1.63,1.21-2.69,1.3c-0.74,0.07-1.4-0.18-2.02-0.57c-1.19-0.75-2.11-1.78-2.96-2.89
		c-1.58-2.07-2.57-4.4-3.18-6.91c-0.34-1.43-0.64-2.87-1-4.3c-0.12-0.47-0.3-0.92-0.52-1.36c-0.16-0.33-0.37-0.34-0.66-0.09
		c-0.53,0.46-0.84,1.08-1.13,1.69c-2.59,5.52-5.17,11.05-7.75,16.58c-0.08,0.17-0.13,0.46-0.42,0.33c-0.28-0.13-0.1-0.36-0.02-0.53
		c2.44-5.24,4.86-10.49,7.33-15.72c1.7-3.59,3.23-7.24,4.71-10.91c0.01-0.03,0.02-0.05,0.05-0.16c-0.13,0.12-0.2,0.19-0.27,0.26
		c-1.59,1.59-3.23,3.13-5.09,4.4c-0.68,0.46-1.42,0.83-2.15,1.21c-0.28,0.14-0.6,0.21-0.91,0.26c-0.86,0.12-1.45-0.34-1.59-1.2
		c-0.13-0.84-0.01-1.66,0.15-2.48c0.45-2.2,1.25-4.3,2.14-6.35c1.21-2.8,2.61-5.5,4.35-8.01c0.94-1.35,1.99-2.61,3.35-3.56
		c0.92-0.65,1.93-1.1,3.08-1.06c1.56,0.04,2.7,0.83,3.53,2.12C41.09,61.96,41.14,62.04,41.2,62.14z M26.48,81.89
		c0.83-0.31,1.57-0.77,2.29-1.27c2.26-1.58,4.23-3.49,6.12-5.47c0.09-0.1,0.15-0.24,0.2-0.36c1.01-2.29,1.97-4.6,3.04-6.86
		c0.81-1.72,1.77-3.37,2.65-5.05c0.05-0.1,0.09-0.26,0.05-0.35c-0.57-1.38-2.07-2.33-3.55-2.27c-0.97,0.04-1.81,0.44-2.59,0.99
		c-1.31,0.92-2.32,2.12-3.21,3.42c-2.34,3.41-4.12,7.11-5.51,11c-0.49,1.36-0.9,2.74-1.06,4.18c-0.06,0.55-0.1,1.1,0.1,1.64
		c0.12,0.32,0.34,0.5,0.68,0.5C25.95,81.97,26.21,81.92,26.48,81.89z M42.02,66.11c0.05-0.06,0.07-0.07,0.09-0.1
		c1.94-3,3.69-6.09,4.99-9.42c0.24-0.62,0.4-1.28,0.59-1.93c0.04-0.13,0.02-0.28,0.03-0.42c-0.03-0.01-0.06-0.03-0.09-0.04
		c-0.31,0.3-0.65,0.59-0.93,0.92c-1.99,2.3-3.6,4.86-5.15,7.45c-0.05,0.09-0.04,0.23-0.02,0.34c0.1,0.49,0.25,0.98,0.33,1.48
		C41.93,64.94,41.96,65.51,42.02,66.11z M41.12,63.25c-2.01,3.46-3.64,7.01-5.15,10.68c0.06-0.03,0.09-0.04,0.1-0.06
		c1.98-2.19,3.79-4.51,5.44-6.96c0.04-0.05,0.05-0.14,0.05-0.2c-0.01-0.21-0.03-0.43-0.05-0.64C41.46,65.14,41.4,64.22,41.12,63.25z
		"/>
	<path class="st0" d="M45.98,84.38c-0.44,2.22-1.32,4.25-2.27,6.24c-0.18,0.38-0.41,0.74-0.63,1.1c-0.09,0.15-0.22,0.28-0.35,0.4
		c-0.38,0.33-0.82,0.27-1.01-0.19c-0.19-0.47-0.34-0.98-0.4-1.48c-0.3-2.31-0.28-4.61,0.25-6.89c0.21-0.89,0.52-1.75,1.03-2.51
		c0.23-0.35,0.51-0.68,0.83-0.94c0.49-0.4,0.95-0.23,1.14,0.37c0.02,0.07,0.04,0.14,0.07,0.21c0.41-0.2,0.61-0.15,0.86,0.24
		c0.41,0.66,0.53,1.39,0.56,2.15c0.01,0.26,0,0.52-0.01,0.81c0.39,0.09,0.77,0,1.09-0.22c0.4-0.28,0.78-0.61,1.14-0.95
		c0.88-0.83,1.73-1.68,2.61-2.5c0.24-0.22,0.53-0.39,0.81-0.55c0.57-0.33,1-0.19,1.3,0.39c0.1,0.19,0.19,0.39,0.29,0.58
		c0.24,0.44,0.53,0.58,0.98,0.37c0.55-0.25,1.08-0.56,1.59-0.88c1.34-0.85,2.66-1.74,4.01-2.59c0.33-0.21,0.73-0.33,1.11-0.46
		c0.31-0.1,0.6-0.01,0.87,0.19c0.38,0.28,0.45,0.28,0.84,0c0.52-0.37,1.02-0.76,1.53-1.14c0.55-0.39,1.13-0.57,1.82-0.42
		c0.27,0.06,0.61-0.08,0.88-0.2c0.53-0.24,1.07-0.4,1.66-0.3c0.68,0.11,1.24-0.22,1.79-0.54c0.67-0.39,1.31-0.86,2.03-1.14
		c1.31-0.53,2.66-0.96,4-1.41c0.22-0.07,0.48-0.07,0.72-0.05c0.45,0.04,0.67,0.35,0.52,0.76c-0.13,0.35-0.32,0.7-0.54,1.01
		c-0.84,1.19-1.89,2.2-2.94,3.2c-0.6,0.57-1.22,1.13-1.84,1.7c-0.05,0.05-0.11,0.13-0.18,0.13c-0.1,0.01-0.23,0-0.29-0.06
		c-0.05-0.05-0.04-0.2,0-0.27c0.05-0.09,0.15-0.16,0.23-0.24c1.41-1.29,2.84-2.56,4.07-4.03c0.31-0.37,0.58-0.78,0.86-1.18
		c0.1-0.14,0.14-0.32,0.21-0.48c-0.02-0.03-0.03-0.07-0.05-0.1c-0.29,0.03-0.59,0.03-0.86,0.11c-0.46,0.13-0.9,0.31-1.35,0.47
		c-0.69,0.24-1.4,0.44-2.06,0.74c-0.83,0.39-1.62,0.86-2.41,1.33c-0.69,0.41-1.41,0.64-2.22,0.51c-0.46-0.08-0.86,0.15-1.26,0.34
		c-0.41,0.2-0.83,0.28-1.28,0.16c-0.35-0.1-0.68,0-0.96,0.2c-0.53,0.36-1.03,0.74-1.55,1.11c-0.14,0.1-0.27,0.2-0.41,0.29
		c-0.42,0.27-0.74,0.28-1.14-0.03c-0.28-0.22-0.56-0.27-0.86-0.11c-0.57,0.29-1.16,0.57-1.7,0.92c-1.25,0.8-2.46,1.63-3.7,2.44
		c-0.28,0.18-0.59,0.33-0.9,0.46c-0.69,0.29-1.25,0.1-1.63-0.54c-0.1-0.18-0.19-0.36-0.28-0.55c-0.2-0.41-0.33-0.48-0.71-0.23
		c-0.48,0.31-0.94,0.65-1.36,1.04c-0.65,0.6-1.25,1.24-1.87,1.86c-0.22,0.22-0.44,0.43-0.67,0.64
		C47.42,84.15,46.79,84.49,45.98,84.38z M44.21,83.52c-0.01,0.04-0.05,0.12-0.08,0.21c-0.24,0.58-0.48,1.16-0.73,1.74
		c-0.07,0.16-0.19,0.28-0.34,0.17c-0.08-0.05-0.1-0.23-0.1-0.35c0-0.09,0.08-0.19,0.12-0.28c0.26-0.67,0.53-1.34,0.79-2.01
		c0.04-0.1,0.03-0.22,0.05-0.33c0.05-0.33,0.06-0.67,0.17-0.98c0.13-0.38,0.09-0.74,0-1.1c-0.05-0.19-0.18-0.25-0.33-0.12
		c-0.2,0.18-0.41,0.36-0.57,0.57c-0.59,0.8-0.93,1.71-1.16,2.66c-0.47,1.96-0.51,3.95-0.33,5.94c0.06,0.67,0.23,1.32,0.38,1.98
		c0.07,0.29,0.22,0.32,0.4,0.08c0.23-0.29,0.46-0.6,0.61-0.94c0.63-1.43,1.25-2.86,1.82-4.32c0.24-0.62,0.37-1.29,0.53-1.95
		c0.02-0.07-0.02-0.21-0.08-0.24C44.99,83.99,44.6,83.76,44.21,83.52z M45.56,83.78c0.04-0.99-0.03-1.89-0.56-2.73
		c-0.5,0.53-0.39,1.18-0.54,1.75c-0.01,0.04,0.03,0.11,0.06,0.15C44.75,83.35,45.1,83.59,45.56,83.78z"/>
	<path class="st0" d="M66.03,66.32c0.05,0,0.09-0.01,0.14-0.01c1.58-0.01,2.93,0.52,3.99,1.73c0.11,0.12,0.16,0.24,0.04,0.37
		c-0.12,0.13-0.25,0.08-0.37-0.02c-0.14-0.13-0.27-0.25-0.41-0.39c-0.71-0.71-1.57-1.1-2.58-1.15c-0.25-0.01-0.51-0.02-0.75-0.07
		c-0.08-0.02-0.18-0.13-0.21-0.22c-0.03-0.09,0.02-0.2,0.03-0.3C65.94,66.28,65.99,66.3,66.03,66.32z"/>
</g>
</svg>
