<?xml version="1.0" encoding="utf-8"?>
<!-- Generator: Adobe Illustrator 24.1.1, SVG Export Plug-In . SVG Version: 6.00 Build 0)  -->
<svg version="1.1" id="Livello_1" xmlns="http://www.w3.org/2000/svg" xmlns:xlink="http://www.w3.org/1999/xlink" x="0px" y="0px"
	 viewBox="0 0 137.94 52.29" style="enable-background:new 0 0 137.94 52.29;" xml:space="preserve">
<style type="text/css">
	.st0{fill:#FFFFF0;}
</style>
<g>
	<g>
		<path class="st0" d="M19.73,19.23c0.88-0.02,1.75-0.03,2.63-0.05l-6.5,17.29H13.3c-2.99-11.55-5.97-23.1-8.96-34.65
			c3.41,9.9,6.83,19.8,10.24,29.7C16.3,27.43,18.02,23.33,19.73,19.23z"/>
		<path class="st0" d="M25.2,36.5c-1.21,0.01-3.01-0.03-5.52-0.22c1.88-5.53,3.76-11.06,5.63-16.59c1.52,0.02,3.04,0.03,4.57,0.06
			c2.12,0.03,4.23,0.07,6.33,0.11c0.44,1.22,0.9,2.47,1.39,3.74c0.62,1.6,1.26,3.14,1.9,4.63c-2.84-0.41-5.72-0.81-8.64-1.19
			c-2.05-0.27-4.09-0.52-6.11-0.76c1.56-0.1,3.13-0.19,4.71-0.28c2.04-0.11,4.06-0.2,6.05-0.28c-0.42-1.07-0.84-2.14-1.25-3.21
			c-2.36,0-4.72,0-7.08,0c-0.3,1-3.36,9.67-3.68,11.13c2.63,0.46,5.26,0.91,7.89,1.37c0,0,0.18,0.03,0.18,0.03
			c0.25,0.04,8.43,1.19,8.69,1.23C32.79,36.41,27.2,36.48,25.2,36.5z"/>
		<path class="st0" d="M41.84,19.27c1.03,5.73,2.05,11.46,3.08,17.19c-1.03,0.01-2.05,0.02-3.08,0.04V19.27z M45.06,23.08
			c-0.78,0.57-1.56,1.13-2.34,1.7c-0.21,0.84-0.42,1.68-0.63,2.52c0.09-1.51,0.19-3.02,0.28-4.52c0.79-0.5,1.58-1,2.38-1.49
			c1.64-0.02,3.28-0.03,4.92-0.05C48.13,21.85,46.59,22.47,45.06,23.08z"/>
		<path class="st0" d="M53.13,19.16c0,5.76,0,11.53,0,17.29h-3.4c0.65-3.54,1.31-7.09,1.96-10.63
			C52.17,23.59,52.65,21.38,53.13,19.16z M59.09,22.8c-1.21-0.06-2.42-0.11-3.63-0.17c-0.78,0.96-1.55,1.91-2.33,2.87
			c-0.04-0.8-0.08-1.6-0.11-2.4c0.62-1.11,1.24-2.23,1.85-3.34c2.25,0.12,4.5,0.24,6.75,0.37c0.67,5.44,1.33,10.88,2,16.32h-3.4
			C59.85,31.9,59.47,27.35,59.09,22.8z"/>
		<path class="st0" d="M67.4,12.14h1.5v3.4L67.4,12.14z M68.89,19.07v17.29h-3.4L68.89,19.07z"/>
		<path class="st0" d="M97.14,19.92c-2.92,0.09-5.84,0.18-8.76,0.27c-0.93,0.76-1.86,1.52-2.79,2.29c1.16-0.38,2.32-0.76,3.49-1.14
			c1.09,0.08,2.22,0.14,3.39,0.17c0.95,0.03,1.86,0.04,2.76,0.03c0.45,2.01,0.89,4.02,1.34,6.02c-2.89,0.22-5.78,0.44-8.67,0.66
			c-0.18,1.36-0.95,6.78-1.15,8.09c3.33,0,12.78-0.02,14.18-0.05C100.38,33.93,97.87,23,97.14,19.92z M89.49,34.18
			c0.21-1.53,0.43-3.06,0.64-4.6c2.18-0.55,4.36-1.1,6.54-1.65c0.3,1.32,0.6,2.66,0.89,4.02c0.14,0.65,0.28,1.29,0.41,1.93
			C96.7,34.03,91.05,34.23,89.49,34.18z"/>
		<path class="st0" d="M38.92,21.72"/>
		<path class="st0" d="M29.38,32.88"/>
		<g>
			<path class="st0" d="M67.09,44.57c1.77-0.52,3.59-1.03,5.45-1.53c2-0.54,3.97-1.04,5.9-1.5c0.1-1.37,0.2-2.74,0.31-4.11
				c-0.01-5.85-0.03-11.71-0.04-17.56c1.03-0.85,2.06-1.69,3.09-2.54c-0.03,6.53-0.05,13.06-0.08,19.58
				c-0.16,2.32-0.32,4.65-0.48,6.97C76.53,44.11,71.81,44.34,67.09,44.57z"/>
			<path class="st0" d="M81.84,21.92c-2.82-0.25-5.63-0.5-8.45-0.74c-0.65-0.44-1.31-0.87-1.96-1.31h13
				C83.57,20.56,82.7,21.24,81.84,21.92z"/>
		</g>
		<path class="st0" d="M102.97,36.35c2.29-2.3,4.65-4.81,7.05-7.53c1.89-2.15,3.67-4.28,5.32-6.37c-2.02-0.49-4.1-0.97-6.23-1.42
			c-2.1-0.45-4.15-0.85-6.16-1.22c2.42,0.02,4.89,0.07,7.41,0.16c2.44,0.08,4.83,0.19,7.16,0.33c0.02,1.17,0.03,2.34,0.05,3.5
			c-1.54,1.79-3.08,3.58-4.61,5.37c-1.42,1.56-2.84,3.11-4.26,4.67c1.28-0.1,7.27-0.56,8.98-0.7c-0.03,0.58-0.21,2.75-0.26,3.26
			C112.6,36.38,107.79,36.37,102.97,36.35z"/>
		<path class="st0" d="M119.63,36.31c2.29-2.3,4.65-4.81,7.05-7.53c1.89-2.15,3.67-4.28,5.32-6.37c-2.02-0.49-4.1-0.97-6.23-1.42
			c-2.1-0.45-4.15-0.85-6.16-1.22c2.42,0.02,4.89,0.07,7.41,0.16c2.44,0.08,4.83,0.19,7.16,0.33c0.02,1.17,0.03,2.34,0.05,3.5
			c-1.54,1.79-3.08,3.58-4.61,5.37c-1.42,1.56-2.84,3.11-4.26,4.67c1.28-0.1,7.27-0.56,8.98-0.7c-0.03,0.58-0.21,2.75-0.26,3.26
			C129.26,36.34,124.45,36.33,119.63,36.31z"/>
	</g>
</g>
</svg>
