<?xml version="1.0" encoding="utf-8"?>
<!-- Generator: Adobe Illustrator 24.1.1, SVG Export Plug-In . SVG Version: 6.00 Build 0)  -->
<svg version="1.1" id="Livello_1" xmlns="http://www.w3.org/2000/svg" xmlns:xlink="http://www.w3.org/1999/xlink" x="0px" y="0px"
	 viewBox="0 0 137.9 52.3" style="enable-background:new 0 0 137.9 52.3;" xml:space="preserve">
<style type="text/css">
	.st0{fill:#330066;}
</style>
<g>
	<g>
		<path class="st0" d="M19.7,19.2c0.9,0,1.8,0,2.6,0l-6.5,17.3h-2.6c-3-11.5-6-23.1-9-34.7c3.4,9.9,6.8,19.8,10.2,29.7
			C16.3,27.4,18,23.3,19.7,19.2z"/>
		<path class="st0" d="M25.2,36.5c-1.2,0-3,0-5.5-0.2c1.9-5.5,3.8-11.1,5.6-16.6c1.5,0,3,0,4.6,0.1c2.1,0,4.2,0.1,6.3,0.1
			c0.4,1.2,0.9,2.5,1.4,3.7c0.6,1.6,1.3,3.1,1.9,4.6c-2.8-0.4-5.7-0.8-8.6-1.2c-2-0.3-4.1-0.5-6.1-0.8c1.6-0.1,3.1-0.2,4.7-0.3
			c2-0.1,4.1-0.2,6-0.3c-0.4-1.1-0.8-2.1-1.3-3.2c-2.4,0-4.7,0-7.1,0c-0.3,1-3.4,9.7-3.7,11.1c2.6,0.5,5.3,0.9,7.9,1.4l0.2,0
			c0.3,0,8.4,1.2,8.7,1.2C32.8,36.4,27.2,36.5,25.2,36.5z"/>
		<path class="st0" d="M41.8,19.3c1,5.7,2,11.5,3.1,17.2c-1,0-2,0-3.1,0C41.8,36.5,41.8,19.3,41.8,19.3z M45.1,23.1
			c-0.8,0.6-1.6,1.1-2.3,1.7c-0.2,0.8-0.4,1.7-0.6,2.5c0.1-1.5,0.2-3,0.3-4.5c0.8-0.5,1.6-1,2.4-1.5c1.6,0,3.3,0,4.9,0
			C48.1,21.9,46.6,22.5,45.1,23.1z"/>
		<path class="st0" d="M53.1,19.2c0,5.8,0,11.5,0,17.3h-3.4c0.7-3.5,1.3-7.1,2-10.6C52.2,23.6,52.7,21.4,53.1,19.2z M59.1,22.8
			c-1.2-0.1-2.4-0.1-3.6-0.2c-0.8,1-1.5,1.9-2.3,2.9c0-0.8-0.1-1.6-0.1-2.4c0.6-1.1,1.2-2.2,1.8-3.3c2.3,0.1,4.5,0.2,6.8,0.4
			c0.7,5.4,1.3,10.9,2,16.3h-3.4C59.8,31.9,59.5,27.4,59.1,22.8z"/>
		<path class="st0" d="M67.4,12.1h1.5v3.4L67.4,12.1z M68.9,19.1v17.3h-3.4L68.9,19.1z"/>
		<path class="st0" d="M97.1,19.9c-2.9,0.1-5.8,0.2-8.8,0.3c-0.9,0.8-1.9,1.5-2.8,2.3c1.2-0.4,2.3-0.8,3.5-1.1
			c1.1,0.1,2.2,0.1,3.4,0.2c0.9,0,1.9,0,2.8,0c0.4,2,0.9,4,1.3,6c-2.9,0.2-5.8,0.4-8.7,0.7c-0.2,1.4-0.9,6.8-1.2,8.1
			c3.3,0,12.8,0,14.2,0C100.4,33.9,97.9,23,97.1,19.9z M89.5,34.2c0.2-1.5,0.4-3.1,0.6-4.6c2.2-0.5,4.4-1.1,6.5-1.6
			c0.3,1.3,0.6,2.7,0.9,4c0.1,0.7,0.3,1.3,0.4,1.9C96.7,34,91.1,34.2,89.5,34.2z"/>
		<path class="st0" d="M38.9,21.7"/>
		<path class="st0" d="M29.4,32.9"/>
		<g>
			<path class="st0" d="M67.1,44.6c1.8-0.5,3.6-1,5.4-1.5c2-0.5,4-1,5.9-1.5c0.1-1.4,0.2-2.7,0.3-4.1c0-5.9,0-11.7,0-17.6
				c1-0.9,2.1-1.7,3.1-2.5c0,6.5-0.1,13.1-0.1,19.6c-0.2,2.3-0.3,4.7-0.5,7C76.5,44.1,71.8,44.3,67.1,44.6z"/>
			<path class="st0" d="M81.8,21.9c-2.8-0.3-5.6-0.5-8.4-0.7c-0.7-0.4-1.3-0.9-2-1.3h13C83.6,20.6,82.7,21.2,81.8,21.9z"/>
		</g>
		<path class="st0" d="M103,36.4c2.3-2.3,4.7-4.8,7.1-7.5c1.9-2.1,3.7-4.3,5.3-6.4c-2-0.5-4.1-1-6.2-1.4c-2.1-0.5-4.2-0.9-6.2-1.2
			c2.4,0,4.9,0.1,7.4,0.2c2.4,0.1,4.8,0.2,7.2,0.3c0,1.2,0,2.3,0.1,3.5c-1.5,1.8-3.1,3.6-4.6,5.4c-1.4,1.6-2.8,3.1-4.3,4.7
			c1.3-0.1,7.3-0.6,9-0.7c0,0.6-0.2,2.8-0.3,3.3C112.6,36.4,107.8,36.4,103,36.4z"/>
		<path class="st0" d="M119.6,36.3c2.3-2.3,4.7-4.8,7.1-7.5c1.9-2.1,3.7-4.3,5.3-6.4c-2-0.5-4.1-1-6.2-1.4c-2.1-0.5-4.2-0.9-6.2-1.2
			c2.4,0,4.9,0.1,7.4,0.2c2.4,0.1,4.8,0.2,7.2,0.3c0,1.2,0,2.3,0.1,3.5c-1.5,1.8-3.1,3.6-4.6,5.4c-1.4,1.6-2.8,3.1-4.3,4.7
			c1.3-0.1,7.3-0.6,9-0.7c0,0.6-0.2,2.8-0.3,3.3C129.3,36.3,124.4,36.3,119.6,36.3z"/>
	</g>
</g>
</svg>
