<?xml version="1.0" encoding="utf-8"?>
<!-- Generator: Adobe Illustrator 24.1.1, SVG Export Plug-In . SVG Version: 6.00 Build 0)  -->
<svg version="1.1" id="Livello_1" xmlns="http://www.w3.org/2000/svg" xmlns:xlink="http://www.w3.org/1999/xlink" x="0px" y="0px"
	 viewBox="0 0 608.15 368.44" style="enable-background:new 0 0 608.15 368.44;" xml:space="preserve">
<style type="text/css">
	.st0{fill:#FF0000;}
</style>
<g>
	<path class="st0" d="M212.36,129.27c0.54,0.7,1.5,1.38,1.54,2.11c0.13,2.53-0.27,5.09-0.07,7.61c0.3,3.7-0.58,7.57,1.61,11.08
		c0.55,0.89,0.17,2.35,0.2,3.05c1.24,2.51,2.4,4.78,3.5,7.09c2.66,5.59,5.76,10.89,11.51,13.81c3.35,1.69,7.13,3.21,10.51,0.29
		c3.24-2.79,5.27-6.26,4.1-10.96c-0.38-1.5,0.14-3.23,0.26-4.95c2.51-0.08,3.26,1.11,3.06,2.94c-0.34,3.13-0.07,6.4,2.8,7.87
		c2.87,1.47,5.65-0.62,8.16-2.2c3.67-2.31,7.25-4.76,10.98-6.98c1.37-0.82,3.04-1.13,5.47-1.99c-0.13,3.79-0.15,6.85-0.36,9.89
		c-0.11,1.56-0.45,3.12-0.88,4.62c-0.25,0.85-0.91,1.58-1.38,2.36c-0.72-0.57-1.49-1.1-2.15-1.73c-0.34-0.32-0.48-0.84-0.7-1.25
		c3.11-2.79,1.99-6.36,2.51-10.45c-3.12,2.11-5.51,3.92-8.08,5.43c-2.96,1.74-5.98,3.46-9.16,4.73c-3.32,1.33-6.15,0.17-7.73-2.9
		c-0.61,0.8-1.22,1.36-1.54,2.05c-3.99,8.61-8.57,8.21-16.02,5.8c-5.42-1.75-8.8-6.36-11.99-11.66c-0.51,1.03-1.02,1.75-1.25,2.56
		c-1.77,6.19-5.58,10.74-10.98,14.12c-3.02,1.89-9.71,2.18-12.79-0.83c-1.04-1.01-2.2-1.89-3.46-2.95
		c-1.37,3.58-2.55,6.99-3.97,10.3c-1.52,3.52-4.38,5.48-8.16,5.93c-3.32,0.4-5.4-1.16-6.44-4.29c-1.11-3.33-2.37-6.6-3.76-10.41
		c-0.87,0.92-1.52,1.37-1.83,1.98c-2.89,5.7-4.22,11.59-2.26,17.95c0.28,0.91-0.38,2.1-0.61,3.17c-0.74-0.74-1.86-1.35-2.15-2.23
		c-1.53-4.67-2.91-9.39-4.23-14.12c-0.39-1.38-0.41-2.86-0.72-5.17c-2.64,6.07-5.1,11.58-7.44,17.13c-2.27,5.4-2.68,11.65-6.6,16.28
		c-0.43-0.15-0.85-0.29-1.28-0.44c0.3-1.66,0.59-3.33,0.9-4.99c1.26-6.81,1.61-13.54-2.08-19.8c-1.19-2.02-2.54-4-4.12-5.73
		c-1.88-2.05-6.48-1.76-10.25,0.6c-4.3,2.7-8.13,5.97-10.59,10.52c-0.63,1.16-0.8,2.57-1.15,3.8c-2.82-1.56-2.81-1.56-1.06-4.78
		c3.39-6.25,8.23-10.96,14.99-13.28c2.5-0.86,5.33-0.78,8.01-1.13c0.09,0.26,0.18,0.52,0.27,0.78c-0.26,0.32-0.51,0.64-0.34,0.42
		c1.44,1.27,3.04,2.32,4.17,3.74c3.92,4.98,5.87,10.74,5.88,17.84c0.8-0.96,1.18-1.24,1.32-1.61c2.57-6.62,5.02-13.29,7.72-19.86
		c0.49-1.19,1.93-1.98,2.93-2.96c0.33,0.13,0.66,0.27,0.99,0.4c0.48,3.78,0.96,7.56,1.44,11.34c0.42,0.04,0.85,0.07,1.27,0.11
		c0.33-0.94,0.64-1.88,0.98-2.82c0.91-2.56,1.46-5.33,2.84-7.61c1.79-2.97,4.23-2.73,5.65,0.38c1.31,2.86,2.13,5.94,3.28,8.87
		c1.36,3.48,2.31,3.66,5.76,2.33c5.38-2.07,5.97-7.24,7.78-11.57c0.69-1.63,0.63-3.58,1.01-6.07c0.89,0.44,1.99,0.72,2.73,1.4
		c1.89,1.73,3.55,3.71,5.44,5.45c1.76,1.61,5.6,1.46,8.4-0.13c6.62-3.77,9.87-9.93,11.89-16.92c0.17-0.6,0.08-1.46-0.24-2
		c-4.13-7.02-3.71-14.95-4.61-22.62c-0.19-1.66-0.43-3.34-0.36-4.99c0.06-1.3,0.57-2.58,0.88-3.87c0,0,0,0.08,0,0.08L212.36,129.27z
		"/>
	<path class="st0" d="M322.56,202.27c5.49-8.35,11.22-16.6,8.81-27.64c-0.14-0.66,0.26-1.94,0.75-2.17
		c6.35-2.89,10.49-8.1,14.53-13.45c0.65-0.87,1.13-1.88,1.83-2.69c1.18-1.36,2.42-1.72,3.58,0.52c-3.2,3.63-5.22,7.94-5.06,13.02
		c0.06,1.86,0.11,3.78,0.56,5.57c0.73,2.88,2.13,3.45,4.5,1.7c4.44-3.28,8.68-6.82,13.05-10.19c0.84-0.65,1.89-1.04,3.35-1.83
		c-1.56-0.64-2.91-1.19-5.03-2.05c1.29-0.19,1.77-0.4,2.18-0.31c2.97,0.66,5.26-0.29,7.5-2.34c2.15-1.97,4.85-3.31,7.1-5.18
		c2.02-1.68,3.63-3.85,5.65-5.53c2.42-2,5-3.87,7.68-5.49c2.11-1.28,3.57-0.56,3.74,1.77c0.64,8.71-3.89,20.38-16.49,19.91
		c-0.3-0.01-0.61,0.04-0.89-0.05c-7.11-2.25-11.84,1.6-16.6,6.06c-3.14,2.94-6.73,5.48-10.36,7.82c-3.76,2.43-6.89,1.07-8.19-3.24
		c-0.48-1.59-0.69-3.28-0.9-4.94c-0.19-1.54-0.22-3.1-0.33-4.82c-2.89,2.56-5.8,5.01-8.52,7.66c-0.56,0.54-0.5,1.81-0.57,2.76
		c-0.53,7.35-1.67,14.57-5.52,20.99c-1.34,2.23-3.19,4.27-5.17,5.97c-1.95,1.67-4,1.05-5.05-1.3c-0.94-2.13-1.51-4.42-2.38-7.07
		c-1.55,2.31-3.09,4.47-4.49,6.72c-4.58,7.35-9,14.81-13.72,22.07c-1.58,2.43-3.09,5.42-6.91,5.18c-0.44-0.03-1,0.8-1.39,1.33
		c-0.64,0.87-1.05,1.95-1.79,2.7c-1.51,1.5-3.05,3.65-5.49,2.59c-2.35-1.03-4.21-3.26-3.77-5.85c0.8-4.69,1.93-9.39,3.57-13.84
		c1.41-3.83,4.99-5.84,8.56-7.65c2.07-1.05,3.03-0.02,2.98,1.62c-0.12,3.62-0.68,7.23-1.05,10.84c-0.16,1.57-0.27,3.15-0.41,4.73
		c0.3,0.1,0.61,0.19,0.91,0.29c0.55-0.73,1.15-1.43,1.65-2.19c5.44-8.19,10.89-16.36,16.27-24.59c2.13-3.25,4.04-6.64,6.18-9.89
		c0.38-0.58,1.39-0.74,2.11-1.09c0.3,0.72,0.84,1.44,0.87,2.18c0.12,3.02,0.03,6.04,0.16,9.05c0.04,0.78,0.62,1.54,0.96,2.31
		C321.87,202.24,322.21,202.25,322.56,202.27z M393.97,147.38c-5.71,2.37-18.8,13.65-19.27,17.04c4.92-1.23,10.03-1.46,13.94-3.76
		C392.94,158.12,393.23,152.65,393.97,147.38z M288.07,214.64c-0.34-0.14-0.68-0.27-1.01-0.41c-1.61,3.62-3.48,7.16-4.71,10.9
		c-0.67,2.03-0.5,4.46-0.2,6.64c0.25,1.79,1.42,2.55,3.08,0.86C288.64,229.15,290.23,219.33,288.07,214.64z"/>
	<path class="st0" d="M223.19,198.89c1.01-3.02,3.33-1.61,5.07-1.3c7.99,1.42,13.37,6.55,17.19,13.26
		c3.57,6.27,5.39,13.14,5.62,20.45c0.13,4.14,0.99,8.24,1.3,12.38c0.12,1.7-0.35,3.44-0.56,5.16c-0.03,0.27-0.25,0.55-0.2,0.78
		c2.31,8.98-0.03,17.51-3,25.79c-2.85,7.93-10.84,8.62-17.15,4.47c-5.18-3.41-10.05-6.88-13.61-11.95c-1.55-2.22-2.73-4.7-4.07-7.07
		c0,0-0.11,0.02-0.11,0.02c0.59,0.51,1.27,0.95,1.76,1.55c3.12,3.88,6.15,7.83,9.32,11.67c1.42,1.72,3.04,3.37,5.98,2.29
		c-1.37-0.61-3.03-0.81-3.57-1.69c-1.72-2.85-3.47-5.81-4.41-8.97c-2.27-7.7-3.29-15.64-3.21-23.68c0.03-3.41,0.35-6.81,0.53-10.24
		c2.5-0.12,3.25,0.54,3.11,2.73c-0.28,4.21-0.6,8.49-0.17,12.67c1.18,11.53,0.79,23.73,12.37,31.29c2.45,1.6,6.32,2.03,7.96-0.69
		c1.96-3.25,4.01-6.81,4.58-10.46c1.31-8.43,2.01-16.99,2.46-25.52c0.43-8.2-0.41-16.31-3.01-24.22
		c-2.73-8.3-11.82-20.63-24.21-18.37C223.17,199.06,223.18,198.94,223.19,198.89z"/>
	<path class="st0" d="M457.75,98.72c3.49,0.26,3.54,2.56,3.05,5.1c-0.52,2.71-0.88,5.49-1.8,8.06c-0.42,1.17-2,1.92-3.05,2.87
		c-0.7-0.83-1.92-1.61-2.02-2.51c-0.4-3.51-0.97-7.13-0.5-10.58c0.6-4.4,2.08-8.68,3.34-12.97c0.15-0.53,1.45-1.23,1.89-1.05
		c0.66,0.27,1.53,1.35,1.42,1.91C459.49,92.51,458.63,95.4,457.75,98.72z M455.58,108.75c0.31,0.1,0.62,0.19,0.93,0.29
		c1.81-1.9,1.37-4.5,2.07-6.75c-0.36-0.11-0.73-0.22-1.09-0.34C456.86,104.22,456.22,106.48,455.58,108.75z"/>
	<path class="st0" d="M296.33,118.59c-0.66-0.7-1.74-1.3-1.92-2.11c-1.4-6.18-2.7-12.39-3.88-18.63c-0.58-3.08-0.89-6.21-1.22-9.32
		c-0.08-0.76,0.01-1.87,0.48-2.28c0.54-0.45,1.9-0.69,2.38-0.33c2.7,2.04,5.25,4.27,7.8,6.51c0.2,0.18-0.06,0.9-0.11,1.37
		c0,0,0.18-0.18,0.18-0.18c-0.99-0.18-2.06-0.18-2.94-0.59c-1.24-0.59-2.32-1.5-4.17-2.73c0.33,5.28,0.84,9.69,0.81,14.1
		c-0.02,4.03,1.32,7.59,2.65,11.25c0.32,0.87-0.08,2-0.14,3.01C296.24,118.65,296.33,118.59,296.33,118.59z"/>
	<path class="st0" d="M223.19,198.89c0,0.05-0.02,0.17-0.04,0.36c-2.71,0.69-5.46,1.25-8.11,2.1c-9.56,3.07-16.71,8.28-16.75,19.55
		c-0.27,0.06-0.54,0.11-0.81,0.17c-2.27,0.78-1.65-1.19-1.7-2.03c-0.3-5.57,1.96-10.01,6.23-13.53c5.43-4.49,11.69-7.06,18.62-7.95
		C221.41,197.46,222.33,198.42,223.19,198.89z"/>
	<path class="st0" d="M212.36,129.27l-0.03-0.01c0,0-0.01-0.08,0-0.08c-0.39-0.6-1.07-1.18-1.12-1.81
		c-0.37-4.42-0.65-8.84-0.87-13.27c-0.23-4.61-0.25-9.25-3.12-13.24c-0.21-0.29-0.16-1.04,0.08-1.3c0.23-0.26,1.1-0.38,1.27-0.19
		c1.1,1.26,2.82,2.54,2.98,3.97c0.59,5.06,0.57,10.18,0.93,15.27c0.2,2.92,0.77,5.81,0.98,8.72
		C213.5,127.94,212.75,128.62,212.36,129.27z"/>
	<path class="st0" d="M197.48,221.07c0.27-0.06,0.54-0.11,0.81-0.17c1.29,4.55,2.47,9.12,3.9,13.62c0.74,2.32,1.94,4.48,2.87,6.74
		c1.49,3.66,2.84,7.39,4.41,11.02c1.27,2.92,2.79,5.74,4.2,8.6c0,0,0.11-0.02,0.11-0.02c-1.74-2.68-3.85-5.2-5.16-8.07
		c-4.15-9.1-8.07-18.3-11.86-27.54C196.3,224.14,197.2,222.48,197.48,221.07z"/>
	<path class="st0" d="M300.29,164.03c-2.81,0.41-2.52-1.12-2.45-2.5c0.22-4.36,2.53-8.63,5.1-8.92
		C303.93,156.92,297.61,159.37,300.29,164.03z"/>
	<path class="st0" d="M296.33,118.59c0,0-0.09,0.06-0.09,0.06c0.5,0.17,1.26,0.18,1.46,0.53c2.41,4.2,6.33,6.3,10.63,8.27
		c-0.98-0.06-1.98-0.03-2.94-0.2C301.77,126.64,296.47,121.55,296.33,118.59z"/>
	<path class="st0" d="M300.03,93.63c0,0-0.18,0.18-0.18,0.18c0.68,0.21,1.7,0.21,1.99,0.67c1.47,2.34,2.75,4.81,4.35,7.69
		C303.13,100.85,299.92,96.05,300.03,93.63z"/>
</g>
</svg>
