<?xml version="1.0" encoding="utf-8"?>
<!-- Generator: Adobe Illustrator 24.1.1, SVG Export Plug-In . SVG Version: 6.00 Build 0)  -->
<svg version="1.1" id="Livello_1" xmlns="http://www.w3.org/2000/svg" xmlns:xlink="http://www.w3.org/1999/xlink" x="0px" y="0px"
	 viewBox="0 0 143.4 64.1" style="enable-background:new 0 0 143.4 64.1;" xml:space="preserve">
<style type="text/css">
	.st0{fill:#330066;}
	.st1{fill:#F5F5DC;}
	.st2{fill:#FF0000;}
</style>
<path class="st0" d="M131.3,63.2c6.1,0,11-4.9,11-11V12.6c0-6.1-4.9-11-11-11h-29.6c-7,7.9-14,15.9-21.1,24
	C69.8,38.2,59.1,50.8,48.9,63.2H131.3z"/>
<path class="st1" d="M3.4,12.6v39.6c0,6.1,4.9,11,11,11h34.4C65.4,41.7,84.2,22,101.8,1.5H14.5C8.4,1.5,3.4,6.5,3.4,12.6z"/>
<path class="st2" d="M71,31.4c0.3,0.2,0.6,0.4,1,0.6c0.8-0.8,1.7-1.6,1.6-3c0-1.5,0-2.9,0-4.5c-1,0.2-1.9,0.4-2.9,0.7
	c-0.2,0.1-0.5,0.2-0.5,0.3c0,1.2-1.1,1.7-1.7,2.5c-1,1.4-2.4,2.1-4.2,1.1c-0.5,5.6,2.2,8.4,7.2,7.4c-1,1-3.2,1.1-4.8,0.1
	c-2.2-1.4-3.2-3.5-3.1-6c0.1-4.7,1.6-9,4.6-12.7c0.6-0.7,1.3-1.8,2.3-1.4c0.4,0.2,0.6,1.4,0.7,2.2c0.1,1.9,0.1,3.8,0.1,5.7
	c1.4,0.2,2.3-0.4,2.8-1.9c0.2-0.8,0.5-1.5,0.8-2.3c0.2,0,0.3,0,0.5,0c0.2,0.9,0.4,1.8,0.6,2.9c1-0.4,2.1-0.8,3.1-1.2
	c0.2-0.1,0.3-0.5,0.4-0.8c0.2-1.2,0.4-2.4,0.6-3.6c0.1-0.3,0.4-0.6,0.6-0.9c0.2,0.3,0.7,0.7,0.7,1c0,1.1-0.1,2.2-0.2,3.4
	c5.4-1.8,10.8-3.7,16.2-5.5c0,0.1,0.1,0.2,0.1,0.4c-0.4,0.1-0.7,0.3-1.1,0.4c-4.9,1.7-9.8,3.4-14.8,5.2c-0.3,0.1-0.7,0.6-0.8,1
	c-0.5,1.9-1.1,3.8-1.4,5.8c-0.2,1.2-0.1,2.5,0,3.8c1.2-1.9,0.8-4.4,2.2-6.2c0.1,0,0.2,0,0.4,0c0.1,1.4,0.1,2.8,0.2,4.3
	c0.1,0,0.2,0,0.2-0.1c0.3-0.6,0.4-1.5,0.9-1.8c0.4-0.3,1.2,0.1,1.9,0.1c0.5,0,1,0,1.4-0.2c3.2-1,6.3-2,9.5-3.1
	c1.1-0.4,2-0.9,2.6-2.2c0.4-0.9,1.5-1.6,2.3-2.3c0.1-0.1,0.5,0,0.7,0c0,0.2,0,0.5-0.1,0.7c-0.7,1-1.5,2-2.2,3
	c0.4,0.5,0.8,0.6,1.9,0.1c0.7-0.3,1.3-0.8,2-1.1c-0.9,1.6-3.1,2.2-4.5,1.5c-0.2-0.1-0.5-0.1-0.7-0.1c-2.9,1-5.9,2-8.8,3
	c-1,0.3-1.9,0.7-2.9,1c-0.6,0.1-1.2,0.2-1.7,0.1c-1.1-0.3-1.5,0.3-1.9,1.1c-0.2,0.6-0.5,1.1-0.7,1.7c-0.1,0-0.3,0-0.4,0
	c-0.1-1.5-0.1-2.9-0.2-4.4c0,0-0.1,0-0.1,0c-0.5,1.9-1,3.9-1.5,5.9c-1.4-0.8-1-1.9-1.2-3c-0.2,0.3-0.3,0.4-0.4,0.6
	c-0.1,0.2-0.2,0.3-0.3,0.5c-0.3,0.5-0.5,1-1,1.3c-0.7,0.4-1.5,1-2.2,0.8c-0.5-0.1-0.8-1.2-1.1-1.8c-0.1-0.2-0.1-0.3-0.2-0.6
	c-0.8,1.1-1.9,1.8-2,3.2c0,0.3-0.6,0.5-0.9,0.7c-0.2-0.3-0.6-0.7-0.7-1c-0.1-1.2,0.1-2.3,0.6-3.4c0.1,0,0.2,0,0.3,0
	C71,30.8,71,31.1,71,31.4c-0.7,0.9-0.6,1.9-0.3,3c0.6-0.7,1-1.1,0.5-1.9C71.1,32.2,71.1,31.8,71,31.4z M70.4,16.6
	c-0.7,0.7-1.3,1.1-1.7,1.6c-2.3,2.7-3.3,5.9-4.1,9.2c-0.1,0.4,0,1.2,0.3,1.4c0.5,0.3,1.3,0.4,1.9,0.2c1.5-0.6,2.3-2,3-3.5
	c-0.4,0-0.7,0-1.3,0c0.4-0.3,0.5-0.5,0.7-0.5c1.1,0,1.3-0.8,1.4-1.6c0.1-0.4,0.2-0.8,0.2-1.2C70.9,20.4,71,18.7,70.4,16.6z
	 M79.1,22.5c-0.8,0.3-1.6,0.7-2.3,0.9c-0.9,0.2-1.1,0.8-1.3,1.7c-0.3,1.5-0.8,3-1.1,4.5c-0.2,0.8-0.2,1.6-0.1,2.4
	c0.3,1.2,1.2,1.6,2,0.6c1-1.2,2-2.5,2.4-4C79.3,26.7,79.1,24.6,79.1,22.5z M75.4,24.1c-1.4,0.3-1.7,2-1.1,4.9
	C74.7,27.2,75,25.7,75.4,24.1z M79.8,21.7c1.2-0.6,1.6-3.3,0.9-4.7C80.3,18.6,80.1,20,79.8,21.7z M80.5,22.2c-0.1,0-0.3-0.1-0.4-0.1
	c-0.9,1.4-0.4,3.2-0.6,4.7C79.9,25.2,80.2,23.7,80.5,22.2z M74.2,23.8c1.2-0.3,1.4-1.4,0.7-2.7C74.7,22,74.5,22.8,74.2,23.8z
	 M99,23.3c0.1,0.1,0.2,0.2,0.3,0.3c0.7-0.7,1.3-1.4,2-2c-0.1-0.1-0.2-0.2-0.3-0.3C100.4,22,99.7,22.6,99,23.3z"/>
<path class="st2" d="M46.8,36.3c-0.1,1.7-2.5,4.4-4.2,4.3c-0.5,0-1.1-0.4-1.4-0.9c-0.9-1.6-0.8-3.4-0.6-5.1c0.3-2.3,0.5-4.6,1.2-6.9
	c0.5-1.8,1.5-3.6,2.5-5.3c0.2-0.4,1.1-0.9,1.5-0.8c0.4,0.1,0.9,0.9,0.9,1.4c0.3,2.1,0.5,4.2,0.6,6.3c0.1,2.4,0.2,4.7,0.2,7.1
	c0.4-0.8,0.8-1.6,1.2-2.3c0.3-0.4,1-1,1.2-0.9c0.5,0.3,0.9,0.9,1.2,1.4c0.2,0.5,0.3,1.1,0.4,1.6c0.2,0.8,0.7,0.8,1.2,0.4
	c0.4-0.4,0.8-0.9,1.1-1.4c2.2-3.3,2.5-7.1,2.6-10.9c0-2.2,0.4-4.5,0.7-6.7c0-0.3,0.2-0.6,0.3-0.8c0.1,0,0.3,0,0.4,0
	c0,0.4,0.1,0.8,0.1,1.2c-0.4,4.6-0.9,9.1-1.2,13.7c-0.1,1.8,0,3.6,0,5.4c0.1,0,0.2,0,0.3,0.1c0.5-1.4,1-2.9,1.4-4.4
	c1.1,0.8,2.1,1.5,3.1,2.1c0,0.1-0.1,0.2-0.1,0.3c-1-0.4-1.9-0.9-3-1.4c-0.5,1.5-1,3-1.5,4.6c-0.1,0-0.2,0-0.3,0
	c-0.8-2-0.4-4.2-0.6-6.3c-0.7,1.4-1.4,2.7-2.2,4.1c-0.2,0.4-0.6,0.8-1,1c-0.9,0.6-1.5,0.3-1.8-0.7c-0.3-1-0.6-1.9-1-2.9
	c-0.2,0-0.3,0-0.5-0.1c-0.5,0.9-1.1,1.8-1.6,2.8c-0.8,1.4-0.7,2.9-0.7,4.4c0,3.3-0.1,6.5-0.9,9.7c-0.2,0.6-0.5,1.2-0.7,1.8
	c-0.1,0-0.2,0-0.4,0c-0.1-0.3-0.3-0.7-0.3-1c0-4.3,0.4-8.6,1.7-12.8c0.4-1.3,0.3-2.9,0.2-4.3c-0.1-3.4-0.3-6.9-0.6-10.3
	c0-0.6-0.5-1.2-0.7-1.9c-0.5,0.4-1.1,0.8-1.5,1.3c-1.6,2.3-2.3,5-2.7,7.7c-0.3,2.1-0.3,4.3-0.4,6.5c0,1,0.2,2.2,1.2,2.4
	c0.7,0.1,1.7-0.5,2.4-1C45.5,38.3,46.1,37.2,46.8,36.3z M47,39.9c-1,3.8-1.5,7.6-1.2,11.5C47,47.7,47,43.8,47,39.9z"/>
</svg>
