<?xml version="1.0" encoding="utf-8"?>
<!-- Generator: Adobe Illustrator 24.1.1, SVG Export Plug-In . SVG Version: 6.00 Build 0)  -->
<svg version="1.1" id="Livello_1" xmlns="http://www.w3.org/2000/svg" xmlns:xlink="http://www.w3.org/1999/xlink" x="0px" y="0px"
	 viewBox="0 0 6078.11 4470.91" style="enable-background:new 0 0 6078.11 4470.91;" xml:space="preserve">
<style type="text/css">
	.st0{fill:#FF0000;}
	.st1{fill:#330066;}
</style>
<g>
	<path class="st0" d="M759.6,731.45c2.25,2.94,6.27,5.79,6.43,8.85c0.56,10.58-1.13,21.3-0.28,31.83
		c1.25,15.5-2.43,31.68,6.74,46.36c2.31,3.7,0.73,9.85,0.85,12.77c5.18,10.49,10.03,20.02,14.63,29.67
		c11.13,23.4,24.1,45.58,48.18,57.77c14,7.09,29.84,13.43,43.99,1.23c13.55-11.67,22.07-26.21,17.15-45.86
		c-1.57-6.28,0.6-13.5,1.08-20.7c10.51-0.35,13.63,4.66,12.8,12.29c-1.42,13.1-0.28,26.77,11.73,32.94
		c12.01,6.17,23.66-2.62,34.14-9.19c15.37-9.65,30.35-19.93,45.94-29.2c5.74-3.41,12.73-4.74,22.88-8.34
		c-0.53,15.87-0.64,28.65-1.52,41.37c-0.45,6.51-1.86,13.05-3.69,19.34c-1.04,3.56-3.8,6.61-5.79,9.89
		c-3.02-2.39-6.23-4.6-8.99-7.26c-1.4-1.35-2.02-3.52-2.94-5.22c13-11.67,8.32-26.63,10.51-43.72
		c-13.04,8.85-23.05,16.41-33.8,22.72c-12.39,7.27-25.02,14.48-38.32,19.79c-13.91,5.55-25.75,0.72-32.35-12.14
		c-2.54,3.33-5.1,5.68-6.44,8.59c-16.71,36.05-35.88,34.34-67.02,24.27c-22.68-7.33-36.82-26.61-50.19-48.79
		c-2.14,4.3-4.26,7.33-5.22,10.69c-7.39,25.91-23.37,44.96-45.95,59.11c-12.63,7.91-40.65,9.12-53.53-3.45
		c-4.33-4.23-9.23-7.89-14.49-12.34c-5.73,14.98-10.66,29.26-16.63,43.1c-6.36,14.75-18.35,22.93-34.14,24.83
		c-13.87,1.67-22.6-4.86-26.96-17.94c-4.64-13.92-9.94-27.63-15.73-43.57c-3.63,3.86-6.36,5.72-7.67,8.3
		c-12.09,23.86-17.66,48.49-9.48,75.1c1.17,3.8-1.61,8.81-2.56,13.25c-3.08-3.08-7.77-5.63-8.99-9.32
		c-6.42-19.53-12.17-39.29-17.69-59.1c-1.61-5.78-1.71-11.98-2.99-21.65c-11.06,25.41-21.35,48.45-31.13,71.7
		c-9.5,22.58-11.23,48.74-27.61,68.11c-1.78-0.61-3.56-1.21-5.34-1.82c1.25-6.96,2.48-13.93,3.76-20.89
		c5.26-28.49,6.73-56.67-8.71-82.86c-4.99-8.46-10.62-16.76-17.23-23.97c-7.88-8.6-27.1-7.37-42.88,2.52
		c-18,11.29-34.03,24.99-44.33,44.04c-2.63,4.86-3.33,10.76-4.83,15.88c-11.78-6.54-11.74-6.51-4.42-20.01
		c14.18-26.14,34.44-45.85,62.72-55.57c10.48-3.6,22.3-3.28,33.51-4.74c0.38,1.08,0.76,2.17,1.14,3.25
		c-1.07,1.34-2.15,2.68-1.41,1.76c6.03,5.32,12.74,9.7,17.44,15.66c16.41,20.84,24.57,44.96,24.59,74.67
		c3.36-4.01,4.94-5.17,5.54-6.72c10.74-27.71,21.03-55.61,32.31-83.1c2.04-4.96,8.07-8.29,12.25-12.37
		c1.39,0.56,2.77,1.12,4.16,1.68c2.01,15.81,4.03,31.63,6.04,47.44c1.78,0.15,3.55,0.31,5.33,0.46c1.36-3.93,2.69-7.87,4.09-11.79
		c3.81-10.7,6.12-22.31,11.87-31.85c7.48-12.41,17.69-11.44,23.65,1.59c5.47,11.96,8.9,24.85,13.71,37.14
		c5.7,14.54,9.68,15.32,24.12,9.76c22.5-8.65,24.96-30.3,32.58-48.43c2.87-6.83,2.62-14.97,4.24-25.38
		c3.73,1.85,8.32,3.03,11.41,5.86c7.92,7.24,14.87,15.53,22.77,22.79c7.35,6.75,23.44,6.13,35.17-0.55
		c27.71-15.77,41.29-41.56,49.76-70.81c0.73-2.52,0.34-6.12-0.98-8.37c-17.27-29.38-15.53-62.58-19.3-94.65
		c-0.82-6.94-1.81-13.97-1.49-20.9c0.25-5.45,2.39-10.81,3.68-16.2c-0.02,0.01,0.02,0.35,0.02,0.35L759.6,731.45z"/>
	<path class="st0" d="M1220.74,1036.92c22.97-34.93,46.94-69.48,36.85-115.65c-0.6-2.76,1.08-8.12,3.15-9.06
		c26.56-12.08,43.91-33.9,60.79-56.29c2.73-3.62,4.71-7.86,7.67-11.26c4.95-5.69,10.12-7.2,14.99,2.18
		c-13.39,15.2-21.85,33.22-21.18,54.47c0.25,7.8,0.46,15.81,2.36,23.29c3.06,12.06,8.91,14.44,18.81,7.11
		c18.56-13.74,36.33-28.54,54.61-42.66c3.53-2.73,7.91-4.36,14.04-7.65c-6.55-2.68-12.16-4.97-21.03-8.6
		c5.41-0.81,7.41-1.67,9.14-1.29c12.41,2.78,22.01-1.22,31.37-9.79c8.98-8.23,20.29-13.86,29.71-21.68
		c8.46-7.03,15.19-16.13,23.65-23.14c10.13-8.39,20.9-16.18,32.15-22.98c8.83-5.34,14.94-2.34,15.65,7.4
		c2.68,36.44-16.26,85.27-69.01,83.33c-1.24-0.05-2.56,0.15-3.7-0.21c-29.74-9.43-49.56,6.69-69.47,25.35
		c-13.15,12.32-28.16,22.92-43.36,32.72c-15.75,10.16-28.85,4.49-34.26-13.55c-2-6.67-2.9-13.72-3.77-20.67
		c-0.81-6.45-0.92-12.98-1.38-20.15c-12.11,10.73-24.28,20.98-35.67,32.04c-2.34,2.28-2.1,7.58-2.38,11.53
		c-2.21,30.74-7,60.95-23.08,87.84c-5.59,9.34-13.34,17.87-21.65,24.97c-8.17,6.98-16.76,4.39-21.12-5.44
		c-3.94-8.9-6.31-18.5-9.95-29.57c-6.47,9.65-12.91,18.7-18.77,28.12c-19.16,30.77-37.66,61.98-57.41,92.37
		c-6.61,10.18-12.93,22.68-28.92,21.66c-1.83-0.12-4.2,3.37-5.81,5.56c-2.68,3.65-4.37,8.18-7.51,11.31
		c-6.3,6.29-12.75,15.29-22.99,10.82c-9.83-4.29-17.63-13.63-15.78-24.48c3.34-19.61,8.06-39.28,14.92-57.92
		c5.91-16.04,20.89-24.43,35.83-32.03c8.66-4.41,12.69-0.09,12.48,6.77c-0.48,15.16-2.85,30.25-4.38,45.38
		c-0.66,6.58-1.14,13.18-1.71,19.77c1.27,0.4,2.54,0.8,3.81,1.2c2.32-3.05,4.8-5.99,6.92-9.18c22.75-34.26,45.56-68.48,68.09-102.89
		c8.9-13.6,16.9-27.8,25.85-41.38c1.59-2.41,5.81-3.09,8.82-4.56c1.26,3.03,3.5,6.03,3.62,9.1c0.52,12.62,0.11,25.28,0.69,37.89
		c0.15,3.28,2.61,6.46,4.01,9.68C1217.86,1036.79,1219.3,1036.86,1220.74,1036.92z M1519.57,807.21
		c-23.89,9.93-78.66,57.1-80.63,71.32c20.57-5.14,41.99-6.12,58.32-15.74C1515.28,852.18,1516.5,829.3,1519.57,807.21z
		 M1076.41,1088.69c-1.41-0.57-2.83-1.14-4.24-1.71c-6.72,15.16-14.58,29.94-19.72,45.62c-2.78,8.49-2.08,18.65-0.83,27.77
		c1.03,7.49,5.94,10.68,12.88,3.61C1078.82,1149.39,1085.47,1108.33,1076.41,1088.69z"/>
	<path class="st0" d="M804.89,1022.79c4.22-12.66,13.94-6.72,21.21-5.43c33.45,5.95,55.93,27.4,71.94,55.49
		c14.95,26.24,22.55,54.98,23.5,85.57c0.54,17.31,4.15,34.5,5.43,51.82c0.52,7.1-1.45,14.4-2.34,21.6
		c-0.14,1.11-1.06,2.31-0.82,3.27c9.67,37.58-0.13,73.27-12.56,107.91c-11.92,33.2-45.36,36.07-71.79,18.69
		c-21.68-14.26-42.07-28.77-56.94-50c-6.51-9.28-11.42-19.68-17.05-29.58c0,0-0.46,0.09-0.46,0.09c2.47,2.15,5.33,3.98,7.35,6.49
		c13.07,16.22,25.75,32.75,38.99,48.82c5.95,7.22,12.7,14.09,25.02,9.6c-5.71-2.55-12.68-3.37-14.92-7.07
		c-7.21-11.91-14.54-24.32-18.44-37.54c-9.5-32.2-13.77-65.45-13.44-99.09c0.14-14.26,1.45-28.51,2.22-42.84
		c10.45-0.52,13.61,2.28,13,11.43c-1.18,17.63-2.49,35.54-0.7,53.03c4.95,48.24,3.32,99.3,51.75,130.95
		c10.27,6.71,26.44,8.49,33.31-2.87c8.22-13.59,16.79-28.51,19.16-43.79c5.48-35.29,8.41-71.08,10.29-106.78
		c1.8-34.3-1.72-68.27-12.59-101.37c-11.41-34.74-49.47-86.31-101.32-76.89C804.82,1023.49,804.88,1022.99,804.89,1022.79z"/>
	<path class="st0" d="M1786.47,603.61c14.59,1.08,14.81,10.73,12.78,21.36c-2.16,11.34-3.68,22.96-7.51,33.74
		c-1.74,4.89-8.36,8.05-12.77,11.99c-2.94-3.49-8.02-6.73-8.46-10.5c-1.68-14.7-4.07-29.86-2.11-44.29
		c2.49-18.39,8.71-36.32,13.97-54.26c0.65-2.21,6.07-5.13,7.9-4.38c2.75,1.13,6.42,5.66,5.95,7.99
		C1793.78,577.6,1790.15,589.71,1786.47,603.61z M1777.4,645.56c1.3,0.4,2.61,0.8,3.91,1.21c7.58-7.94,5.75-18.84,8.65-28.25
		c-1.52-0.47-3.04-0.94-4.56-1.4C1782.74,626.59,1780.07,636.08,1777.4,645.56z"/>
	<path class="st0" d="M1110.98,686.76c-2.77-2.93-7.27-5.46-8.04-8.84c-5.87-25.88-11.31-51.87-16.25-77.94
		c-2.44-12.87-3.73-25.98-5.09-39.02c-0.33-3.2,0.02-7.85,2.01-9.53c2.24-1.9,7.95-2.89,9.95-1.37
		c11.29,8.54,21.99,17.87,32.62,27.23c0.86,0.75-0.27,3.76-0.47,5.73c0,0,0.74-0.74,0.74-0.74c-4.13-0.77-8.63-0.74-12.29-2.49
		c-5.17-2.47-9.71-6.26-17.44-11.44c1.38,22.11,3.51,40.56,3.4,59c-0.1,16.88,5.54,31.78,11.08,47.08
		c1.32,3.65-0.32,8.37-0.59,12.59C1110.62,687.01,1110.98,686.76,1110.98,686.76z"/>
	<path class="st0" d="M804.89,1022.79c-0.01,0.19-0.07,0.7-0.18,1.51c-11.32,2.89-22.83,5.22-33.94,8.79
		c-40.01,12.87-69.93,34.67-70.11,81.8c-1.12,0.24-2.25,0.47-3.37,0.7c-9.49,3.27-6.91-4.98-7.1-8.48
		c-1.27-23.31,8.22-41.9,26.05-56.63c22.72-18.77,48.9-29.53,77.91-33.26C797.44,1016.81,801.3,1020.83,804.89,1022.79z"/>
	<path class="st0" d="M759.6,731.45l-0.14-0.05c0,0-0.03-0.33-0.02-0.35c-1.62-2.52-4.48-4.93-4.7-7.56
		c-1.53-18.48-2.71-37-3.64-55.52c-0.97-19.3-1.05-38.7-13.07-55.41c-0.88-1.22-0.65-4.36,0.34-5.46c0.97-1.08,4.6-1.58,5.29-0.79
		c4.61,5.29,11.78,10.63,12.48,16.61c2.49,21.15,2.41,42.6,3.9,63.89c0.86,12.2,3.21,24.3,4.12,36.5
		C764.37,725.89,761.21,728.73,759.6,731.45z"/>
	<path class="st0" d="M697.3,1115.6c1.12-0.23,2.25-0.47,3.37-0.7c5.38,19.02,10.34,38.18,16.32,57.02c3.08,9.7,8.14,18.75,12,28.22
		c6.25,15.34,11.88,30.94,18.47,46.12c5.31,12.23,11.66,24,17.56,35.98c0,0,0.46-0.09,0.46-0.09c-7.29-11.22-16.11-21.74-21.6-33.79
		c-17.35-38.06-33.76-76.56-49.62-115.27C692.36,1128.45,696.15,1121.49,697.3,1115.6z"/>
	<path class="st0" d="M1127.55,876.9c-11.75,1.72-10.56-4.68-10.27-10.45c0.92-18.24,10.6-36.1,21.34-37.31
		C1142.79,847.15,1116.32,857.4,1127.55,876.9z"/>
	<path class="st0" d="M1110.98,686.76c0,0-0.36,0.25-0.37,0.26c2.09,0.71,5.29,0.77,6.11,2.2c10.08,17.56,26.49,26.36,44.5,34.59
		c-4.11-0.25-8.28-0.14-12.32-0.82C1133.74,720.44,1111.58,699.13,1110.98,686.76z"/>
	<path class="st0" d="M1126.46,582.27c0,0-0.74,0.74-0.74,0.74c2.86,0.88,7.13,0.87,8.33,2.79c6.15,9.81,11.51,20.11,18.22,32.18
		C1139.46,612.49,1126,592.42,1126.46,582.27z"/>
</g>
<g>
	<path class="st1" d="M3196.13,1411.02c-10.28,1.03-17.96,1.8-19.4,1.94c-9.32,18.09-13.89,34.01-24.09,44.38
		c-7.4,7.52-23.54,12.57-33.49,9.97c-13.69-3.58-25.1-5.37-39.17-1.71c-18.1,4.72-27.46-5.42-26.41-24.47
		c1.29-23.24,16.9-41.08,39.8-42.81c6.82-0.52,14.07,4.68,22.97,7.94c-16.9,5.9-30.21,8.58-41.21,15.16
		c-6.24,3.73-8.68,13.83-12.83,21.06c1.68,2.55,3.37,5.09,5.05,7.64c14.99-5.88,29.99-11.76,46.57-18.26
		c1.15,4.19,2.91,10.64,4.66,17.01c23.43,0.17,33.61-9.86,35.19-33.01c1.55-22.78,19.74-20.17,34.49-20.42
		c15.27-0.26,22.54,8.16,20.81,24.12c-2.86,26.44-0.43,29.09,26.29,31.68c51.19,4.96,102.02-34.13,110.9-84.7
		c2.72-15.49,7.01-30.7,14.04-45.48c11.38,28.06-5.05,53.5-8.08,75.63c17.65-2.89,34.69-7.52,51.73-7.57
		c6.98-0.02,17.29,8.66,19.88,15.68c1.93,5.22-5.38,14.67-10.01,21.21c-3.51,4.95-9.28,8.3-16.04,14.07
		c20.58,17.99,42.95,21.5,65.26,18.93c27.51-3.17,55.95-6.56,81.54-16.3c39.64-15.07,78.26-4.12,116.91-1.29
		c27.04,1.98,53.48,12,79.2,23.06c-37.77-5.65-75.55-11.33-113.33-16.96c-34.23-5.1-66.5,1.48-99.42,11.82
		c-29,9.11-60.02,14.96-90.35,15.87c-39.53,1.19-62.11-21.22-38.51-58.04c1.77-2.77,1.85-6.62,2.97-10.93
		c-16.06-5.25-29.3-2.58-37.59,10.7c-7.25,11.61-14.23,24.52-16.61,37.7c-2.28,12.65,1.51,26.39-0.97,40.09
		c-17.05-19.08-10.59-42.6-12.34-65c-17.14,10.1-32.16,22.78-49.46,28.13c-19.7,6.09-41.73,9.01-62.2,7.18
		c-26.05-2.33-31.57-13.35-27.83-39.32C3195.59,1422.2,3195.61,1418.59,3196.13,1411.02z"/>
	<path class="st1" d="M2181.86,1314.06c22.68,1.96,30.52,13.34,23.32,35.26c-2.49,7.57-6.66,14.72-10.9,21.55
		c-4.13,6.64-9.32,12.63-16.11,21.63c47.73,13.8,91.35,10.85,134-5.6c13.87-5.35,21.08-5.97,35.33,4.56
		c12.72,9.41,37.3,5.44,56.12,3.13c15.84-1.94,29.49-13.88,44.95,4.75c8.69,10.47,53.46-10.32,62.27-26.72
		c2.08-3.87,2.46-9.79,5.54-11.74c5.35-3.38,12.19-4.41,18.4-6.42c1.64,6.21,6.17,13.55,4.28,18.39
		c-3.6,9.21-10.87,16.98-18.18,27.64c31.33,13.41,61.42,9.52,91.16,1.46c12.14-3.29,17.67,0.32,28.68,6.57
		c16.52,9.37,41.39,6.74,62.29,4.77c16.01-1.51,23.85,0.05,23.36,17.95c-16.11,1.58-31.11,3.77-46.17,4.28
		c-11.67,0.4-26.55,2.99-34.54-2.86c-24.1-17.63-48.77-5.98-73.27-7.32c-19.83-1.08-39.27-8.72-58.99-12.91
		c-5.83-1.24-12.47-2.21-18-0.66c-21.22,5.96-42.32,21.54-62.73-1.71c-0.77-0.88-2.77-1.18-4.09-0.99
		c-30.71,4.42-61.89,6.93-91.96,14.08c-25.54,6.08-28.34,6.92-37.61-20.05c-7.87,1.44-16.16,3.17-24.53,4.43
		c-9.45,1.42-19.07,4.03-28.41,3.35c-46.73-3.4-91.89-4.51-138.42,11.1c-36.47,12.24-54.65-9.54-48.22-45.31
		c2.64-1.08,5.29-2.15,7.93-3.23c1.41,8.93,0.01,19.9,4.75,26.39c13.36,18.3,66.02,16,80.07-2.68c2.34-3.11,1.87-9.45,0.8-13.84
		c-7.49-30.63,3.61-53.09,29.42-69.47L2181.86,1314.06z M2169.46,1388.42c10.45-17,19.69-30.92,27.48-45.61
		c1.62-3.05-0.94-10.05-3.83-13.12c-1.7-1.81-8.35-0.55-11.86,1.19C2163.41,1339.7,2156.74,1363.67,2169.46,1388.42z"/>
	<path class="st1" d="M2182.39,1313.88c-4.88-6.38-11.85-12.12-14.07-19.33c-2.23-7.24-0.39-16.04,0.83-23.98
		c6.4-41.86,6.53-41.86-35.31-39.09c-42.85,2.84-81.43,16.22-115.63,43.19c-40.39,31.84-50.7,84.06-20.85,126.57
		c16.78,23.9,37.49,45.03,56.25,67.56c13.81,16.58,25.26,35.85,41.46,49.54c21.82,18.43,46.94,33.06,71.11,48.58
		c26.87,17.26,54.27,33.69,81.44,50.47c-0.69,2.35-1.38,4.7-2.07,7.04c-6.41-1.08-14.31-0.12-18.99-3.56
		c-70.72-51.88-152.8-89.61-207.55-161.37c-19.3-25.3-39.27-52.92-48.24-82.7c-18.48-61.32,12.09-111.95,77.38-131.58
		c43.08-12.96,87.91-22.12,132.59-26.49c13.67-1.34,33.08,16.19,43.21,29.97c9.93,13.52-6.16,43.84-23.58,54.2
		c-6.19,3.68-12.34,7.43-18.51,11.15C2181.86,1314.06,2182.39,1313.88,2182.39,1313.88z M2197.04,1236.47
		c-2.6,1.37-5.2,2.74-7.8,4.1c-2.43,16.11-4.85,32.22-7.82,51.96c23.9-6.37,32.2-20.06,32.52-36.3
		C2214.07,1249.75,2203,1243.06,2197.04,1236.47z"/>
	<path class="st1" d="M2950.59,1351.34c34.42-0.83,68.89-0.89,103.24-2.85c14.48-0.82,29.07-4.58,42.94-9.07
		c7.64-2.47,13.88-9.24,20.75-14.08c-5.7-7.07-9.97-17.28-17.36-20.63c-23.3-10.57-47.12-21.76-71.94-26.83
		c-39.34-8.04-79.58-11.95-119.6-16.18c-9.74-1.03-20.5,2.32-30.01,5.79c-11.58,4.24-17.76,11.57-4.77,22.2
		c28.41,23.23,39.4,54.04,38.48,89.82c-0.66,25.9-1.63,51.8-2.47,77.7c-3.49,0.32-6.99,0.65-10.49,0.97
		c-2.02-10.37-4.72-20.66-5.91-31.12c-2.64-23.16-9.94-47.52-5.43-69.35c6.59-31.89-9.24-48.85-28.49-67.62
		c-10.25-9.99-9.11-22.1,4.54-28.85c9.59-4.74,20.54-8.71,31.07-9.26c69.89-3.61,134.77,18.31,199.41,40.94
		c0.69,0.24,1.36,0.6,1.95,1.03c12.47,9.09,32.65,12.74,29.63,33.77c-2.95,20.51-22.07,23.37-37.45,24.43
		c-45.82,3.17-91.82,3.91-137.74,5.6C2950.83,1355.61,2950.71,1353.48,2950.59,1351.34z"/>
	<path class="st1" d="M3874.38,1488c22.22,3.56,44.44,7.13,66.66,10.69c-0.24,1.71-0.48,3.43-0.73,5.14
		c-21.94-3.3-43.89-6.6-65.83-9.9C3874.45,1491.95,3874.41,1489.97,3874.38,1488z"/>
</g>
<g>
	<path class="st1" d="M1745.05,2942.09c-7.04,1.48-7.62,1.23-10.04-3.86c-3.72,5.78-8.34,10.28-15.17,11.63
		c-8.73,1.71-13.11-0.33-16.02-7.35c-0.37,0.28-0.79,0.48-1.02,0.8c-5.55,8.01-13.42,12.64-22.65,14.85
		c-11.37,2.72-22.82,5.19-34.32,7.28c-6.58,1.2-12.37-0.55-15.44-7.95c-2.57,3.03-4.84,5.75-7.16,8.42
		c-6.54,7.53-14.87,11.5-24.75,12.21c-5.02,0.36-7.71-1.41-9.85-6.01c-3.21-6.91-3.93-7.22-10.29-2.85
		c-6.95,4.77-13.47,10.18-20.61,14.65c-4.7,2.94-9.98,5.25-15.31,6.8c-4.16,1.21-8.79,0.8-13.93,1.17
		c-1.22,2.73-2.87,6.5-4.61,10.23c-2.13,4.54-5.36,8-10.07,9.98c-5.31,2.23-9.39,1.07-13.35-4.04
		c-10.61,12.48-25.69,16.66-40.31,21.67c-2.01,0.69-4.15,1.04-6.26,1.33c-5.59,0.78-8.33-1.3-8.18-6.87
		c0.18-6.64-2.58-11.98-6.38-16.99c-2.56-3.38-3.53-3.51-5.98,0.1c-3.72,5.49-7.04,11.25-10.46,16.94
		c-6.6,11-12.82,22.24-19.81,32.99c-5.55,8.54-13.54,14.22-23.61,16.92c-12.06,3.24-20.64-0.5-26.06-11.83
		c-0.82-1.72-1.61-3.47-2.65-5.72c-1.16,1.72-2.09,3.19-3.1,4.6c-6.2,8.56-12.34,17.16-18.65,25.64
		c-4.55,6.12-10.57,10.36-17.79,12.85c-1.94,0.67-4.15,1.41-5.23-1.17c-0.95-2.29,0.96-3.27,2.49-4.51
		c6.18-5.01,12.54-9.85,18.26-15.35c5.59-5.37,4.86-16.7-0.88-21.79c-0.54-0.47-2.22-0.48-2.74,0c-2.07,1.88-4.01,3.94-5.78,6.1
		c-8.99,10.96-17.58,22.27-27,32.84c-5.03,5.64-11.07,10.61-17.35,14.85c-10.32,6.96-18.91,2.87-21.16-9.37
		c-0.16-0.87-0.33-1.73-0.63-3.31c-2.1,3.03-3.75,5.67-5.66,8.1c-3.76,4.76-7.45,9.61-11.6,14.01c-2.26,2.39-5.25,4.25-8.2,5.8
		c-6.28,3.31-12.66,1.92-17.4-3.37c-1.03-1.15-2.1-2.26-3.53-3.79c-1.95,2.14-3.9,3.85-5.33,5.92
		c-6.38,9.27-12.51,18.72-18.94,27.96c-2.88,4.14-5.96,8.23-9.46,11.85c-7.21,7.45-14.41,6.14-18.35-3.42
		c-1.95-4.73-2.92-9.87-4.28-14.84c-0.34-1.24-0.48-2.53-0.9-4.79c-2.21,3.45-3.94,6.03-5.55,8.69
		c-8.11,13.39-16.05,26.87-24.35,40.14c-2.48,3.97-5.69,7.57-9.02,10.88c-2.17,2.15-4.97,4-7.83,5.05
		c-8.84,3.27-17.25-2.03-18-11.44c-0.38-4.77,0.33-9.63,0.5-14.45c0.24-6.84,0.8-13.69,0.52-20.51c-0.28-6.78-3.37-10.07-9.96-11.96
		c-2.48-0.71-5.1-0.94-7.58-1.65c-4.15-1.18-8.24-2.57-12.27-3.84c-0.05,4.97,0.11,10.77-0.2,16.54
		c-1.35,25.35-9.24,48.82-21.89,70.6c-6.19,10.66-13.46,20.77-20.95,30.57c-3.53,4.62-8.4,8.5-13.3,11.75
		c-8.51,5.64-16.34,2.88-20.04-6.58c-1.63-4.16-2.72-8.53-3.94-12.45c0.1-0.23-0.15,0.13-0.2,0.52
		c-5.01,38.08-16.37,74.42-30.2,110.07c-6.81,17.54-14.19,34.84-23.77,51.09c-2.45,4.15-5.31,8.09-8.28,11.9
		c-1.56,2-3.6,3.74-5.71,5.17c-4.78,3.24-10.11,2.21-11.99-3.14c-2.2-6.27-3.82-12.97-4.33-19.59c-1.86-23.86,0.29-47.62,3.07-71.3
		c11.28-95.84,35.59-188.43,70.32-278.36c23.69-61.33,50.94-120.99,84.32-177.73c14.97-25.45,31.08-50.15,51.06-72.07
		c8.82-9.67,18.15-18.83,29.87-24.97c3.63-1.9,7.69-3.26,11.72-4.04c8.01-1.54,14.7,2.46,17.85,10c3.03,7.25,3.4,14.86,2.91,22.55
		c-1.22,19.24-6.38,37.67-12.07,55.94c-13.68,43.92-31.15,86.4-49.71,128.43c-16.38,37.09-33.35,73.91-53.18,109.32
		c-8.6,15.36-17.98,30.19-30.91,42.42c-0.73,0.69-1.42,1.74-2.28,1.92c-1.05,0.22-2.53,0.02-3.29-0.63c-0.6-0.51-0.57-1.98-0.49-3
		c0.04-0.56,0.7-1.13,1.19-1.58c13.81-12.85,23.72-28.58,32.43-45.02c39.85-75.14,74.29-152.64,100.7-233.56
		c5.62-17.22,10.42-34.73,11.67-52.93c0.36-5.23-0.19-10.53-0.54-15.79c-0.12-1.75-0.74-3.54-1.43-5.18
		c-2.7-6.44-7.37-8.67-14.15-6.89c-7.95,2.09-14.41,6.77-20.54,11.95c-16.84,14.22-30.16,31.5-42.58,49.51
		c-23.46,34.02-43.11,70.24-61.11,107.35c-36.99,76.28-67.17,155.12-88.41,237.25c-15.2,58.78-26.46,118.28-30.56,178.96
		c-1.03,15.26-1.55,30.55,0.79,45.76c0.39,2.54,1.12,5.06,2.02,7.48c1.23,3.32,2.99,3.89,5.53,1.42c2.96-2.88,5.96-5.97,7.96-9.53
		c5.84-10.39,11.77-20.8,16.61-31.67c16.07-36.08,28.8-73.29,36.53-112.12c5.08-25.48,6.11-51.3,7.03-77.14
		c0.39-10.89,0.84-21.79,1.28-32.68c0.04-1.01-0.14-2.22,0.35-2.97c0.69-1.05,1.99-2.49,2.88-2.4c0.98,0.1,2.48,1.71,2.55,2.75
		c0.26,3.69-0.04,7.41-0.04,11.12c0.05,22.92-0.11,45.84,0.32,68.75c0.13,6.78,1.86,13.55,3.04,20.29c0.28,1.61,1.14,3.17,1.98,4.62
		c2.29,3.99,5.45,5.16,9.32,2.66c4.12-2.65,8.15-5.68,11.5-9.23c10.9-11.56,19.05-25.06,26.2-39.17
		c12.28-24.24,18.91-49.76,17.04-77.13c-0.32-4.71-1.14-9.38-1.34-14.09c-0.06-1.32,1.25-2.7,1.94-4.05c1.3,0.8,2.92,1.34,3.8,2.46
		c1.08,1.37,1.64,3.19,2.25,4.87c2.08,5.74,6.3,8.48,12.21,9.11c2.34,0.25,4.66,0.79,6.96,1.34c10.32,2.47,15.48,7.97,15.89,18.56
		c0.31,7.93-0.66,15.91-0.98,23.87c-0.14,3.47-0.47,6.99-0.04,10.41c0.73,5.75,5.86,8.52,10.97,5.76c3.08-1.66,6.17-4.02,8.15-6.84
		c6.4-9.1,12.41-18.48,18.34-27.91c4.85-7.72,9.32-15.68,14.05-23.48c1.28-2.11,2.63-4.3,4.44-5.91c1.34-1.19,3.66-2.3,5.2-1.95
		c1.33,0.31,2.67,2.58,3.14,4.23c0.86,3.01,0.79,6.27,1.62,9.29c1.19,4.31,2.51,8.64,4.39,12.68c1.67,3.59,3.89,3.98,6.6,1.17
		c3.65-3.79,7.07-7.87,10.09-12.18c6.01-8.57,11.59-17.44,17.52-26.07c1.9-2.76,4.16-5.33,6.62-7.61c3.71-3.45,7.13-3.19,10.65,0.36
		c7.13,7.17,11.65,7.65,18.88,0.23c5.77-5.92,10.42-12.92,15.5-19.49c1.72-2.22,3.04-4.8,4.97-6.8c1.06-1.09,3.18-2,4.54-1.7
		c1.02,0.23,1.96,2.42,2.29,3.88c0.87,3.81,1.02,7.81,2.14,11.53c1.37,4.52,4.87,6.03,8.68,3.31c6.46-4.6,13.08-9.31,18.42-15.09
		c8.76-9.49,16.52-19.9,24.74-29.88c2.64-3.21,5.2-6.54,8.23-9.36c4.5-4.2,8.57-3.64,12.26,1.35c1.32,1.79,2.44,3.79,3.33,5.83
		c0.89,2.03,1.38,4.23,2.24,7.02c3.95-5.92,7.7-11.49,11.34-17.13c0.34-0.53,0.21-1.52,0.03-2.23
		c-11.03-41.45-10.62-83.17-2.92-125.06c0.99-5.39,1.92-10.8,2.99-16.85c-4.91,2.28-9.29,4.41-13.74,6.38
		c-25.01,11.07-49.93,22.35-75.09,33.08c-31.48,13.42-63.19,26.31-94.73,39.6c-5.68,2.39-11.09,5.47-16.47,8.52
		c-2.3,1.31-4.05,3.57-6.31,4.97c-1.16,0.72-3.26,1.16-4.29,0.58c-1.88-1.05-1.31-3.18,0.12-4.27c4.63-3.51,9.05-7.62,14.25-9.97
		c19.88-9.01,39.99-17.54,60.1-26.04c21.78-9.21,43.76-17.94,65.45-27.33c21.07-9.12,41.81-19,62.87-28.13
		c6.54-2.84,10.33-6.39,11.81-13.9c2.07-10.53,5.76-20.78,9.3-30.97c1.41-4.06,3.91-7.89,6.54-11.34
		c5.18-6.79,12.27-8.85,20.13-5.58c11.83,4.92,21.43,12.29,24.67,26c7.15-3.43,14.08-6.86,21.1-10.1
		c23.19-10.72,46.33-21.56,69.64-32c20.44-9.16,41.04-17.98,61.69-26.66c9.33-3.92,18.92-7.24,28.46-10.65
		c6.58-2.35,13.09-1.83,19.28,1.49c3.37,1.81,6.68,3.73,9.98,5.67c1.7,1,2.56,2.7,1.14,4.17c-0.78,0.81-2.9,1.08-4.03,0.63
		c-2.38-0.94-4.54-2.46-6.74-3.83c-6.22-3.9-12.71-4.84-19.66-2.12c-12.05,4.72-24.27,9.05-36.18,14.11
		c-21.96,9.33-43.84,18.88-65.6,28.68c-20.52,9.25-40.85,18.93-61.24,28.45c-5.1,2.38-10.18,4.8-15.16,7.41
		c-1.05,0.55-2.28,2.01-2.31,3.08c-0.38,15.4-3.56,30.36-7.07,45.25c-10.24,43.4-25.09,85.06-48.04,123.51
		c-2.64,4.42-3.26,8.03-0.75,12.33c0.39,0.67,0.57,1.47,0.91,2.18c4.98,10.26,10.82,12.63,21.7,9.13
		c9.57-3.07,16.22-9.67,21.21-17.9c7.41-12.22,14.29-24.77,21.55-37.09c2.22-3.77,4.66-7.47,7.48-10.8
		c4.2-4.96,8.56-4.84,12.76,0.15c5.49,6.52,9.23,13.81,8.53,22.89c1.07-0.01,1.86,0.12,2.57-0.05c11.75-2.91,23.06-7.01,33.46-13.28
		c6.62-3.99,10.89-9.98,13.2-17.33c2.02-6.44,6.02-11.7,10.97-15.93c3.1-2.65,7.26-4.41,11.84-3.16c3.87,1.06,6.1,3.3,6.38,7.27
		c0.16,2.29,1.39,2.8,3.21,3.03c6.85,0.87,13.02-1.39,18.57-4.93c7.19-4.59,13.95-9.85,20.98-14.69c2.58-1.77,5.29-3.45,8.16-4.68
		c4.78-2.05,8.19-0.75,10.88,3.68c0.41,0.67,0.81,1.36,1.15,2.06c2.69,5.59,3.18,5.87,9.33,4.61c6.73-1.38,12.39-4.62,16.87-9.87
		c2.55-3,4.97-6.13,7.7-8.96c3.7-3.83,7.15-3.13,8.95,1.85c1.32,3.65,3.78,5.36,7.44,4.93c5.57-0.67,11.21-1.27,16.63-2.66
		c9.46-2.42,18.92-5.03,28.08-8.37c3.45-1.26,6.54-4.4,8.99-7.35c3.8-4.56,7.05-9.6,10.27-14.61c4.75-7.4,12.1-9.69,20.16-10.59
		c3.9-0.44,7.85-0.5,11.78-0.66c1.92-0.08,4.33-0.19,4.57,2.26c0.13,1.37-1.31,2.89-1.72,3.7c-0.18,5.06-0.34,9.74-0.54,15.15
		c2.34-2.31,4.26-4.26,6.24-6.15c1.05-1.01,2.06-2.21,3.33-2.79c1.06-0.48,2.81-0.65,3.65-0.08c0.86,0.58,1.44,2.29,1.32,3.42
		c-0.18,1.62-0.91,3.27-1.75,4.7c-13.27,22.49-26.17,45.22-40.05,67.32c-10.77,17.14-22.8,33.5-34.27,50.21
		c-0.48,0.71-0.9,1.46-1.56,2.51c4.5-0.18,8.62-0.45,12.74-0.48c9.74-0.08,19.34,0.94,28.54,4.34
		c12.04,4.45,17.81,12.34,16.86,22.73c-1.03,11.25-9.46,19.95-21.43,21.94c-3.1,0.52-6.27,0.9-9.39,0.84
		c-1.19-0.02-3.04-1.26-3.36-2.33c-0.58-1.88,0.84-3.03,2.87-3.25c3.47-0.37,6.96-0.62,10.38-1.28c8.01-1.55,12.94-6.57,14.83-14.38
		c1.49-6.17-0.2-11.69-5.65-15.03c-4.05-2.48-8.65-4.41-13.26-5.58c-12.04-3.07-24.3-2.87-36.51-0.91
		c-1.31,0.21-2.72,1.44-3.57,2.58c-20.9,27.97-43.05,54.91-66.56,80.73c-39.3,43.15-81.04,83.71-127.75,118.91
		c-23.51,17.72-48.27,33.44-75.16,45.55c-19.28,8.68-39.14,15.59-60.49,17c-9.05,0.6-18.01,0.02-26.59-3.25
		c-14.66-5.59-20.72-17.46-16.63-32.66c2.81-10.45,8.68-19.24,15.36-27.52c13.95-17.29,30.85-31.43,48.4-44.83
		c37.15-28.37,76.62-53.24,116.93-76.83c32.05-18.76,64.67-36.46,98.27-52.32c24.77-11.69,50.05-22.15,76.63-29.11
		c3.48-0.91,6.99-2.05,10.54-2.34c4.28-0.35,6.74-2.55,9.12-5.85c24.86-34.32,48.05-69.71,68.96-106.58
		C1742.89,2944.81,1743.79,2943.81,1745.05,2942.09z M1664.56,3064.27c-1.75,0.24-2.43,0.25-3.04,0.44
		c-14.71,4.61-29.68,8.52-44.05,14.01c-34.85,13.31-68.04,30.25-100.51,48.52c-25.47,14.33-50.71,29.09-75.62,44.37
		c-32.98,20.23-65.02,41.88-94.6,66.94c-13.76,11.66-26.98,23.97-36.32,39.61c-3.29,5.51-5.86,11.73-7.33,17.96
		c-2.26,9.52,1.91,17.15,10.86,21.16c4.14,1.86,8.72,3.06,13.23,3.74c10.71,1.62,21.31,0.14,31.8-2.15
		c20.86-4.55,40.2-13.08,58.93-23.05c32.63-17.36,62.02-39.39,89.96-63.39c51.86-44.56,98.46-94.16,140.94-147.68
		C1653.94,3078.25,1658.92,3071.61,1664.56,3064.27z M1406.75,2876.91c-0.42,0.17-0.83,0.31-1.21,0.5
		c-13.41,6.62-26.61,13.74-40.32,19.68c-7.79,3.37-11.39,7.88-12.86,16.46c-6.05,35.29-10.08,70.54-4.06,106.23
		c1.22,7.26,2.61,14.48,4.01,22.22C1373.09,3017.7,1411.45,2900.88,1406.75,2876.91z M1356.42,2894.87c0.67-0.11,0.91-0.09,1.1-0.19
		c15.72-7.75,31.43-15.52,47.18-23.22c2.01-0.98,2.37-2.18,1.88-4.28c-2.37-10.17-10.1-15.38-18.52-19.65
		c-7.31-3.7-12.4-2-17.09,4.83c-1.2,1.75-2.29,3.62-3.19,5.54C1362.34,2869.59,1359.48,2882.07,1356.42,2894.87z M1736.28,2920.97
		c-4.26,0.94-9.94,1.52-15.08,3.49c-6.19,2.37-11.53,6.24-11.66,14.04c-0.08,4.75,1.17,6.11,5.85,6.06c7.1-0.07,11.8-4.03,14.9-9.9
		C1732.63,2930.22,1734.34,2925.45,1736.28,2920.97z M1515.97,2983.06c-5.05,3.57-7.29,8.92-9.51,14.16c-0.82,1.94-1,4.34-0.81,6.48
		c0.31,3.4,1.82,4.17,5.08,3.27c5.16-1.42,7.24-5.65,9.24-9.98c3.88-8.43,3.89-8.43-3.53-13.76
		C1516.35,2983.16,1516.22,2983.15,1515.97,2983.06z"/>
	<path class="st1" d="M451.01,3136.02c5.88-9.4,11.45-18.52,17.24-27.49c13.5-20.91,27.39-41.56,43.9-60.27
		c3.55-4.02,7.67-7.57,11.78-11.04c1.45-1.23,3.6-1.92,5.53-2.22c2.91-0.45,5.45,2,5.42,5.54c-0.04,3.79-0.12,7.8-1.36,11.3
		c-5.16,14.51-9.88,29.27-16.34,43.2c-33.69,72.59-78.64,137.64-133.01,196.29c-1.71,1.85-3.25,4.06-4.23,6.37
		c-14.72,34.97-29.32,69.98-43.95,104.98c-0.21,0.49-0.36,1-0.3,0.85c3.15,0.39,6.51,0.13,9.23,1.31c4.11,1.79,6.28,5.91,7.45,10.01
		c3.2,11.24,6.29,22.53,8.86,33.93c5.28,23.39,10.18,46.9,19.85,69c12.01,27.45,28.31,51.93,51.93,70.84
		c17.49,14.01,31.5,14.11,49.88,1.26c2.21-1.55,4.21-3.43,6.56-4.71c0.97-0.53,3.15-0.34,3.75,0.38c0.61,0.73,0.48,3.16-0.23,3.74
		c-9.48,7.8-19.56,14.52-32.27,15.64c-8.92,0.78-16.87-2.22-24.25-6.86c-14.32-9.01-25.39-21.4-35.53-34.69
		c-18.96-24.83-30.94-52.9-38.21-83.08c-4.14-17.17-7.73-34.48-11.96-51.63c-1.39-5.61-3.65-11.1-6.21-16.3
		c-1.95-3.98-4.47-4.06-7.92-1.11c-6.43,5.5-10.11,12.93-13.59,20.35c-31.1,66.37-62.09,132.8-93.16,199.19
		c-0.97,2.07-1.55,5.55-4.99,3.96c-3.41-1.57-1.23-4.27-0.25-6.37c29.29-62.99,58.34-126.1,88.04-188.9
		c20.37-43.08,38.81-86.97,56.63-131.13c0.13-0.31,0.2-0.64,0.59-1.93c-1.52,1.43-2.44,2.24-3.3,3.11
		c-19.11,19.1-38.77,37.62-61.19,52.83c-8.14,5.52-17.02,10.03-25.79,14.55c-3.32,1.71-7.24,2.55-10.99,3.1
		c-10.3,1.5-17.44-4.04-19.06-14.45c-1.57-10.06-0.18-19.97,1.85-29.79c5.46-26.48,14.98-51.63,25.7-76.34
		c14.59-33.64,31.34-66.14,52.32-96.31c11.29-16.24,23.91-31.32,40.28-42.79c11.09-7.77,23.18-13.18,37.02-12.79
		c18.79,0.54,32.44,10.03,42.4,25.45C449.72,3133.91,450.28,3134.84,451.01,3136.02z M274.15,3373.31
		c10.01-3.75,18.92-9.21,27.51-15.22c27.15-18.97,50.79-41.88,73.54-65.77c1.11-1.17,1.74-2.85,2.42-4.38
		c12.12-27.5,23.64-55.28,36.49-82.43c9.76-20.63,21.22-40.46,31.84-60.7c0.64-1.22,1.1-3.1,0.63-4.25
		c-6.85-16.52-24.93-28.04-42.61-27.26c-11.66,0.52-21.75,5.31-31.1,11.88c-15.7,11.04-27.86,25.48-38.6,41.13
		c-28.13,41.01-49.54,85.43-66.27,132.16c-5.85,16.33-10.81,32.93-12.78,50.25c-0.75,6.6-1.19,13.23,1.18,19.68
		c1.39,3.81,4.1,5.99,8.11,5.96C267.72,3374.32,270.93,3373.68,274.15,3373.31z M460.87,3183.73c0.61-0.67,0.86-0.89,1.04-1.16
		c23.27-35.99,44.3-73.18,59.92-113.19c2.93-7.51,4.82-15.43,7.04-23.21c0.45-1.59,0.25-3.36,0.35-5.05
		c-0.38-0.18-0.75-0.35-1.13-0.53c-3.76,3.66-7.81,7.06-11.23,11.01c-23.9,27.59-43.22,58.37-61.94,89.55
		c-0.62,1.03-0.48,2.75-0.2,4.04c1.25,5.93,3.02,11.77,3.96,17.74C459.76,3169.67,460.15,3176.52,460.87,3183.73z M450.07,3149.36
		c-24.09,41.59-43.8,84.27-61.9,128.29c0.71-0.41,1.03-0.51,1.22-0.72c23.75-26.35,45.57-54.2,65.4-83.61
		c0.44-0.66,0.64-1.63,0.61-2.44c-0.1-2.57-0.4-5.13-0.56-7.7C454.15,3172.09,453.42,3161.01,450.07,3149.36z"/>
	<path class="st1" d="M508.42,3403.31c-5.31,26.68-15.85,51.03-27.3,75.04c-2.17,4.55-4.88,8.87-7.55,13.17
		c-1.11,1.79-2.61,3.42-4.2,4.81c-4.59,4.01-9.85,3.3-12.11-2.3c-2.28-5.67-4.04-11.74-4.83-17.79
		c-3.64-27.73-3.32-55.39,3.05-82.77c2.49-10.69,6.2-21,12.34-30.17c2.78-4.15,6.09-8.17,9.92-11.34
		c5.86-4.85,11.39-2.77,13.71,4.47c0.27,0.84,0.53,1.69,0.8,2.56c4.96-2.37,7.37-1.78,10.28,2.87c4.92,7.88,6.37,16.73,6.71,25.82
		c0.12,3.13-0.03,6.27-0.07,9.7c4.75,1.07,9.27-0.01,13.04-2.65c4.85-3.39,9.38-7.31,13.7-11.38c10.55-9.94,20.8-20.19,31.39-30.09
		c2.84-2.65,6.32-4.7,9.72-6.64c6.9-3.93,11.97-2.31,15.59,4.67c1.19,2.3,2.24,4.67,3.51,6.92c2.93,5.23,6.34,6.95,11.74,4.49
		c6.62-3.01,12.98-6.68,19.13-10.58c16.13-10.24,31.99-20.91,48.17-31.06c4.02-2.53,8.77-4.02,13.33-5.52
		c3.74-1.23,7.26-0.09,10.48,2.25c4.61,3.37,5.47,3.38,10.13,0c6.19-4.48,12.22-9.19,18.41-13.66c6.56-4.74,13.54-6.9,21.92-5.07
		c3.21,0.7,7.27-0.97,10.55-2.44c6.41-2.87,12.81-4.76,19.92-3.65c8.15,1.28,14.85-2.6,21.52-6.44
		c8.08-4.66,15.78-10.28,24.34-13.74c15.72-6.35,31.93-11.52,48.02-16.93c2.67-0.9,5.8-0.89,8.67-0.65
		c5.37,0.44,8.07,4.17,6.21,9.17c-1.58,4.26-3.87,8.39-6.51,12.11c-10.14,14.29-22.71,26.42-35.35,38.44
		c-7.25,6.9-14.69,13.6-22.06,20.37c-0.66,0.61-1.37,1.52-2.11,1.58c-1.18,0.11-2.77-0.02-3.52-0.74c-0.57-0.54-0.46-2.35,0.01-3.26
		c0.59-1.13,1.83-1.94,2.82-2.85c16.89-15.52,34.13-30.71,48.89-48.37c3.74-4.48,7.03-9.35,10.32-14.18
		c1.15-1.69,1.68-3.81,2.5-5.73c-0.18-0.4-0.36-0.8-0.54-1.19c-3.46,0.42-7.03,0.41-10.34,1.34c-5.51,1.55-10.85,3.7-16.26,5.61
		c-8.27,2.92-16.84,5.23-24.74,8.95c-9.94,4.68-19.44,10.33-28.91,15.93c-8.32,4.92-16.9,7.75-26.68,6.09
		c-5.57-0.95-10.36,1.76-15.08,4.05c-4.97,2.41-9.96,3.41-15.35,1.94c-4.24-1.15-8.14,0.05-11.56,2.36
		c-6.32,4.28-12.43,8.87-18.63,13.33c-1.64,1.18-3.23,2.44-4.93,3.54c-5.08,3.27-8.88,3.36-13.67-0.36
		c-3.35-2.6-6.73-3.21-10.34-1.36c-6.9,3.52-13.93,6.88-20.44,11.04c-14.97,9.56-29.61,19.63-44.48,29.34
		c-3.37,2.2-7.07,3.97-10.79,5.54c-8.29,3.51-15,1.2-19.56-6.54c-1.25-2.13-2.33-4.36-3.39-6.59c-2.36-4.95-3.93-5.81-8.56-2.79
		c-5.72,3.73-11.3,7.82-16.31,12.44c-7.76,7.16-14.96,14.93-22.44,22.4c-2.62,2.62-5.29,5.21-8.08,7.65
		C525.73,3400.46,518.16,3404.56,508.42,3403.31z M487.18,3392.94c-0.18,0.44-0.57,1.46-0.99,2.47c-2.91,6.95-5.82,13.91-8.73,20.86
		c-0.79,1.89-2.25,3.31-4.11,2.08c-0.94-0.62-1.16-2.77-1.14-4.23c0.02-1.14,0.94-2.25,1.39-3.4c3.18-8.05,6.38-16.1,9.46-24.18
		c0.46-1.21,0.36-2.63,0.57-3.94c0.63-3.95,0.76-8.08,2.05-11.81c1.57-4.55,1.14-8.83,0.06-13.22c-0.56-2.26-2.15-3.02-3.99-1.42
		c-2.44,2.12-4.93,4.31-6.83,6.89c-7.08,9.56-11.18,20.52-13.9,31.98c-5.59,23.53-6.15,47.41-3.93,71.35
		c0.74,7.99,2.73,15.9,4.59,23.74c0.83,3.51,2.59,3.79,4.83,0.91c2.75-3.53,5.57-7.2,7.35-11.25c7.55-17.19,15.03-34.42,21.9-51.89
		c2.94-7.48,4.39-15.55,6.35-23.4c0.22-0.87-0.28-2.48-0.98-2.94C496.58,3398.56,491.89,3395.81,487.18,3392.94z M503.37,3396.11
		c0.52-11.9-0.37-22.71-6.71-32.83c-5.95,6.35-4.74,14.17-6.54,21.07c-0.14,0.53,0.35,1.29,0.69,1.86
		C493.6,3390.95,497.86,3393.81,503.37,3396.11z"/>
	<path class="st1" d="M749.33,3186.26c0.56-0.04,1.11-0.1,1.67-0.11c19.02-0.13,35.2,6.26,47.89,20.75c1.29,1.47,1.87,2.9,0.42,4.44
		c-1.5,1.6-3.04,0.99-4.43-0.3c-1.65-1.53-3.3-3.05-4.89-4.64c-8.56-8.58-18.88-13.18-30.98-13.86c-3.03-0.17-6.09-0.27-9.05-0.83
		c-1-0.19-2.14-1.54-2.51-2.6c-0.36-1.03,0.19-2.38,0.34-3.58C748.31,3185.77,748.82,3186.01,749.33,3186.26z"/>
</g>
<path class="st0" d="M2457.3,3730.22c-20.26,29.63-40.59,59.21-60.76,88.91c-13.11,19.32-25.98,38.8-38.96,58.21
	c0.57,0.67,1.14,1.33,1.72,2c8.64-3.79,17.28-7.57,25.92-11.36c0.48,0.55,0.97,1.1,1.45,1.64c-2.67,2.59-4.99,5.72-8.06,7.68
	c-10.45,6.67-20.95,13.33-31.86,19.19c-6.04,3.24-6.84,6.71-4.82,12.85c7.49,22.83,24.96,32.92,47.06,23.46
	c14.15-6.06,27.45-15.53,39.01-25.84c12.66-11.3,22.88-25.33,34-37.99c-27.82-45.08-15.8-85.5,11.78-124.15
	c5.95-8.34,14.36-13.8,25.22-10.52c11.76,3.56,18.25,12.18,19.49,24.4c1.77,17.6-2.43,34.3-10.33,49.68
	c-9.63,18.75-20.73,36.75-31.29,55.24c8.48,8.26,18.26,9.32,31.34,2.26c26.95-14.55,47.46-36,64.32-61.17
	c5.22-7.8,13.27-15.94,13.54-24.14c0.23-6.98-8.91-14.23-13.78-21.44c-11.75-17.37-15.06-37.03-15.2-57.45
	c-0.02-3.26,1.08-6.64,2.22-9.77c6.8-18.66,21.9-22.68,35.78-8.56c18.36,18.68,22.21,41.43,15.05,66.22
	c-1.48,5.14-4.54,9.88-5.61,15.06c-0.67,3.23,0.31,9.5,1.82,9.92c3.43,0.97,8.62,0.43,11.37-1.71c9.73-7.61,18.62-16.28,28.08-24.26
	c2.77-2.33,6.4-5.2,9.57-5.12c4.74,0.12,9.42,2.64,14.12,4.13c-1.47,3.85-2.01,8.53-4.57,11.4c-9.83,10.97-21.86,18.59-36.5,22.01
	c-3.66,0.86-7.5,3.39-10.04,6.24c-14.75,16.53-23.4,36.02-25.16,58.09c-1.25,15.67,8.44,23.11,22.86,16.58
	c11.74-5.31,22.66-12.92,32.96-20.8c12.25-9.36,23.79-19.73,34.92-30.41c4.13-3.96,7.35-9.7,9.06-15.23
	c9.04-29.16,17.35-58.54,26.16-87.76c2.43-8.07,1.46-12.84-7.84-15.64c-20.73-6.23-34.96-19.56-39.74-41.39
	c-0.76-3.48-1.62-8.15,0.03-10.64c1.89-2.86,6.75-5.72,9.91-5.32c5.56,0.7,18.44,25.73,17.69,33.15c-2.58-2.12-4.78-3.93-6.98-5.74
	c3.12,9.81,17.8,21.56,27.51,22.43c7.31,0.65,8.69-4.59,10.78-9.66c10.62-25.75,20.24-52,32.46-76.97
	c9.24-18.88,21.72-36.19,33.06-54.01c2.48-3.9,5.83-7.49,9.47-10.34c7.66-6,15.49-3.77,19.59,5.34c5.67,12.6,7.27,25.75,4.68,39.39
	c-6.34,33.43-13.98,66.43-31.61,96.15c-0.45,0.76-0.33,1.85-0.89,5.43c33.58-10.37,65.84-20.34,98.1-30.3
	c0.39,0.95,0.78,1.9,1.16,2.85c-2.33,1.21-4.55,2.74-7,3.59c-30.13,10.37-60.37,20.41-90.35,31.18
	c-4.97,1.78-10.22,5.76-12.99,10.19c-21.29,34.03-45.57,65.56-74.17,93.83c-11.91,11.78-13.11,27.27-12.44,45.55
	c14.32-13.82,18.19-30.75,24.81-48.9c1.72,4.21,3.49,6.34,3.1,7.95c-4.31,17.87-6.92,36.43-20.15,50.81
	c-8.17,8.88-15.17,7.52-18.94-4.13c-1.01-3.13-1.09-6.57-1.56-9.88c-0.41-2.88-0.78-5.77-1.52-11.26
	c-10.57,9.15-18.92,17.8-28.63,24.45c-13.15,9.01-26.62,18.28-41.26,24.2c-19.12,7.73-37.35-6.65-34.24-27.01
	c2.07-13.55,8.53-26.55,13.92-39.42c2.54-6.07,7.16-11.26,11.04-17.14c-5.68-7.49-8.85-3.36-12.78,1.77
	c-15.49,20.2-30.08,41.29-47.42,59.79c-10.72,11.44-25.37,19.46-39.02,27.78c-9.29,5.66-20.08,5.66-29.97,0.42
	c-6.92-3.66-11.05-1.12-15.34,4.32c-15.4,19.5-30.45,39.4-51.74,53.17c-4.22,2.73-8.58,5.33-13.14,7.41
	c-24.35,11.08-45.5,4.76-60.47-17.4c-4.2-6.22-9.45-11.73-13.38-16.55c0.8-13.02,1.15-26.11,2.49-39.1
	c4.18-40.41,15.23-79.09,31.11-116.37c33.35-78.3,89.48-136.25,161.78-179.45c18.9-11.29,39.15-17.34,61.63-13.6
	c13.09,2.18,23.22-4.43,32.66-12.61c9.12-7.91,18.26-15.84,27.94-23.02c4.7-3.49,10.08-9.78,16.82-3.86
	c6.33,5.56,2.22,11.79-0.59,17.43c-9.14,18.32-19,36.31-27.51,54.92c-5.53,12.09-9.2,25.04-13.69,37.61
	c-0.79,2.2-0.94,4.98-2.42,6.48c-2.27,2.32-5.44,3.77-8.22,5.59c-0.89-2.93-2.69-5.93-2.48-8.79c0.41-5.65,0.85-11.72,3.17-16.74
	c7.2-15.57,3.49-29.36-5.82-44.16c-3.66,3.17-7.46,5.73-10.36,9.06c-30.39,34.93-60.72,69.92-90.87,105.06
	c-10.71,12.48-20.7,25.58-31.42,38.06c-2.54,2.96-6.67,4.56-10.1,6.81c3.07-5.45,5.4-11.56,9.36-16.32
	c38.55-46.43,77.38-92.63,116.13-138.9c1.82-2.17,3.65-4.32,5.97-7.07c-10.62-5.66-20.73-5.53-30.1-1.64
	c-18.84,7.82-38.68,14.52-55.53,25.6c-95.14,62.6-147.29,152.55-163.89,264.14c-1.23,8.26-0.26,16.84-0.33,28.13
	c3.36-4.07,4.69-5.51,5.83-7.08c29.54-40.72,58.81-81.64,88.76-122.05C2440.03,3746.09,2449.2,3738.55,2457.3,3730.22z
	 M2812.88,3535.8c-37.52,43.88-55.11,95.95-75.27,146.93c28.13,10.2,52.06,1.06,61.13-25c9.24-26.54,16.21-53.92,23.03-81.22
	C2825.22,3562.73,2821.57,3549.35,2812.88,3535.8z M2466.13,3857.71c1.27-0.25,2.55-0.49,3.82-0.74
	c15.08-18.99,27.12-39.94,34.81-62.89c3.49-10.42,4.04-22.28,3.56-33.38c-0.25-5.71-4.71-14.78-8.98-15.92
	c-5.93-1.58-13.93,1.94-20.15,5.06c-3.72,1.87-6.33,6.85-8.41,10.95c-12.52,24.72-16.38,51.02-12.32,78.27
	C2459.42,3845.51,2463.49,3851.5,2466.13,3857.71z M2709.02,3779.46c0.98,0.36,1.97,0.71,2.95,1.07
	c25.5-25.61,47.22-54.11,66.63-86.86c-14.31,1-26.31,1.38-38.15,2.97c-3.13,0.42-7.19,4.02-8.39,7.11
	c-6.3,16.2-12.21,32.58-17.45,49.15C2711.9,3761.47,2710.83,3770.58,2709.02,3779.46z M2592.36,3766.08
	c15.07-19.69,14.13-56.71-1.85-74.88c-2.89-3.29-8.88-6.66-12.42-5.8c-3.62,0.88-7.95,6.61-8.59,10.74
	C2565.3,3723.06,2574.5,3745.82,2592.36,3766.08z M2621.03,3585.65c9.41-19.06,17.64-35.7,25.86-52.35
	c-1.25-0.87-2.49-1.74-3.74-2.61c-12.56,11.1-25.12,22.19-36.06,31.86C2612.1,3570.87,2615.87,3577.1,2621.03,3585.65z
	 M2638.3,3765.15c1.08,1.33,2.16,2.65,3.24,3.98c5.27-4.51,10.53-9.03,15.8-13.54c-0.9-1.08-1.81-2.16-2.71-3.24
	C2649.19,3756.61,2643.75,3760.88,2638.3,3765.15z"/>
<path class="st0" d="M3176.78,3484.05c-37.33,46.29-74.66,92.59-112.37,139.35c8.32,4.29,13.38,1.97,16.64-4.82
	c3.34-6.96,5.87-14.34,9.64-21.04c1.42-2.52,5.34-3.62,8.12-5.37c0.67,3.19,2.38,6.58,1.79,9.51c-0.96,4.77-3.41,9.24-6.45,16.9
	c7.37-2.84,12.03-4.85,16.83-6.46c22.51-7.56,44.94-15.39,67.65-22.27c6.21-1.88,13.38-1.53,20-0.96
	c14.18,1.22,21.6,12.02,15.43,24.82c-5.59,11.58-12.57,23.6-22,32c-26.51,23.65-54.55,45.58-82.08,68.07
	c-6.18,5.04-16.17,7.34-11.97,18.95c4.61,12.75,16.6,22.85,27.32,19.03c24.46-8.72,49.59-19.08,56.78-47.61
	c11.24-44.56,33.95-83.26,59.48-120.34c17.27-25.09,36.19-49.42,57.11-71.5c13.76-14.53,31.52-25.96,49.07-36.02
	c17.09-9.8,30.33-0.31,30.8,19.56c0.52,21.83-7.26,40.99-20.43,57.75c-45.6,58.04-96.27,111.07-155.62,155.39
	c-5.67,4.24-14.15,7.51-9.92,17.13c3.98,9.06,12.27,12.1,21.01,9.46c16.65-5.03,32.88-11.44,49.3-17.25c3.29-1.16,6.61-2.22,10.39-2
	c-20.3,11.35-39.48,25.72-63.45,27.33c-7.03,0.47-14.67-4.89-21.65-8.34c-3.09-1.53-5.23-4.99-8.35-8.13
	c-6.5,5.18-12.65,10.28-19.03,15.08c-4.55,3.43-9.18,6.85-14.16,9.59c-25.72,14.15-35.96,12.59-54.76-9.67
	c-6.73-7.97-11.8-9.67-21.48-3.77c-27.9,17.02-57.56,29.92-89.85,37.2c-8.4,1.89-15.05,12.23-22.1,19.1
	c-2.82,2.75-3.87,7.61-6.95,9.69c-3.26,2.2-7.98,2.23-12.06,3.2c-0.43-4.19-2.64-9.35-0.99-12.42
	c7.17-13.27,14.96-26.28,23.46-38.74c24.6-36.05,50.01-71.55,74.36-107.76c10.44-15.53,19.56-32.02,28.42-48.54
	c24.9-46.45,61.56-82.66,100.71-116.72c2.12-1.84,5.65-2.05,8.53-3.02C3174.9,3481.63,3175.84,3482.84,3176.78,3484.05z
	 M3190.48,3703.43c1.12,0.88,2.23,1.76,3.35,2.64c2.74-1.47,5.69-2.65,8.17-4.47c6.5-4.76,12.86-9.71,19.16-14.74
	c49.03-39.21,92.58-83.73,129.44-134.62c12.69-17.52,21-36.85,18.26-59.2c-1.54-12.62-8.67-17.15-19.54-11.02
	c-11.86,6.68-23.79,14.25-33.41,23.74c-43.38,42.82-77.72,92.43-105.15,146.69C3202.53,3668.71,3197.15,3686.4,3190.48,3703.43z
	 M3034.52,3706.32c3.77-0.66,6.32-1.11,8.87-1.56c14.07-2.48,27.73-1.75,38.95,8.11c5.22,4.59,9.04,4.29,13.92,0.32
	c29.88-24.27,60.26-47.96,89.47-73.02c8.3-7.12,14.27-17.63,19.43-27.56c4.33-8.32,0.82-13.85-8.68-14.63
	c-9.56-0.79-19.96-1.58-28.81,1.28c-24.5,7.92-48.55,17.35-72.39,27.12c-5.46,2.24-10.23,7.65-13.83,12.67
	C3065.84,3660.8,3050.77,3682.92,3034.52,3706.32z M3076.71,3724.46c-8.17-9.29-15.58-16.27-28.23-12.84
	c-28.81,7.79-45.65,29.62-64.37,53.18C3019.69,3759.09,3047.76,3742.55,3076.71,3724.46z M2953.68,3782.19
	c0.56,0.37,1.13,0.75,1.69,1.12c1.11-1.06,2.34-2.03,3.32-3.19c18.66-22.03,38-43.53,55.74-66.28
	c17.09-21.92,32.61-45.06,48.49-67.9c1.39-2,0.33-5.7,0.41-8.62c-3.45,0.08-7-0.29-10.3,0.45c-1.58,0.35-2.84,2.71-3.97,4.35
	c-30.43,43.86-60.84,87.72-91.17,131.64C2956.13,3776.32,2955.07,3779.37,2953.68,3782.19z"/>
<path class="st0" d="M3638.26,3700.37c7.4,2.05,15.35,6.96,22.12,5.68c38.64-7.34,76.93-16.58,111.25-36.94
	c7.95-4.71,14.5-11.79,21.66-17.82c13.55-11.4,26.97-22.97,40.72-34.13c2.73-2.22,6.92-4.48,10.01-3.99
	c4.07,0.65,8.83,3.21,11.12,6.47c1.39,1.98-0.15,8.2-2.42,10.19c-14.58,12.8-28.68,26.29-48.14,32.17
	c-5.72,1.73-11.77,5.82-15.38,10.57c-40.19,53.01-72.44,109.92-82.85,176.84c-1.68,10.8-0.57,22.04-0.76,33.08
	c-0.25,14.35-7.56,20.07-22.34,14.94c15.69-6.59,11-18.83,11.88-30.43c1.43-18.86,4.33-37.93,9.36-56.15
	c11.19-40.49,31.39-76.94,54.23-111.97c2.74-4.2,4.84-8.82,7.11-13.31c0.39-0.76,0.09-1.87,0.14-4.2
	c-14.41,5.02-28.1,10.02-41.96,14.55c-16.91,5.52-33.88,10.88-50.95,15.86c-12.02,3.5-23.32,2.02-35.09-3.46
	c-6.42-2.99-15.71-2.35-22.97-0.48c-13.9,3.57-26.97,10.62-40.94,13.63c-25.43,5.49-46.15-7.44-50.05-29.69
	c-0.79-4.52-0.34-9.35,0.16-13.97c0.7-6.59,1.97-13.11,3.44-22.48c-5.09,2.93-7.83,4.37-10.43,6.02
	c-18.44,11.66-36.45,24.09-55.48,34.69c-7.1,3.95-16.63,5.2-24.94,4.9c-12.04-0.44-17.99-8.05-13.68-19.06
	c9-22.99,18.39-46.17,30.77-67.44c23.13-39.72,51.81-75.42,90.19-101.67c11.37-7.78,24.95-13.12,38.26-17.03
	c15.58-4.58,25.48,5.98,22.51,22.08c-1.94,10.49-7.08,19.16-17.91,27.9c3.59-10.43,6.49-17.99,8.78-25.73
	c3.31-11.18-1.48-17.97-13.06-17.47c-5.45,0.23-11.27,2.18-16.09,4.86c-36.11,20.02-63.02,49.95-86.15,83.25
	c-13.56,19.51-25.36,40.34-36.74,61.24c-5.21,9.57-8.41,20.52-10.88,31.22c-2.51,10.9,4.16,16.28,14.7,12.11
	c8.99-3.56,17.59-8.34,25.89-13.35c16.09-9.71,32.37-19.27,47.54-30.3c7.53-5.48,13.5-13.59,18.91-21.39
	c7.83-11.27,14.11-23.61,21.85-34.95c3.85-5.64,9.49-10.05,14.32-15.02c1.1,0.34,2.2,0.69,3.3,1.03c-0.19,4.9,1.17,10.62-0.89,14.53
	c-4.91,9.32-10.12,19.13-17.55,26.33c-21.94,21.26-29.42,46.56-25.07,76.11c1.42,9.62,7.56,16,20.48,17.57
	c22.73,2.78,42.95-5.35,61.47-17.71c1.97-1.32,1.94-7.15,1.3-10.61c-4.6-25.08,0.77-46.87,21.07-63.36
	c12.07-9.8,24.7-9.39,34.71-0.18c9.94,9.15,13.04,24.6,4.25,35.65c-9.04,11.36-20.77,20.6-31.52,30.55
	c-2.61,2.41-6.01,3.97-9.04,5.92C3638.41,3697.45,3638.34,3698.91,3638.26,3700.37z M3633.75,3692.1
	c10.7-9.36,22.49-17.79,31.66-28.49c4.59-5.36,6.04-14.85,5.96-22.44c-0.13-11.31-14.62-18.5-23.96-12.37
	C3625.46,3643.19,3620.9,3676.69,3633.75,3692.1z M3831.45,3634.35c-0.6-0.92-1.2-1.84-1.8-2.77c-6.45,4.76-12.9,9.52-19.36,14.28
	c0.83,1.15,1.66,2.3,2.49,3.45C3819.01,3644.33,3825.23,3639.34,3831.45,3634.35z"/>
<path class="st0" d="M3418.64,3663.22c-11.62,6.93-23.05,14.22-34.95,20.64c-6.74,3.64-14.17,6.1-21.43,8.69
	c-20.12,7.16-21.65,6.56-32.48-12.01c-10.78,4.92-21.68,9.89-32.58,14.86c-3.35,1.53-6.59,3.42-10.08,4.54
	c-12.33,3.97-22.75-4.5-19.12-16.89c2.85-9.72,7.73-19.58,14.1-27.42c30.9-38.01,70.11-64.1,117.35-77.46
	c4.48-1.27,10.04,1.31,15.1,2.11c-19.53,8.16-38.68,14.45-56.14,23.86c-26.95,14.52-52.12,32.02-70.24,57.57
	c-4.63,6.53-8.73,13.59-11.99,20.89c-3.06,6.86,1.4,12.42,8.08,9.98c24.15-8.8,49.24-15.78,64.13-40.21
	c12.97-21.28,33.08-34.94,55.44-45.07c3.26-1.47,7.87,0.05,11.85,0.19c-1.17,4.03-1.11,9.31-3.71,11.88
	c-17.68,17.4-35.29,35-58.43,45.57c-3.37,1.54-6.96,5.01-8.11,8.39c-1.49,4.34-0.62,9.49-0.77,14.29c4.38,0.09,9.38,1.6,13.04,0.02
	c15.37-6.65,30.34-14.23,45.45-21.47c4.46-2.14,8.92-4.29,13.39-6.44C3417.23,3660.89,3417.94,3662.06,3418.64,3663.22z
	 M3361.28,3648.68c1.09,1.28,2.18,2.56,3.27,3.84c12.13-10.67,24.26-21.34,36.39-32.01c-1.22-1.36-2.45-2.73-3.67-4.09
	C3385.27,3627.17,3373.28,3637.92,3361.28,3648.68z"/>
<path class="st1" d="M5159.56,3994.36c3.6-3.19,5.64-5,7.68-6.81c4.95,5.35,5.32,12.15,1.21,16.05
	c-22.24,9.88-26.63-35.2-39.59-47.03c-55.46-35.24-146.58,18.86-204.52,35.65c0.07,0.87,0.15,1.75,0.22,2.62
	c17.31,3.41,12.6,11.97,4.68,23.02c-1.2,2.24-2.96,5.18-2.38,7.2c3.36,32.03-24.3,58.92-8.8,91.46
	c8.33,16.32,32.23-32.86,38.38-40.44c9.93-12.15,8.67-49.31,21.53-53.29c5.27,1.39,4.69,6.25,3.56,10.48
	c-5.79,27.1-7.29,57.52,3.5,83.02c43.52-32.89,18.92-86.45,38.83-105.21c13.86,20.41-9.81,49.02,3.91,69.81
	c21.45,14.9,64.32-54.64,71.14-73.13c-0.72-0.59-1.44-1.17-2.16-1.76c-8.81,4.23-6.8,16.63-16.09,19.48
	c-5.6-8.72,5.81-19.62,9.82-27.45c7.46-8.72,26.57,2.59,17.43,12.81c-30.59,36.58-39.81,123.55,23.89,61.45
	c55.15-51.9,93-114.01,125.25-181.8c9.45-11.61-12.19-16.37-5.83-28.18c3.03-6.61,7.96-13.32,15.82-11.75
	c18.06,7.96,50.43-62.73,55.31-77.99c-20.71-3.46-28.92,18.33-37.31,32.99c-0.79-0.08-1.58-0.16-2.37-0.24
	c-2.87-10.57,6.99-20.48,11.45-29.57c8.6-18.51,32.84-5.65,41.8-20.06c34.37-53.72,58.42-118.35,98.23-166.52
	c-8.55,40.12-39.52,75.92-55.23,114.79c-5.08,18.8-28.82,48.28-20.1,65.29c46.02,34.79-8.78,96.24-47.75,110.38
	c-5.41,2.29-7.75,5.59-4.26,10.84c21.78,34.51,10.91,74.53,7.6,112.07c12.76,26,38.38-41.2,39.02-54.01
	c7.01-16.87-0.02-36.85,8.26-51.77c6.58,4.02,6.96,9.28,5.43,16.19c1.01,22.26,31-3.81,43.93-1.69
	c0.95,22.63-18.11,41.73-15.61,64.17c28.56-10.14,29.98-50.35,52.94-65.61c5.77,18.06-7.17,36.78-6.44,55.91
	c25.38-17.43,50.69-40.71,61.11-70.25c9.2,6.04,3.74,13.17,2.19,21.43c-15.74,86.96,46.84-29.14,68.69-44.43
	c39.17-34.42,4.43-144.53,51.63-161.42c55.37,15.56-50.81,153.41-35.39,215.03c0.7,0.36,1.39,0.73,2.09,1.09
	c14.67-19.5,19.83-44.74,22.62-67.79c10.87-4.27,35.68,15.42,39.07-2.57c0.2-5.29,1.7-9.92,6.57-12.56c3,3.99,3.85,8.54,4.16,13.42
	c9.69-1.4,36.48-26.02,14.27-25.45c-6.03,1.77-10.79,7.07-17.39,2.8c5.5-14.88,44.65-16.03,34.43,5.71
	c-4.19,19.42-36.6,19.5-33.16,38.6c1.84,14.32,6.95,24.07,20.55,11.55c18.47-3.53,61.4-92.77,66.69-67.56
	c-3.06,6.17-7.69,13.4-13.15,16.85c-2.27,15.77-20.78,21.21-20.27,38.36c10.9,31.95,65.79-56.26,84.31-57.28
	c-15.3,25.62-43.27,45.04-64.18,67.16c-10.74,10.12-24.33,6.25-29.5-9.89c-21.82,22.11-47.72,46.85-53.7-0.96
	c-6.09-9.77-16.21-3.95-24.38-5.8c-20.88,10.67-20.64,59.26-41.98,72.91c-10.97-20.74,3.82-48.4-2.84-71.08
	c-22.76,11.02-87.94,138.79-90.02,58.46c-22.93,6.73-32.93,43.05-56.83,46.45c-13.86-11.6,3.25-26.73,2.87-40.8
	c-0.9-0.31-1.8-0.61-2.7-0.92c-14.71,15.6-25.91,54.77-51.59,48.67c-8-19.01,13.27-40.96,14.03-60.97
	c-10.16-0.33-15.37,9.92-26.42,5.09c-6.88-2.12-8.7,4.11-9.54,9.46c-6.2,28.43-14.87,69.35-45.63,79.59
	c-6.08,1.33-9.22,4.02-12.02,9.47c-37.81,90.98-99.55-91.8-10.79-24.67c22.87,23.21,14.6-141.81-7.45-109.06
	c-31.14,49.75-80.9,88.56-90.63,148.9c-5.51,17.48-10.16,35.07-11.92,53.24c-0.17,0.47-4.58,0.53-5.4-0.51
	c-9.06-23.95,12.46-53.28,15.39-78.76c-0.7-0.44-1.41-0.89-2.11-1.33c-30.7,27.8-100.51,144.55-123.5,54.55
	c-19.83,10.61-31.46,40.26-54.57,14.55c-22.98,58.58-49.12,54.98-47.29-8.88c-0.78-0.21-1.56-0.41-2.34-0.62
	c-11.86,28.38-51.64,92.18-64.41,28.32c-111.14,131.49-56.21-83.32,16.56-106.74c-0.15-0.69-0.3-1.38-0.45-2.07
	c-37.11,10.08-73.68,27.23-108.64,43.46c-3.72,2.45-7.38,8.17-7.45,12.47c-0.94,59.35-30.96,112.48-76.29,149.24
	c-65.26,39.74-165.57-5.73-215.4,64.69c-29.39,8.45,1.04-47.6,0.95-61.39c6.11-38.46,35.91-54.12-18.44-58.6
	c-143.93-72.41,263.83-385.45,306.79-134.11c2.59,17.7,2.72,17.69,19.02,11.15c39.38-15.81,78.67-31.87,118.2-47.3
	C5007.4,3956.57,5134.24,3884.77,5159.56,3994.36z M4570.06,4130.37c0.17,0.43,0.35,0.86,0.52,1.28
	c74.14-22.91,142.08-61.39,212.68-93.07c5.98-2.81,7.58-7.11,7.48-13.81c-16.07-174.07-231.45-85.33-291.29,14.77
	c-33.46,34.57-43.92,107.58,24.18,98.39c17.46-13.76,26.13-74.42,22.86-96.32c-8.32,4.76-6.99,18.92-17.89,18.8
	c-0.97-12.21,19.3-50.17,29.89-26.54C4570.05,4086.46,4511.63,4150.51,4570.06,4130.37z M4507.67,4250.74
	c0.74,0.47,1.47,0.93,2.21,1.4c77.55-88.36,212.92,9.05,264.26-128.45c5.96-10.75,32.87-84.72,7.37-73.06
	c-75.15,35.45-148.78,80.87-231.56,95.25C4521.53,4156.5,4520.57,4223.07,4507.67,4250.74z M4911.07,4047.12
	c-0.49-0.17-2.3-0.81-5.23-1.84c5.49-12.19,10.72-23.79,15.95-35.39c-0.76-0.38-1.52-0.75-2.28-1.13
	c-32.58-1.15-96.69,129.81-60.57,125.29C4888.55,4113.92,4905.06,4082.77,4911.07,4047.12z M5304.84,3870.82
	c0.62,0.56,1.23,1.11,1.85,1.67c32.31-11.45,89.32-67.72,45.32-95.14C5332.42,3804.16,5320.4,3840.61,5304.84,3870.82z
	 M5634.17,3731.31c-25.5-49.04-34.15,82.21-32.23,96.08C5620.03,3800.23,5634.54,3765.34,5634.17,3731.31z M5259.1,4014.88
	c6.48,24.86,25.19,45.72,39.39,8.82c1.94-14.13-19.09-17.7-28.58-23.86C5258.43,3995.26,5255.67,3998.29,5259.1,4014.88z
	 M5294.53,3870.48c14.64-32.24,40.43-64.73,45.14-98.91c-23.88,21.62-34.27,58.8-52.91,86.06
	C5284.22,3863.88,5288.67,3867.6,5294.53,3870.48z M5232.07,3953.61c0.59,0.49,1.18,0.97,1.76,1.46
	C5307.85,3872.46,5281.18,3849.93,5232.07,3953.61z M5358.12,3737.21c-0.89-0.4-1.78-0.81-2.67-1.21
	c-3.22,7.91-13.1,15.09-10.52,23.96C5353.7,3758.11,5353.49,3744.14,5358.12,3737.21z M5267.05,3873.15
	c3.14-6.84,8.98-12.39,0.31-14.76C5262.23,3864.32,5258.08,3866.47,5267.05,3873.15z"/>
<path class="st1" d="M5885.2,3878.42c-41.1,9.25-43.4-88.75-60.02-67.57c-11.17,36.41-21.01,73.66-26.33,111.16
	c-0.98,1.81-3.83,2.61-5.85,3.86c3.34-58.19,25.88-119.6,43.47-175.62c18.71-42.15,26.99-94.57,53.9-130.19
	c4.34,30.37-63.19,134.14-45.68,152.44c12.67,4.22,42.73,6.79,27.39,26.04c-4.3,14.1-32.41,8.8-24.96,24.01
	c9.63,23.07,16.61,48.94,45.22,50.11C5889.95,3874.58,5887.57,3876.5,5885.2,3878.42z M5851.44,3806.94
	c26.38-17.25,13.5-23.33-10.48-24.81C5821.36,3787.92,5838.38,3804.03,5851.44,3806.94z"/>
<path class="st1" d="M4809.16,1053.72c43.88-8.84,59.46-45.9,84.4-78.3c-30.15-4.67-34.69-28.23-44.06-52.31
	c-5.57,12.28-9.87,21.09-13.6,30.13c-6.41,15.59-11.65,31.72-18.86,46.92c-11.27,23.78-35.97,25.68-49.65,3.18
	c-6.56-10.79-8.78-24.26-12.66-36.62c-1.39-4.41-1.87-9.11-4.82-13.9c-9.47,27.48-10.54,57.12-20,84.22
	c-1.91-0.44-3.81-0.89-5.72-1.33c0.08-3.48-0.45-7.1,0.34-10.41c16.9-71.48,18.73-143.77,17.17-216.99
	c-1.02-47.98,8.15-96.19,12.9-144.28c0.37-3.72,1.67-7.41,2.97-10.96c0.46-1.27,2.2-2.07,6.14-5.52c0.95,6.25,2.26,10.33,2.07,14.34
	c-3.63,78.16-9.33,156.28-10.27,234.47c-0.38,31.44,8.64,63.23,15.57,94.37c1.76,7.9,11.91,13.92,18.21,20.81
	c7.1-6.54,17.04-11.78,20.78-19.87c11.39-24.64,21.06-50.16,29.93-75.85c2.81-8.14,2.93-18.29,1.06-26.82
	c-20.37-93.03-24.71-186.3-5.67-280.04c1.93-9.5,5.48-18.82,9.48-27.68c1.65-3.65,6.46-5.86,9.84-8.73
	c1.69,3.65,4.54,7.19,4.9,10.97c3.4,35.72,6.46,71.48,9.47,107.23c5.08,60.36,7.36,120.99-7.47,180.09
	c-6.84,27.28-4.34,51.1,6.64,75.59c4.74,10.58,11.44,21.51,23.41,18.26c7.36-2,13.97-12.31,17.87-20.37
	c7.89-16.31,13.72-33.62,20.89-51.76c-0.66-0.26-4.88-1.96-10.02-4.02c1.38-3.05,1.8-6.52,3.51-7.35
	c19.62-9.57,22.23-25.68,19.67-45.29c-2.96-22.62-4.17-45.48-5.93-68.25c-0.35-4.55,0.26-9.18,0.42-13.77
	c1.47-0.5,2.94-0.99,4.41-1.49c2.36,3.84,5.91,7.41,6.84,11.57c1.77,7.91,1.08,16.43,3.23,24.19c1.8,6.47,6.25,12.19,9.44,18.29
	c3.23,6.19,6.47,12.38,9.51,18.66c8.49,17.55,16.45,35.37,25.44,52.66c6.87,13.21,18.93,15.35,30.57,8.19
	c26.3-16.2,53.16-31.86,60.08-66.61c3.37-16.89,10.72-33.07,17.15-49.22c1.98-4.97,6.87-8.79,10.43-13.13
	c1.14,0.87,2.27,1.74,3.41,2.61c-7,20.4-14,40.81-21,61.21c1.47,0.83,2.94,1.66,4.41,2.49c13.98-13.97,27.97-27.95,41.95-41.92
	c1.07,0.42,2.14,0.84,3.21,1.27c-2.75,6.06-4.53,12.87-8.47,18.02c-6.25,8.16-13.13,16.26-21.2,22.51
	c-23.02,17.84-34.46,41.15-36.12,69.8c-1.54,26.53-3.86,53.05-4.37,79.6c-0.17,8.89,4.17,17.86,6.74,27.95
	c38.42-27.38,38.42-27.38,78.44,12.3c1.93-16.72,3.86-31.23,4.96-45.8c0.14-1.89-4.65-3.75-6.1-6.24
	c-4.27-7.31-12.75-16.2-11.14-22.23c7.35-27.62,17.47-54.51,26.97-81.53c0.84-2.39,4.43-3.81,11.02-4.65
	c-2.09,22.02-4.18,44.03-6.26,66.05c0.88,0.51,1.75,1.02,2.63,1.52c8.7-11.65,17.17-23.48,26.14-34.91
	c11.07-14.11,21.25-29.31,34.31-41.34c8.92-8.22,22.22-11.58,33.31-17.59c4.03-2.19,8.59-5.05,10.68-8.83
	c4.17-7.54,5.94-16.43,10.22-23.88c12.37-21.55,29.55-25.4,51.95-11.01c2.11-8.9,4.08-17.22,6.06-25.54
	c1.73-0.25,3.45-0.5,5.18-0.75c1.98,5.92,4.55,11.72,5.79,17.78c1.85,9.02,1.99,18.44,4.36,27.29c1.26,4.71,5.41,11.75,8.76,12.05
	c4.89,0.44,10.99-3.38,15.18-7c3.94-3.41,6.48-8.7,8.92-13.52c8.6-16.98,16.29-34.45,25.44-51.13
	c14.94-27.25,19.27-52.83,7.19-84.41c-16.2-42.34-15.89-88.46-13.24-133.8c0.23-3.92,1.86-7.75,5.33-11.66
	c0.94,53.25,0.87,106.33,19.33,156.79c1.89,0.06,3.79,0.13,5.68,0.19c3.82-39.22,7.64-78.44,11.46-117.66
	c0.85-0.07,1.7-0.13,2.54-0.2c0.46,5.02,1.6,10.09,1.26,15.06c-2.41,35.77-5.24,71.51-7.6,107.29c-0.32,4.93,0.27,13.78,2.12,14.26
	c5.15,1.32,12.69,1.12,16.61-1.92c16.14-12.53,29.32-27.27,30.24-49.62c0.73-17.7,2.65-35.35,4.32-56.6
	c6.8,4.39,10.43,6.74,15.04,9.72c0.65-3.14,1.67-6.09,1.82-9.09c2.24-45.07,4.33-90.15,6.54-135.22c0.32-6.5,0.02-13.37,2.09-19.33
	c1.52-4.37,6.48-7.56,9.9-11.27c3.45,4.31,9.84,8.6,9.86,12.93c0.11,24.44-0.64,48.94-2.33,73.33
	c-3.43,49.29-0.52,97.27,17.03,144.45c16.63,44.7,23.67,93.51,52.91,132.66c21.34,28.58,46.39,54.39,69.85,81.37
	c2.48,2.85,5.58,5.16,8.08,8c0.91,1.04,0.92,2.88-0.97,6.82c-12.78-11.17-26.16-21.73-38.23-33.63
	c-48.69-47.99-72.86-108.48-94.59-172.3c-21.91-64.35-22.63-128.81-21.3-194.55c0.19-9.24,0.14-18.49,0.08-27.73
	c-0.01-1.56-0.67-3.11-3.85-4.77c-1.44,34.07-1.84,68.22-4.57,102.19c-3.74,46.53-9.07,92.93-14.26,139.33
	c-0.58,5.22-4.64,10.05-7.08,15.06c-2.71-5.17-5.57-10.27-8.07-15.53c-1.28-2.7-1.93-5.71-3.55-10.69
	c-13.45,16.55-26.47,30.17-48.63,26.7c-1.88-0.3-5.52,6.7-7.38,10.75c-14.3,31.06-28.36,62.24-42.54,93.36
	c-0.9,1.97-2.15,3.79-3.39,5.58c-16.04,23.3-32.78,21.24-49.08-8.19c-1.4,15-2.61,27.99-3.82,40.97c-2.29,0.09-4.57,0.18-6.86,0.28
	c-0.87-5.44-2.07-10.86-2.55-16.34c-0.84-9.63,0.37-19.76-2.22-28.84c-3.83-13.42-15.64-16.28-26.87-8.2
	c-15.52,11.17-23.82,39.3-17.6,58.12c6.03,18.26,6.4,36.52-3.65,53.56c-2.09,3.54-7.43,5.17-11.28,7.68
	c-1.85-3.61-5.35-7.27-5.26-10.83c0.44-16.2,2-32.37,2.89-48.57c0.2-3.55,0.37-9.5-1.28-10.24c-3.43-1.53-9.08-1.83-12.03,0.1
	c-7.64,4.99-15.59,10.46-21.14,17.53c-19.79,25.21-39.58,50.51-57.59,76.99c-19.72,29-16.55,63.44-18.67,96.31
	c-0.31,4.86,3.64,10.03,5.77,15c25.76,59.83,52.72,119.2,76.46,179.82c5.59,14.27,2.97,33.36-0.51,49.21
	c-5.08,23.15-25.37,28.6-43.77,13.41c-35.32-29.16-48.4-69.21-50.18-112.77c-1.76-43.32-0.29-86.78,0.38-130.17
	c0.24-15.59-22.01-52.51-37.33-55.32c-6.56-1.2-14.86,5.35-21.91,9.23c-5.21,2.87-11.32,11.07-14.14,9.9
	c-6.08-2.51-13.82-9.01-14.67-14.79c-3.06-20.79-4.96-41.98-4.58-62.97c0.35-18.77,4.3-37.48,6.37-53.93
	c-19.35,8.08-38.49,21.31-58.7,23.19c-25.68,2.4-29.82-26.93-44.82-45.16c0.54,15.23,1.75,27.54,1.07,39.74
	c-0.3,5.31-4.46,10.41-6.86,15.6c-3.22-4.34-7.07-8.37-9.4-13.14c-1.24-2.54,0.17-6.37-1.69-8.82
	c-27.8,42.45-43.24,122.01-32.98,160.48c10.79-10.07,20.91-19.51,31.03-28.96c1.39,1.28,2.77,2.56,4.16,3.85
	c-9,11.62-17.45,23.71-27.16,34.7c-8.28,9.37-11.41,19.2-8.73,31.36c5.24,23.84,10.25,47.74,15.16,71.66
	c1.28,6.24,1.84,12.62,2.73,18.94c-1.43,1.14-2.87,2.27-4.3,3.41c-3.85-4.12-9.56-7.64-11.14-12.5c-2.99-9.2-1.73-20.02-5.65-28.61
	c-6.15-13.49-14.84-25.89-23.23-38.21c-1.22-1.79-6.75-0.84-10.29-0.81c-5.38,0.05-10.77,0.4-20.06,0.79
	c5.88-6.98,8.79-10.44,11.7-13.91c-15.58-11.64-22.35-10.18-28.36,7.57c-3.1,9.16-4.87,19.03-5.59,28.7
	c-3.24,43.87-8.32,87.94,4.45,131.19c3.25,11.02,8.8,21.36,13.59,32.69c-10.17,3.01-16.12-5.83-18.68-14.46
	c-5.97-20.16-12.8-40.77-13.98-61.49c-1.81-31.89,0.52-64.05,1.77-96.07c0.31-8.02,2.64-16.12,5.04-23.87
	c6.61-21.36,21.61-27.26,41.81-16.91c12.9,6.61,30.92-0.49,31.59-14.3c1.23-25.26-0.03-50.64-0.3-81.15
	c-9.43,13.53-15.27,23.77-22.9,32.43c-12.5,14.2-25.43,28.2-39.59,40.69C4833.21,1061.53,4821.02,1062.9,4809.16,1053.72z
	 M5170.17,1048.29c-10.09,46.25-5.73,143.23,10.31,178.7c8.45,18.69,22.38,35.58,36.5,50.8c10.97,11.83,23.41,7.99,26.28-7.49
	c2.78-15.03,5.23-32.29,0.57-46.12c-13.64-40.48-30.54-79.89-46.89-119.42C5189.57,1086.95,5180.46,1069.85,5170.17,1048.29z
	 M4849.91,875.22c25.81-93.7,13.08-187.52,1.76-281.33C4826.4,687.59,4825.87,781.36,4849.91,875.22z M5163.68,951.69
	c10.48-18.03,10.04-38.04,9.93-58.02C5164.62,911.9,5157.27,930.43,5163.68,951.69z"/>
<path class="st1" d="M4590.02,784.97c-17.44,24.34-34.87,48.69-52.95,73.92c3.81,2.87,6.9,5.2,9.82,7.39
	c-0.69,1.85-0.77,3.23-1.49,3.8c-16.11,12.87-31.97,26.09-48.7,38.11c-3.62,2.6-10.39,0.83-15.71,1.08
	c2.44-3.96,4.44-8.29,7.41-11.8c8.03-9.48,17.18-18.07,24.63-27.96c28.75-38.22,56.91-76.87,85.61-115.12
	c2.48-3.3,7.33-4.82,11.08-7.17c1.36,4.69,4.73,9.83,3.77,13.98c-6.71,29.11-14.36,58-21.58,87c-1.28,5.12-1.93,10.4-2.88,15.61
	c1.23,0.61,2.46,1.22,3.69,1.83c13.2-20.92,26.39-41.84,39.59-62.76c1.51-0.01,3.01-0.03,4.52-0.04c0.7,4.74,2.29,9.54,1.98,14.21
	c-4.82,72.01-9.9,144.01-14.84,216.02c-0.1,1.47,0.86,3.01,1.31,4.49c19.28-2.71,38.22-29.62,39.33-52.53
	c1.26-25.96,3.58-51.94,7.09-77.68c1.41-10.38,2.28-26.88,16.75-24.91c6.94,0.95,14.9,15.85,17.17,25.64
	c6.25,26.98-3.32,52.23-17.2,74.49c-19.1,30.63-21.59,61.12-5.82,95.78c-23.28-12.44-16.5-33.15-17.43-53.01
	c-9.08,8.25-14.92,16.27-22.78,19.88c-7.01,3.22-17.89,4.5-24,1.11c-4.57-2.53-5.98-13.89-5.8-21.25
	c0.51-21.1,2.99-42.15,3.87-63.26c1.55-37.31,2.5-74.64,3.85-116.87c-7.11,11.6-11.1,20.78-17.52,27.7
	c-4.75,5.12-12.66,7.29-19.16,10.78c-2.46-6.52-7.86-13.55-6.85-19.48c3.81-22.45,9.73-44.53,14.8-66.77
	c0.78-3.41,1.25-6.88,1.87-10.33C4592.3,786.21,4591.16,785.59,4590.02,784.97z M4685.74,893c-5.4,28.44-10.79,56.88-16.19,85.32
	C4693.87,958.62,4702.26,914.46,4685.74,893z"/>
<path class="st1" d="M5008.86,974.77c-20.01,26.71-40.02,53.48-60.29,80.06c-0.43,0.56-3.76-1.1-7.36-2.23
	c34.9-56.35,70.27-110.92,119.43-155.75c-4.23,7.37-8.14,14.96-12.79,22.07c-5.04,7.72-11.75,14.48-15.92,22.59
	c-3.96,7.7-8.04,16.68-7.78,24.96c0.78,24.04,3.72,48.01,5.81,72.01c1.94,0.19,3.88,0.39,5.83,0.58
	c3.16-9.02,6.32-18.05,11.13-31.76c6.72,12.63,11.33,21.3,16.9,31.75c2.59-5.05,4.45-8.67,8.01-15.61
	c-1.53,58.8,37.5,97.6,57.36,144.38c10.58,24.91,22.2,49.47,30.89,75.03c3.83,11.27,2.86,24.74,1.74,37.01
	c-1.55,16.99-14.41,23.02-29.51,14.49c-22.89-12.93-36.7-33.35-45.32-57.67c-16.97-47.88-17.92-97.94-21.24-147.84
	c-1.22-18.26-7.68-36.18-12.62-58.13c-11.4,11.24-6.02,41.54-32.63,17.03c-1.76,16.87-2.37,31.19-5.06,45.1
	c-1.46,7.58-6.46,14.47-9.87,21.67c-5.94-4.62-11.92-9.19-17.79-13.9c-1.53-1.23-2.7-2.9-4.12-4.46c-1.17,1.4-2.11,2.08-2.42,2.97
	c-2.16,6.19-4.18,12.42-6.25,18.63c-2.11-5.92-5.8-11.77-6.04-17.76c-0.67-17.06,0.07-34.17,0.28-54.6
	c24.21,13.54,17.45,40.25,31.72,54.92C5013.17,1082.17,5018.35,998.06,5008.86,974.77z M5079.19,1089.99
	c-1.74,0.64-3.48,1.28-5.22,1.92c2.67,56.55,4.76,113.44,34.2,164.5c6.49,11.26,17.9,20.19,28.41,28.46
	c8.77,6.91,16.56,3.65,14.96-8.38c-2.75-20.7-3.64-42.69-11.65-61.43C5121.7,1172.5,5099.66,1131.58,5079.19,1089.99z"/>
</svg>
