<?xml version="1.0" encoding="utf-8"?>
<!-- Generator: Adobe Illustrator 24.1.1, SVG Export Plug-In . SVG Version: 6.00 Build 0)  -->
<svg version="1.1" id="Livello_1" xmlns="http://www.w3.org/2000/svg" xmlns:xlink="http://www.w3.org/1999/xlink" x="0px" y="0px"
	 viewBox="0 0 989.1 665.6" style="enable-background:new 0 0 989.1 665.6;" xml:space="preserve">
<style type="text/css">
	.st0{fill:#FFFFF0;}
	.st1{fill:none;}
	.st2{font-family:'MyriadPro-Regular';}
	.st3{font-size:50px;}
	.st4{fill:none;stroke:#000000;stroke-miterlimit:10;}
	.st5{font-size:29px;}
</style>
<rect x="-35.3" y="-23.9" class="st0" width="1042.7" height="708.8"/>
<rect x="405.9" y="96.7" class="st1" width="159.3" height="48"/>
<text transform="matrix(1 0 0 1 405.8512 132.159)" class="st2 st3">HOME</text>
<rect x="329.3" y="56.8" class="st4" width="301.3" height="128.7"/>
<rect x="72.9" y="283" class="st4" width="301.3" height="128.7"/>
<rect x="576.4" y="293.3" class="st4" width="362.6" height="180.3"/>
<line class="st4" x1="358.9" y1="208" x2="326.2" y2="256"/>
<rect x="118.9" y="324.4" class="st1" width="262.5" height="90.9"/>
<text transform="matrix(1 0 0 1 118.8722 359.9039)" class="st2 st3">PLAYLIST</text>
<rect x="646" y="340.9" class="st1" width="239.9" height="47.9"/>
<text transform="matrix(1 0 0 1 645.9787 376.3558)" class="st2 st3">CHI SIAMO</text>
<line class="st4" x1="594.3" y1="214.1" x2="627" y2="262.1"/>
<rect x="627.5" y="403" class="st1" width="281.9" height="49"/>
<text transform="matrix(1 0 0 1 627.468 423.6326)" class="st2 st5">(DOCUMENTAZIONE)</text>
</svg>
